SplineFontDB: 1.0
FontName: ArevSans-Bold
FullName: Arev Sans Bold
FamilyName: Arev Sans
Weight: Bold
Copyright: Copyright (c) 2003 by Bitstream, Inc. All Rights Reserved.	Modifications: Copyright (c) 2006 by Tavmjong Bah. All Right Reserved
Version: Release 0.21a
FONDName: TavmjongBah
ItalicAngle: 0
UnderlinePosition: -227
UnderlineWidth: 258
Ascent: 1556
Descent: 492
Order2: 1
NeedsXUIDChange: 1
XUID: [1021 99 424017693 8073921]
FSType: 4
PfmFamily: 17
TTFWeight: 700
TTFWidth: 5
LineGap: 410
VLineGap: 0
Panose: 2 11 8 3 3 6 4 2 2 4
OS2TypoAscent: 0
OS2TypoAOffset: 1
OS2TypoDescent: 0
OS2TypoDOffset: 1
OS2TypoLinegap: 0
OS2WinAscent: 0
OS2WinAOffset: 1
OS2WinDescent: 0
OS2WinDOffset: 1
HheadAscent: 0
HheadAOffset: 1
HheadDescent: 0
HheadDOffset: 1
OS2SubXSize: 1351
OS2SubYSize: 1228
OS2SubXOff: 0
OS2SubYOff: -446
OS2SupXSize: 1351
OS2SupYSize: 1228
OS2SupXOff: 0
OS2SupYOff: 595
OS2StrikeYSize: 258
OS2StrikeYPos: 614
OS2FamilyClass: 2050
OS2Vendor: 'Tavm'
ScriptLang: 2
 1 latn 1 dflt 
 1 DFLT 1 dflt 
KernClass: 34 41 0 0
 6 hyphen
 112 A Agrave Aacute Acircumflex Atilde Adieresis Amacron Abreve Aogonek uni01CD uni01DE uni01E0 uni01E2 Delta Lambda
 6 B Beta
 47 C Ccedilla Cacute Ccaron Ccircumflex Cdotaccent
 44 D Eth Dcaron uni01C4 uni01C5 uni01F1 uni01F2
 1 F
 44 G Gbreve gcircumflex gdotaccent gcommaaccent
 20 K Kcommaaccent Kappa
 49 L Lacute Lcommaaccent Lcaron Ldot uni01C7 uni01C8
 151 O Ograve Oacute Ocircumflex Otilde Odieresis Omacron Obreve Ohungarumlaut uni018F uni01D1 uni01EA uni01EC uni022A uni022C uni022E uni0230 Omicron Theta
 5 P Rho
 1 Q
 28 R Racute Rcommaaccent Rcaron
 56 S Scedilla Scaron Sacute Scircumflex Scaron Scommaaccent
 39 T Tcommaaccent Tcaron uni021A Gamma Tau
 127 U Ugrave Uacute Ucircumflex Udieresis Utilde Umacron Ubreve Uring Uhungarumlaut Uogonek uni01D3 uni01D5 uni01D7 uni01D9 uni01DB
 1 V
 37 W Wcircumflex Wgrave Wacute Wdieresis
 5 X Chi
 62 Y Yacute Ydieresis Ycircumflex uni0232 Ygrave Upsilon Upsilon1

StartChar: .notdef
Encoding: 65536 -1 0
Width: 1229
Flags: W
Fore
102 -362 m 1,0,-1
 102 1444 l 1,1,-1
 1126 1444 l 1,2,-1
 1126 -362 l 1,3,-1
 102 -362 l 1,0,-1
217 -248 m 1,4,-1
 1012 -248 l 1,5,-1
 1012 1329 l 1,6,-1
 217 1329 l 1,7,-1
 217 -248 l 1,4,-1
EndSplineSet
Colour: aaaa88
EndChar
StartChar: .null
Encoding: 65537 0 1
Width: 1229
Flags: W
HStem: -362 114<102 1126> 181 34<581 774> 324 34<622 764> 446 34<581 770> 677 33<502 567.5> 816 34<462 578.5> 1006 34<388 522> 1329 115<102 1126>
VStem: 102 115<-362 1444> 462 40<551 850> 581 41<181 324 358 446> 581 189<181 480> 612 43<749.5 785.5> 1012 114<-362 1444>
Fore
795 -189 m 1,0,-1
 681 110 l 1,1,-1
 724 110 l 1,2,-1
 818 -141 l 1,3,-1
 913 110 l 1,4,-1
 955 110 l 1,5,-1
 841 -189 l 1,6,-1
 795 -189 l 1,0,-1
581 480 m 1,7,-1
 770 480 l 1,8,-1
 770 446 l 1,9,-1
 622 446 l 1,10,-1
 622 358 l 1,11,-1
 764 358 l 1,12,-1
 764 324 l 1,13,-1
 622 324 l 1,14,-1
 622 215 l 1,15,-1
 774 215 l 1,16,-1
 774 181 l 1,17,-1
 581 181 l 1,18,-1
 581 480 l 1,7,-1
604 691 m 1,19,20
 617 687 617 687 629 672 c 0,21,22
 641 658 641 658 654 633 c 1,23,-1
 695 551 l 1,24,-1
 651 551 l 1,25,-1
 613 628 l 1,26,27
 598 658 598 658 584 667 c 0,28,29
 570 677 570 677 546 677 c 2,30,-1
 502 677 l 1,31,-1
 502 551 l 1,32,-1
 462 551 l 1,33,-1
 462 850 l 1,34,-1
 553 850 l 2,35,36
 604 850 604 850 630 828 c 0,37,38
 655 807 655 807 655 764 c 0,39,40
 655 735 655 735 642 717 c 0,41,42
 629 698 629 698 604 691 c 1,19,20
502 816 m 1,43,-1
 502 710 l 1,44,-1
 553 710 l 2,45,46
 582 710 582 710 597 724 c 0,47,48
 612 737 612 737 612 764 c 0,49,50
 612 790 612 790 597 803 c 256,51,52
 582 816 582 816 553 816 c 2,53,-1
 502 816 l 1,43,-1
455 1189 m 1,54,-1
 400 1040 l 1,55,-1
 510 1040 l 1,56,-1
 455 1189 l 1,54,-1
432 1228 m 1,57,-1
 478 1228 l 1,58,-1
 592 930 l 1,59,-1
 550 930 l 1,60,-1
 522 1006 l 1,61,-1
 388 1006 l 1,62,-1
 361 930 l 1,63,-1
 318 930 l 1,64,-1
 432 1228 l 1,57,-1
102 -362 m 1,65,-1
 102 1444 l 1,66,-1
 1126 1444 l 1,67,-1
 1126 -362 l 1,68,-1
 102 -362 l 1,65,-1
217 -248 m 1,69,-1
 1012 -248 l 1,70,-1
 1012 1329 l 1,71,-1
 217 1329 l 1,72,-1
 217 -248 l 1,69,-1
EndSplineSet
Colour: aaaa88
EndChar
StartChar: exclam
Encoding: 33 33 4
Width: 934
Flags: W
Fore
287 1493 m 1,0,-1
 647 1493 l 1,1,-1
 647 920 l 1,2,-1
 596 502 l 1,3,-1
 338 502 l 1,4,-1
 287 920 l 1,5,-1
 287 1493 l 1,0,-1
287 356 m 1,6,-1
 647 356 l 1,7,-1
 647 0 l 1,8,-1
 287 0 l 1,9,-1
 287 356 l 1,6,-1
EndSplineSet
Colour: aaaa88
EndChar
StartChar: quotedbl
Encoding: 34 34 5
Width: 1067
Flags: W
Fore
872 1493 m 1,0,-1
 872 938 l 1,1,-1
 635 938 l 1,2,-1
 635 1493 l 1,3,-1
 872 1493 l 1,0,-1
432 1493 m 1,4,-1
 432 938 l 1,5,-1
 195 938 l 1,6,-1
 195 1493 l 1,7,-1
 432 1493 l 1,4,-1
EndSplineSet
Colour: aaaa88
EndChar
StartChar: numbersign
Encoding: 35 35 6
Width: 1716
Flags: W
Fore
911 1470 m 1,0,-1
 815 1085 l 1,1,-1
 1079 1085 l 1,2,-1
 1176 1470 l 1,3,-1
 1397 1470 l 1,4,-1
 1300 1085 l 1,5,-1
 1577 1085 l 1,6,-1
 1577 872 l 1,7,-1
 1247 872 l 1,8,-1
 1178 598 l 1,9,-1
 1462 598 l 1,10,-1
 1462 383 l 1,11,-1
 1126 383 l 1,12,-1
 1030 0 l 1,13,-1
 809 0 l 1,14,-1
 905 383 l 1,15,-1
 641 383 l 1,16,-1
 545 0 l 1,17,-1
 322 0 l 1,18,-1
 418 383 l 1,19,-1
 139 383 l 1,20,-1
 139 598 l 1,21,-1
 467 598 l 1,22,-1
 537 872 l 1,23,-1
 254 872 l 1,24,-1
 254 1085 l 1,25,-1
 592 1085 l 1,26,-1
 688 1470 l 1,27,-1
 911 1470 l 1,0,-1
1024 872 m 1,28,-1
 760 872 l 1,29,-1
 690 598 l 1,30,-1
 954 598 l 1,31,-1
 1024 872 l 1,28,-1
EndSplineSet
Colour: aaaa88
EndChar
StartChar: dollar
Encoding: 36 36 7
Width: 1425
Flags: W
Fore
795 -301 m 1,0,-1
 633 -301 l 1,1,-1
 632 0 l 1,2,3
 507 5 507 5 390 28 c 128,-1,4
 273 51 273 51 162 92 c 1,5,-1
 162 354 l 1,6,7
 277 295 277 295 394.5 263.5 c 128,-1,8
 512 232 512 232 633 228 c 1,9,-1
 633 539 l 1,10,-1
 600 545 l 2,11,12
 361 587 361 587 260.5 677 c 128,-1,13
 160 767 160 767 160 936 c 0,14,15
 160 1115 160 1115 282.5 1215.5 c 128,-1,16
 405 1316 405 1316 632 1325 c 1,17,-1
 633 1556 l 1,18,-1
 795 1556 l 1,19,-1
 795 1329 l 1,20,21
 895 1321 895 1321 995 1304 c 128,-1,22
 1095 1287 1095 1287 1196 1260 c 1,23,-1
 1196 1006 l 1,24,25
 1096 1048 1096 1048 996 1071.5 c 128,-1,26
 896 1095 896 1095 795 1100 c 1,27,-1
 795 813 l 1,28,-1
 827 807 l 2,29,30
 1081 767 1081 767 1183.5 673.5 c 128,-1,31
 1286 580 1286 580 1286 397 c 0,32,33
 1286 213 1286 213 1164 114.5 c 128,-1,34
 1042 16 1042 16 795 2 c 1,35,-1
 795 -301 l 1,0,-1
633 836 m 1,36,-1
 633 1097 l 1,37,38
 562 1093 562 1093 519.5 1058.5 c 128,-1,39
 477 1024 477 1024 477 971 c 0,40,41
 477 912 477 912 516 878.5 c 128,-1,42
 555 845 555 845 633 836 c 1,36,-1
795 510 m 1,43,-1
 795 232 l 1,44,45
 882 233 882 233 925.5 266 c 128,-1,46
 969 299 969 299 969 365 c 0,47,48
 969 433 969 433 929 466.5 c 128,-1,49
 889 500 889 500 795 510 c 1,43,-1
EndSplineSet
Colour: aaaa88
EndChar
StartChar: percent
Encoding: 37 37 8
Width: 2052
Flags: W
Fore
1587 616 m 256,0,1
 1516 616 1516 616 1477 554.5 c 128,-1,2
 1438 493 1438 493 1438 379 c 0,3,4
 1438 264 1438 264 1476.5 202.5 c 128,-1,5
 1515 141 1515 141 1587 141 c 256,6,7
 1659 141 1659 141 1697 202.5 c 128,-1,8
 1735 264 1735 264 1735 379 c 0,9,10
 1735 493 1735 493 1696.5 554.5 c 128,-1,11
 1658 616 1658 616 1587 616 c 256,0,1
1587 784 m 256,12,13
 1773 784 1773 784 1880 676 c 128,-1,14
 1987 568 1987 568 1987 379 c 256,15,16
 1987 190 1987 190 1880 80.5 c 128,-1,17
 1773 -29 1773 -29 1587 -29 c 256,18,19
 1401 -29 1401 -29 1293.5 80.5 c 128,-1,20
 1186 190 1186 190 1186 379 c 0,21,22
 1186 567 1186 567 1293.5 675.5 c 128,-1,23
 1401 784 1401 784 1587 784 c 256,12,13
670 -29 m 1,24,-1
 449 -29 l 1,25,-1
 1382 1520 l 1,26,-1
 1604 1520 l 1,27,-1
 670 -29 l 1,24,-1
465 1520 m 256,28,29
 651 1520 651 1520 757.5 1411.5 c 128,-1,30
 864 1303 864 1303 864 1114 c 256,31,32
 864 925 864 925 757.5 816 c 128,-1,33
 651 707 651 707 465 707 c 256,34,35
 279 707 279 707 172.5 816 c 128,-1,36
 66 925 66 925 66 1114 c 256,37,38
 66 1303 66 1303 172.5 1411.5 c 128,-1,39
 279 1520 279 1520 465 1520 c 256,28,29
465 1352 m 0,40,41
 393 1352 393 1352 354 1290 c 128,-1,42
 315 1228 315 1228 315 1114 c 0,43,44
 315 999 315 999 354 936.5 c 128,-1,45
 393 874 393 874 465 874 c 256,46,47
 537 874 537 874 575.5 936.5 c 128,-1,48
 614 999 614 999 614 1114 c 0,49,50
 614 1228 614 1228 575 1290 c 128,-1,51
 536 1352 536 1352 465 1352 c 0,40,41
EndSplineSet
Colour: aaaa88
EndChar
StartChar: ampersand
Encoding: 38 38 9
Width: 1786
Flags: W
Fore
799 991 m 2,0,-1
 1208 541 l 1,1,2
 1261 611 1261 611 1288.5 698 c 128,-1,3
 1316 785 1316 785 1321 895 c 1,4,-1
 1632 895 l 1,5,6
 1617 713 1617 713 1561.5 571 c 128,-1,7
 1506 429 1506 429 1407 322 c 1,8,-1
 1700 0 l 1,9,-1
 1276 0 l 1,10,-1
 1178 109 l 1,11,12
 1073 39 1073 39 957 5 c 128,-1,13
 841 -29 841 -29 711 -29 c 0,14,15
 448 -29 448 -29 285.5 109.5 c 128,-1,16
 123 248 123 248 123 467 c 0,17,18
 123 613 123 613 194.5 725.5 c 128,-1,19
 266 838 266 838 428 944 c 1,20,21
 386 997 386 997 366 1050 c 128,-1,22
 346 1103 346 1103 346 1161 c 0,23,24
 346 1324 346 1324 473 1422 c 128,-1,25
 600 1520 600 1520 811 1520 c 0,26,27
 902 1520 902 1520 1000.5 1505.5 c 128,-1,28
 1099 1491 1099 1491 1206 1462 c 1,29,-1
 1206 1184 l 1,30,31
 1112 1232 1112 1232 1028 1255 c 128,-1,32
 944 1278 944 1278 864 1278 c 0,33,34
 787 1278 787 1278 744.5 1248.5 c 128,-1,35
 702 1219 702 1219 702 1165 c 0,36,37
 702 1131 702 1131 726.5 1087.5 c 128,-1,38
 751 1044 751 1044 799 991 c 2,0,-1
600 743 m 1,39,40
 535 696 535 696 502 636.5 c 128,-1,41
 469 577 469 577 469 506 c 0,42,43
 469 391 469 391 554 310 c 128,-1,44
 639 229 639 229 758 229 c 0,45,46
 825 229 825 229 883 249.5 c 128,-1,47
 941 270 941 270 991 311 c 1,48,-1
 600 743 l 1,39,40
EndSplineSet
Colour: aaaa88
EndChar
StartChar: quotesingle
Encoding: 39 39 10
Width: 627
Flags: W
Fore
432 1493 m 1,0,-1
 432 938 l 1,1,-1
 195 938 l 1,2,-1
 195 1493 l 1,3,-1
 432 1493 l 1,0,-1
EndSplineSet
Colour: aaaa88
EndChar
StartChar: parenleft
Encoding: 40 40 11
Width: 936
Flags: W
Fore
772 -270 m 1,0,-1
 475 -270 l 1,1,2
 322 -23 322 -23 249 199.5 c 128,-1,3
 176 422 176 422 176 641 c 256,4,5
 176 860 176 860 249.5 1084.5 c 128,-1,6
 323 1309 323 1309 475 1554 c 1,7,-1
 772 1554 l 1,8,9
 644 1317 644 1317 580 1090.5 c 128,-1,10
 516 864 516 864 516 643 c 256,11,12
 516 422 516 422 579.5 195 c 128,-1,13
 643 -32 643 -32 772 -270 c 1,0,-1
EndSplineSet
Colour: aaaa88
EndChar
StartChar: parenright
Encoding: 41 41 12
Width: 936
Flags: W
Fore
164 -270 m 1,0,1
 292 -32 292 -32 356 195 c 128,-1,2
 420 422 420 422 420 643 c 256,3,4
 420 864 420 864 356 1090.5 c 128,-1,5
 292 1317 292 1317 164 1554 c 1,6,-1
 461 1554 l 1,7,8
 613 1309 613 1309 686.5 1084.5 c 128,-1,9
 760 860 760 860 760 641 c 256,10,11
 760 422 760 422 687 199.5 c 128,-1,12
 614 -23 614 -23 461 -270 c 1,13,-1
 164 -270 l 1,0,1
EndSplineSet
Colour: aaaa88
EndChar
StartChar: asterisk
Encoding: 42 42 13
Width: 1071
Flags: W
Fore
1030 1217 m 1,0,-1
 700 1044 l 1,1,-1
 1030 870 l 1,2,-1
 954 729 l 1,3,-1
 621 913 l 1,4,-1
 621 569 l 1,5,-1
 451 569 l 1,6,-1
 451 913 l 1,7,-1
 117 729 l 1,8,-1
 41 870 l 1,9,-1
 375 1044 l 1,10,-1
 41 1217 l 1,11,-1
 117 1358 l 1,12,-1
 451 1176 l 1,13,-1
 451 1520 l 1,14,-1
 621 1520 l 1,15,-1
 621 1176 l 1,16,-1
 954 1358 l 1,17,-1
 1030 1217 l 1,0,-1
EndSplineSet
Colour: aaaa88
EndChar
StartChar: plus
Encoding: 43 43 14
Width: 1716
Flags: W
Fore
977 1284 m 1,0,-1
 977 760 l 1,1,-1
 1499 760 l 1,2,-1
 1499 524 l 1,3,-1
 977 524 l 1,4,-1
 977 0 l 1,5,-1
 739 0 l 1,6,-1
 739 524 l 1,7,-1
 217 524 l 1,8,-1
 217 760 l 1,9,-1
 739 760 l 1,10,-1
 739 1284 l 1,11,-1
 977 1284 l 1,0,-1
EndSplineSet
Colour: aaaa88
EndChar
StartChar: comma
Encoding: 44 44 15
Width: 778
Flags: W
Fore
209 387 m 1,0,-1
 569 387 l 1,1,-1
 569 82 l 1,2,-1
 322 -291 l 1,3,-1
 109 -291 l 1,4,-1
 209 82 l 1,5,-1
 209 387 l 1,0,-1
EndSplineSet
Colour: aaaa88
EndChar
StartChar: hyphen
Encoding: 45 45 16
Width: 850
Flags: W
Fore
111 735 m 1,0,-1
 739 735 l 1,1,-1
 739 444 l 1,2,-1
 111 444 l 1,3,-1
 111 735 l 1,0,-1
EndSplineSet
Colour: aaaa88
EndChar
StartChar: period
Encoding: 46 46 17
Width: 778
Flags: W
Fore
209 387 m 1,0,-1
 569 387 l 1,1,-1
 569 0 l 1,2,-1
 209 0 l 1,3,-1
 209 387 l 1,0,-1
EndSplineSet
Colour: aaaa88
EndChar
StartChar: slash
Encoding: 47 47 18
Width: 748
Flags: W
Fore
526 1493 m 1,0,-1
 748 1493 l 1,1,-1
 221 -190 l 1,2,-1
 0 -190 l 1,3,-1
 526 1493 l 1,0,-1
EndSplineSet
Colour: aaaa88
EndChar
StartChar: zero
Encoding: 48 48 19
Width: 1425
Flags: W
Fore
942 748 m 0,0,1
 942 1028 942 1028 889.5 1142.5 c 128,-1,2
 837 1257 837 1257 713 1257 c 256,3,4
 589 1257 589 1257 536 1142.5 c 128,-1,5
 483 1028 483 1028 483 748 c 0,6,7
 483 465 483 465 536 349 c 128,-1,8
 589 233 589 233 713 233 c 0,9,10
 836 233 836 233 889 349 c 128,-1,11
 942 465 942 465 942 748 c 0,0,1
1327 745 m 0,12,13
 1327 374 1327 374 1167 172.5 c 128,-1,14
 1007 -29 1007 -29 713 -29 c 0,15,16
 418 -29 418 -29 258 172.5 c 128,-1,17
 98 374 98 374 98 745 c 0,18,19
 98 1117 98 1117 258 1318.5 c 128,-1,20
 418 1520 418 1520 713 1520 c 0,21,22
 1007 1520 1007 1520 1167 1318.5 c 128,-1,23
 1327 1117 1327 1117 1327 745 c 0,12,13
EndSplineSet
Colour: aaaa88
EndChar
StartChar: one
Encoding: 49 49 20
Width: 1425
Flags: W
Fore
240 266 m 1,0,-1
 580 266 l 1,1,-1
 580 1231 l 1,2,-1
 231 1159 l 1,3,-1
 231 1421 l 1,4,-1
 578 1493 l 1,5,-1
 944 1493 l 1,6,-1
 944 266 l 1,7,-1
 1284 266 l 1,8,-1
 1284 0 l 1,9,-1
 240 0 l 1,10,-1
 240 266 l 1,0,-1
EndSplineSet
Colour: aaaa88
EndChar
StartChar: two
Encoding: 50 50 21
Width: 1425
Flags: W
Fore
590 283 m 1,0,-1
 1247 283 l 1,1,-1
 1247 0 l 1,2,-1
 162 0 l 1,3,-1
 162 283 l 1,4,-1
 707 764 l 2,5,6
 780 830 780 830 815 893 c 128,-1,7
 850 956 850 956 850 1024 c 0,8,9
 850 1129 850 1129 779.5 1193 c 128,-1,10
 709 1257 709 1257 592 1257 c 0,11,12
 502 1257 502 1257 395 1218.5 c 128,-1,13
 288 1180 288 1180 166 1104 c 1,14,-1
 166 1432 l 1,15,16
 296 1475 296 1475 423 1497.5 c 128,-1,17
 550 1520 550 1520 672 1520 c 0,18,19
 940 1520 940 1520 1088.5 1402 c 128,-1,20
 1237 1284 1237 1284 1237 1073 c 0,21,22
 1237 951 1237 951 1174 845.5 c 128,-1,23
 1111 740 1111 740 909 563 c 2,24,-1
 590 283 l 1,0,-1
EndSplineSet
Colour: aaaa88
EndChar
StartChar: three
Encoding: 51 51 22
Width: 1425
Flags: W
Fore
954 805 m 1,0,1
 1105 766 1105 766 1183.5 669.5 c 128,-1,2
 1262 573 1262 573 1262 424 c 0,3,4
 1262 202 1262 202 1092 86.5 c 128,-1,5
 922 -29 922 -29 596 -29 c 0,6,7
 481 -29 481 -29 365.5 -10.5 c 128,-1,8
 250 8 250 8 137 45 c 1,9,-1
 137 342 l 1,10,11
 245 288 245 288 351.5 260.5 c 128,-1,12
 458 233 458 233 561 233 c 0,13,14
 714 233 714 233 795.5 286 c 128,-1,15
 877 339 877 339 877 438 c 0,16,17
 877 540 877 540 793.5 592.5 c 128,-1,18
 710 645 710 645 547 645 c 2,19,-1
 393 645 l 1,20,-1
 393 893 l 1,21,-1
 555 893 l 2,22,23
 700 893 700 893 771 938.5 c 128,-1,24
 842 984 842 984 842 1077 c 0,25,26
 842 1163 842 1163 773 1210 c 128,-1,27
 704 1257 704 1257 578 1257 c 0,28,29
 485 1257 485 1257 390 1236 c 128,-1,30
 295 1215 295 1215 201 1174 c 1,31,-1
 201 1456 l 1,32,33
 315 1488 315 1488 427 1504 c 128,-1,34
 539 1520 539 1520 647 1520 c 0,35,36
 938 1520 938 1520 1082.5 1424.5 c 128,-1,37
 1227 1329 1227 1329 1227 1137 c 0,38,39
 1227 1006 1227 1006 1158 922.5 c 128,-1,40
 1089 839 1089 839 954 805 c 1,0,1
EndSplineSet
Colour: aaaa88
EndChar
StartChar: four
Encoding: 52 52 23
Width: 1425
Flags: W
Fore
754 1176 m 1,0,-1
 332 551 l 1,1,-1
 754 551 l 1,2,-1
 754 1176 l 1,0,-1
690 1493 m 1,3,-1
 1118 1493 l 1,4,-1
 1118 551 l 1,5,-1
 1331 551 l 1,6,-1
 1331 272 l 1,7,-1
 1118 272 l 1,8,-1
 1118 0 l 1,9,-1
 754 0 l 1,10,-1
 754 272 l 1,11,-1
 92 272 l 1,12,-1
 92 602 l 1,13,-1
 690 1493 l 1,3,-1
EndSplineSet
Colour: aaaa88
EndChar
StartChar: five
Encoding: 53 53 24
Width: 1425
Flags: W
Fore
217 1493 m 1,0,-1
 1174 1493 l 1,1,-1
 1174 1210 l 1,2,-1
 524 1210 l 1,3,-1
 524 979 l 1,4,5
 568 991 568 991 612.5 997.5 c 128,-1,6
 657 1004 657 1004 705 1004 c 0,7,8
 978 1004 978 1004 1130 867.5 c 128,-1,9
 1282 731 1282 731 1282 487 c 0,10,11
 1282 245 1282 245 1116.5 108 c 128,-1,12
 951 -29 951 -29 657 -29 c 0,13,14
 530 -29 530 -29 405.5 -4.5 c 128,-1,15
 281 20 281 20 158 70 c 1,16,-1
 158 373 l 1,17,18
 280 303 280 303 389.5 268 c 128,-1,19
 499 233 499 233 596 233 c 0,20,21
 736 233 736 233 816.5 301.5 c 128,-1,22
 897 370 897 370 897 487 c 0,23,24
 897 605 897 605 816.5 673 c 128,-1,25
 736 741 736 741 596 741 c 0,26,27
 513 741 513 741 419 719.5 c 128,-1,28
 325 698 325 698 217 653 c 1,29,-1
 217 1493 l 1,0,-1
EndSplineSet
Colour: aaaa88
EndChar
StartChar: six
Encoding: 54 54 25
Width: 1425
Flags: W
Fore
741 737 m 0,0,1
 640 737 640 737 589.5 671.5 c 128,-1,2
 539 606 539 606 539 475 c 256,3,4
 539 344 539 344 589.5 278.5 c 128,-1,5
 640 213 640 213 741 213 c 0,6,7
 843 213 843 213 893.5 278.5 c 128,-1,8
 944 344 944 344 944 475 c 256,9,10
 944 606 944 606 893.5 671.5 c 128,-1,11
 843 737 843 737 741 737 c 0,0,1
1217 1454 m 1,12,-1
 1217 1178 l 1,13,14
 1122 1223 1122 1223 1038 1244.5 c 128,-1,15
 954 1266 954 1266 874 1266 c 0,16,17
 702 1266 702 1266 606 1170.5 c 128,-1,18
 510 1075 510 1075 494 887 c 1,19,20
 560 936 560 936 637 960.5 c 128,-1,21
 714 985 714 985 805 985 c 0,22,23
 1034 985 1034 985 1174.5 851 c 128,-1,24
 1315 717 1315 717 1315 500 c 0,25,26
 1315 260 1315 260 1158 115.5 c 128,-1,27
 1001 -29 1001 -29 737 -29 c 0,28,29
 446 -29 446 -29 286.5 167.5 c 128,-1,30
 127 364 127 364 127 725 c 0,31,32
 127 1095 127 1095 313.5 1306.5 c 128,-1,33
 500 1518 500 1518 825 1518 c 0,34,35
 928 1518 928 1518 1025 1502 c 128,-1,36
 1122 1486 1122 1486 1217 1454 c 1,12,-1
EndSplineSet
Colour: aaaa88
EndChar
StartChar: seven
Encoding: 55 55 26
Width: 1425
Flags: W
Fore
137 1493 m 1,0,-1
 1262 1493 l 1,1,-1
 1262 1276 l 1,2,-1
 680 0 l 1,3,-1
 305 0 l 1,4,-1
 856 1210 l 1,5,-1
 137 1210 l 1,6,-1
 137 1493 l 1,0,-1
EndSplineSet
Colour: aaaa88
EndChar
StartChar: eight
Encoding: 56 56 27
Width: 1425
Flags: W
Fore
713 668 m 0,0,1
 605 668 605 668 547 609 c 128,-1,2
 489 550 489 550 489 440 c 256,3,4
 489 330 489 330 547 271.5 c 128,-1,5
 605 213 605 213 713 213 c 0,6,7
 820 213 820 213 877 271.5 c 128,-1,8
 934 330 934 330 934 440 c 0,9,10
 934 551 934 551 877 609.5 c 128,-1,11
 820 668 820 668 713 668 c 0,0,1
432 795 m 1,12,13
 296 836 296 836 227 921 c 128,-1,14
 158 1006 158 1006 158 1133 c 0,15,16
 158 1322 158 1322 299 1421 c 128,-1,17
 440 1520 440 1520 713 1520 c 0,18,19
 984 1520 984 1520 1125 1421.5 c 128,-1,20
 1266 1323 1266 1323 1266 1133 c 0,21,22
 1266 1006 1266 1006 1196.5 921 c 128,-1,23
 1127 836 1127 836 991 795 c 1,24,25
 1143 753 1143 753 1220.5 658.5 c 128,-1,26
 1298 564 1298 564 1298 420 c 0,27,28
 1298 198 1298 198 1150.5 84.5 c 128,-1,29
 1003 -29 1003 -29 713 -29 c 0,30,31
 422 -29 422 -29 273.5 84.5 c 128,-1,32
 125 198 125 198 125 420 c 0,33,34
 125 564 125 564 202.5 658.5 c 128,-1,35
 280 753 280 753 432 795 c 1,12,13
522 1094 m 0,36,37
 522 1005 522 1005 571.5 957 c 128,-1,38
 621 909 621 909 713 909 c 0,39,40
 803 909 803 909 852 957 c 128,-1,41
 901 1005 901 1005 901 1094 c 256,42,43
 901 1183 901 1183 852 1230.5 c 128,-1,44
 803 1278 803 1278 713 1278 c 0,45,46
 621 1278 621 1278 571.5 1230 c 128,-1,47
 522 1182 522 1182 522 1094 c 0,36,37
EndSplineSet
Colour: aaaa88
EndChar
StartChar: nine
Encoding: 57 57 28
Width: 1425
Flags: W
Fore
205 33 m 1,0,-1
 205 309 l 1,1,2
 297 266 297 266 381 244.5 c 128,-1,3
 465 223 465 223 547 223 c 0,4,5
 719 223 719 223 815 318.5 c 128,-1,6
 911 414 911 414 928 602 c 1,7,8
 860 552 860 552 783 527 c 128,-1,9
 706 502 706 502 616 502 c 0,10,11
 387 502 387 502 246.5 635.5 c 128,-1,12
 106 769 106 769 106 987 c 0,13,14
 106 1228 106 1228 262.5 1373 c 128,-1,15
 419 1518 419 1518 682 1518 c 0,16,17
 974 1518 974 1518 1134 1321 c 128,-1,18
 1294 1124 1294 1124 1294 764 c 0,19,20
 1294 394 1294 394 1107 182.5 c 128,-1,21
 920 -29 920 -29 594 -29 c 0,22,23
 489 -29 489 -29 393 -13.5 c 128,-1,24
 297 2 297 2 205 33 c 1,0,-1
680 752 m 256,25,26
 781 752 781 752 832 817.5 c 128,-1,27
 883 883 883 883 883 1014 c 0,28,29
 883 1144 883 1144 832 1210 c 128,-1,30
 781 1276 781 1276 680 1276 c 256,31,32
 579 1276 579 1276 528 1210 c 128,-1,33
 477 1144 477 1144 477 1014 c 0,34,35
 477 883 477 883 528 817.5 c 128,-1,36
 579 752 579 752 680 752 c 256,25,26
EndSplineSet
Colour: aaaa88
EndChar
StartChar: colon
Encoding: 58 58 29
Width: 819
Flags: W
Fore
229 1120 m 1,0,-1
 590 1120 l 1,1,-1
 590 733 l 1,2,-1
 229 733 l 1,3,-1
 229 1120 l 1,0,-1
229 387 m 1,4,-1
 590 387 l 1,5,-1
 590 0 l 1,6,-1
 229 0 l 1,7,-1
 229 387 l 1,4,-1
EndSplineSet
Colour: aaaa88
EndChar
StartChar: semicolon
Encoding: 59 59 30
Width: 819
Flags: W
Fore
229 387 m 1,0,-1
 590 387 l 1,1,-1
 590 82 l 1,2,-1
 342 -291 l 1,3,-1
 129 -291 l 1,4,-1
 229 82 l 1,5,-1
 229 387 l 1,0,-1
229 1120 m 1,6,-1
 590 1120 l 1,7,-1
 590 733 l 1,8,-1
 229 733 l 1,9,-1
 229 1120 l 1,6,-1
EndSplineSet
Colour: aaaa88
EndChar
StartChar: less
Encoding: 60 60 31
Width: 1716
Flags: W
Fore
1499 973 m 1,0,-1
 535 641 l 1,1,-1
 1499 311 l 1,2,-1
 1499 61 l 1,3,-1
 217 524 l 1,4,-1
 217 760 l 1,5,-1
 1499 1223 l 1,6,-1
 1499 973 l 1,0,-1
EndSplineSet
Colour: aaaa88
EndChar
StartChar: equal
Encoding: 61 61 32
Width: 1716
Flags: W
Fore
217 987 m 1,0,-1
 1499 987 l 1,1,-1
 1499 752 l 1,2,-1
 217 752 l 1,3,-1
 217 987 l 1,0,-1
217 532 m 1,4,-1
 1499 532 l 1,5,-1
 1499 295 l 1,6,-1
 217 295 l 1,7,-1
 217 532 l 1,4,-1
EndSplineSet
Colour: aaaa88
EndChar
StartChar: greater
Encoding: 62 62 33
Width: 1716
Flags: W
Fore
217 973 m 1,0,-1
 217 1223 l 1,1,-1
 1499 760 l 1,2,-1
 1499 524 l 1,3,-1
 217 61 l 1,4,-1
 217 311 l 1,5,-1
 1182 641 l 1,6,-1
 217 973 l 1,0,-1
EndSplineSet
Colour: aaaa88
EndChar
StartChar: question
Encoding: 63 63 34
Width: 1188
Flags: W
Fore
709 504 m 1,0,-1
 348 504 l 1,1,-1
 348 553 l 2,2,3
 348 635 348 635 381 698.5 c 128,-1,4
 414 762 414 762 520 860 c 2,5,-1
 584 918 l 2,6,7
 641 970 641 970 667.5 1016 c 128,-1,8
 694 1062 694 1062 694 1108 c 0,9,10
 694 1178 694 1178 646 1217.5 c 128,-1,11
 598 1257 598 1257 512 1257 c 0,12,13
 431 1257 431 1257 337 1223.5 c 128,-1,14
 243 1190 243 1190 141 1124 c 1,15,-1
 141 1438 l 1,16,17
 262 1480 262 1480 362 1500 c 128,-1,18
 462 1520 462 1520 555 1520 c 0,19,20
 799 1520 799 1520 927 1420.5 c 128,-1,21
 1055 1321 1055 1321 1055 1130 c 0,22,23
 1055 1032 1055 1032 1016 954.5 c 128,-1,24
 977 877 977 877 883 788 c 2,25,-1
 819 731 l 2,26,27
 751 669 751 669 730 631.5 c 128,-1,28
 709 594 709 594 709 549 c 2,29,-1
 709 504 l 1,0,-1
348 356 m 1,30,-1
 709 356 l 1,31,-1
 709 0 l 1,32,-1
 348 0 l 1,33,-1
 348 356 l 1,30,-1
EndSplineSet
Colour: aaaa88
EndChar
StartChar: at
Encoding: 64 64 35
Width: 2048
Flags: W
Fore
831 539 m 0,0,1
 831 416 831 416 883.5 345 c 128,-1,2
 936 274 936 274 1026 274 c 0,3,4
 1115 274 1115 274 1168 345.5 c 128,-1,5
 1221 417 1221 417 1221 539 c 0,6,7
 1221 660 1221 660 1167.5 730.5 c 128,-1,8
 1114 801 1114 801 1024 801 c 0,9,10
 936 801 936 801 883.5 730.5 c 128,-1,11
 831 660 831 660 831 539 c 0,0,1
1241 238 m 1,12,13
 1211 167 1211 167 1144.5 127.5 c 128,-1,14
 1078 88 1078 88 989 88 c 0,15,16
 817 88 817 88 709.5 212.5 c 128,-1,17
 602 337 602 337 602 537 c 256,18,19
 602 737 602 737 710 862 c 128,-1,20
 818 987 818 987 989 987 c 0,21,22
 1078 987 1078 987 1144.5 947 c 128,-1,23
 1211 907 1211 907 1241 836 c 1,24,-1
 1241 967 l 1,25,-1
 1450 967 l 1,26,-1
 1450 274 l 1,27,28
 1574 293 1574 293 1645 393.5 c 128,-1,29
 1716 494 1716 494 1716 651 c 0,30,31
 1716 751 1716 751 1687 838.5 c 128,-1,32
 1658 926 1658 926 1599 999 c 0,33,34
 1504 1121 1504 1121 1361.5 1187 c 128,-1,35
 1219 1253 1219 1253 1053 1253 c 0,36,37
 937 1253 937 1253 831 1222.5 c 128,-1,38
 725 1192 725 1192 635 1133 c 0,39,40
 487 1035 487 1035 404.5 879.5 c 128,-1,41
 322 724 322 724 322 543 c 0,42,43
 322 394 322 394 375.5 263.5 c 128,-1,44
 429 133 429 133 530 33 c 0,45,46
 630 -65 630 -65 759.5 -116.5 c 128,-1,47
 889 -168 889 -168 1036 -168 c 0,48,49
 1162 -168 1162 -168 1288 -121 c 128,-1,50
 1414 -74 1414 -74 1503 6 c 1,51,-1
 1610 -156 l 1,52,53
 1485 -253 1485 -253 1337.5 -304.5 c 128,-1,54
 1190 -356 1190 -356 1038 -356 c 0,55,56
 853 -356 853 -356 689 -290.5 c 128,-1,57
 525 -225 525 -225 397 -100 c 256,58,59
 269 25 269 25 202 189.5 c 128,-1,60
 135 354 135 354 135 543 c 0,61,62
 135 725 135 725 203 890 c 128,-1,63
 271 1055 271 1055 397 1180 c 0,64,65
 523 1304 523 1304 690.5 1372 c 128,-1,66
 858 1440 858 1440 1038 1440 c 0,67,68
 1262 1440 1262 1440 1445 1354.5 c 128,-1,69
 1628 1269 1628 1269 1751 1108 c 0,70,71
 1826 1010 1826 1010 1864.5 895.5 c 128,-1,72
 1903 781 1903 781 1903 655 c 0,73,74
 1903 384 1903 384 1740 234 c 128,-1,75
 1577 84 1577 84 1280 84 c 2,76,-1
 1241 84 l 1,77,-1
 1241 238 l 1,12,13
EndSplineSet
Colour: aaaa88
EndChar
StartChar: A
Encoding: 65 65 36
Width: 1585
Flags: W
AnchorPoint: "Bottom" 793 0 basechar 0
AnchorPoint: "TopCap" 793 1493 basechar 0
AnchorPoint: "Ogonek" 1260 0 basechar 0
Fore
1094 272 m 1,0,-1
 492 272 l 1,1,-1
 397 0 l 1,2,-1
 10 0 l 1,3,-1
 563 1493 l 1,4,-1
 1022 1493 l 1,5,-1
 1575 0 l 1,6,-1
 1188 0 l 1,7,-1
 1094 272 l 1,0,-1
588 549 m 1,8,-1
 997 549 l 1,9,-1
 793 1143 l 1,10,-1
 588 549 l 1,8,-1
EndSplineSet
Colour: aaaa88
EndChar
StartChar: B
Encoding: 66 66 37
Width: 1561
Flags: W
AnchorPoint: "TopCap" 770 1493 basechar 0
AnchorPoint: "Bottom" 770 0 basechar 0
Fore
786 915 m 2,0,1
 877 915 877 915 924 955 c 128,-1,2
 971 995 971 995 971 1073 c 0,3,4
 971 1150 971 1150 924 1190.5 c 128,-1,5
 877 1231 877 1231 786 1231 c 2,6,-1
 573 1231 l 1,7,-1
 573 915 l 1,8,-1
 786 915 l 2,0,1
799 262 m 2,9,10
 915 262 915 262 973.5 311 c 128,-1,11
 1032 360 1032 360 1032 459 c 0,12,13
 1032 556 1032 556 974 604.5 c 128,-1,14
 916 653 916 653 799 653 c 2,15,-1
 573 653 l 1,16,-1
 573 262 l 1,17,-1
 799 262 l 2,9,10
1157 799 m 1,18,19
 1281 763 1281 763 1349 666 c 128,-1,20
 1417 569 1417 569 1417 428 c 4,21,22
 1417 212 1417 212 1271 106 c 128,-1,23
 1125 0 1125 0 827 0 c 2,24,-1
 188 0 l 1,25,-1
 188 1493 l 1,26,-1
 766 1493 l 2,27,28
 1077 1493 1077 1493 1216.5 1399 c 128,-1,29
 1356 1305 1356 1305 1356 1098 c 0,30,31
 1356 989 1356 989 1305 912.5 c 128,-1,32
 1254 836 1254 836 1157 799 c 1,18,19
EndSplineSet
Colour: aaaa88
EndChar
StartChar: C
Encoding: 67 67 38
Width: 1503
Flags: W
AnchorPoint: "TopCap" 908 1493 basechar 0
AnchorPoint: "Bottom" 908 0 basechar 0
AnchorPoint: "Cedilla" 908 0 basechar 0
Fore
1372 82 m 1,0,1
 1266 27 1266 27 1151 -1 c 128,-1,2
 1036 -29 1036 -29 911 -29 c 0,3,4
 538 -29 538 -29 320 179.5 c 128,-1,5
 102 388 102 388 102 745 c 0,6,7
 102 1103 102 1103 320 1311.5 c 128,-1,8
 538 1520 538 1520 911 1520 c 0,9,10
 1036 1520 1036 1520 1151 1492 c 128,-1,11
 1266 1464 1266 1464 1372 1409 c 5,12,-1
 1372 1100 l 1,13,14
 1265 1173 1265 1173 1161 1207 c 128,-1,15
 1057 1241 1057 1241 942 1241 c 0,16,17
 736 1241 736 1241 618 1109 c 128,-1,18
 500 977 500 977 500 745 c 0,19,20
 500 514 500 514 618 382 c 128,-1,21
 736 250 736 250 942 250 c 0,22,23
 1057 250 1057 250 1161 284 c 128,-1,24
 1265 318 1265 318 1372 391 c 1,25,-1
 1372 82 l 1,0,1
EndSplineSet
Colour: aaaa88
EndChar
StartChar: D
Encoding: 68 68 39
Width: 1700
Flags: W
AnchorPoint: "TopCap" 848 1493 basechar 0
AnchorPoint: "Bottom" 848 0 basechar 0
Fore
573 1202 m 1,0,-1
 573 291 l 1,1,-1
 711 291 l 2,2,3
 947 291 947 291 1071.5 408 c 128,-1,4
 1196 525 1196 525 1196 748 c 0,5,6
 1196 970 1196 970 1072 1086 c 128,-1,7
 948 1202 948 1202 711 1202 c 2,8,-1
 573 1202 l 1,0,-1
188 1493 m 1,9,-1
 594 1493 l 2,10,11
 934 1493 934 1493 1100.5 1444.5 c 128,-1,12
 1267 1396 1267 1396 1386 1280 c 0,13,14
 1491 1179 1491 1179 1542 1047 c 128,-1,15
 1593 915 1593 915 1593 748 c 0,16,17
 1593 579 1593 579 1542 446.5 c 128,-1,18
 1491 314 1491 314 1386 213 c 0,19,20
 1266 97 1266 97 1098 48.5 c 128,-1,21
 930 0 930 0 594 0 c 2,22,-1
 188 0 l 1,23,-1
 188 1493 l 1,9,-1
EndSplineSet
Colour: aaaa88
EndChar
StartChar: E
Encoding: 69 69 40
Width: 1399
Flags: W
HStem: 0 291<573 1249> 633 291<573 1188> 1202 291<188 1227>
VStem: 188 385<0 633 0 1202>
AnchorPoint: "TopCap" 690 1493 basechar 0
AnchorPoint: "Bottom" 690 0 basechar 0
AnchorPoint: "Cedilla" 690 0 basechar 0
AnchorPoint: "Ogonek" 990 0 basechar 0
Fore
188 1493 m 1,0,-1
 1227 1493 l 1,1,-1
 1227 1202 l 1,2,-1
 573 1202 l 1,3,-1
 573 924 l 1,4,-1
 1188 924 l 1,5,-1
 1188 633 l 1,6,-1
 573 633 l 1,7,-1
 573 291 l 1,8,-1
 1249 291 l 5,9,-1
 1249 0 l 1,10,-1
 188 0 l 1,11,-1
 188 1493 l 1,0,-1
EndSplineSet
Colour: aaaa88
EndChar
StartChar: F
Encoding: 70 70 41
Width: 1399
Flags: W
AnchorPoint: "TopCap" 682 1493 basechar 0
AnchorPoint: "Bottom" 682 0 basechar 0
Fore
188 1493 m 1,0,-1
 1227 1493 l 1,1,-1
 1227 1202 l 1,2,-1
 573 1202 l 1,3,-1
 573 924 l 1,4,-1
 1188 924 l 1,5,-1
 1188 633 l 1,6,-1
 573 633 l 1,7,-1
 573 0 l 1,8,-1
 188 0 l 1,9,-1
 188 1493 l 1,0,-1
EndSplineSet
Colour: aaaa88
EndChar
StartChar: G
Encoding: 71 71 42
Width: 1681
Flags: W
AnchorPoint: "TopCap" 910 1493 basechar 0
AnchorPoint: "Bottom" 910 0 basechar 0
Fore
1530 111 m 1,0,1
 1386 41 1386 41 1231 6 c 128,-1,2
 1076 -29 1076 -29 911 -29 c 0,3,4
 538 -29 538 -29 320 179.5 c 128,-1,5
 102 388 102 388 102 745 c 0,6,7
 102 1106 102 1106 324 1313 c 128,-1,8
 546 1520 546 1520 932 1520 c 0,9,10
 1081 1520 1081 1520 1217.5 1492 c 128,-1,11
 1354 1464 1354 1464 1475 1409 c 1,12,-1
 1475 1100 l 1,13,14
 1350 1171 1350 1171 1226.5 1206 c 128,-1,15
 1103 1241 1103 1241 979 1241 c 0,16,17
 749 1241 749 1241 624.5 1112.5 c 128,-1,18
 500 984 500 984 500 745 c 0,19,20
 500 508 500 508 620 379 c 128,-1,21
 740 250 740 250 961 250 c 0,22,23
 1021 250 1021 250 1072.5 257.5 c 128,-1,24
 1124 265 1124 265 1165 281 c 1,25,-1
 1165 571 l 1,26,-1
 930 571 l 1,27,-1
 930 829 l 1,28,-1
 1530 829 l 1,29,-1
 1530 111 l 1,0,1
EndSplineSet
Colour: aaaa88
EndChar
StartChar: H
Encoding: 72 72 43
Width: 1714
Flags: W
HStem: 633 291<573 1141> 1473 20G<188 573 1141 1526>
VStem: 188 385<0 633 0 1493> 1141 385<0 1493>
AnchorPoint: "TopCap" 857 1493 basechar 0
AnchorPoint: "Bottom" 857 0 basechar 0
AnchorPoint: "Cedilla" 407 0 basechar 0
Fore
188 1493 m 1,0,-1
 573 1493 l 1,1,-1
 573 924 l 1,2,-1
 1141 924 l 1,3,-1
 1141 1493 l 1,4,-1
 1526 1493 l 1,5,-1
 1526 0 l 1,6,-1
 1141 0 l 1,7,-1
 1141 633 l 1,8,-1
 573 633 l 1,9,-1
 573 0 l 1,10,-1
 188 0 l 1,11,-1
 188 1493 l 1,0,-1
EndSplineSet
Colour: aaaa88
EndChar
StartChar: I
Encoding: 73 73 44
Width: 762
Flags: W
AnchorPoint: "Ogonek" 381 0 basechar 0
AnchorPoint: "Bottom" 381 0 basechar 0
AnchorPoint: "TopCap" 381 1493 basechar 0
Fore
188 1493 m 1,0,-1
 573 1493 l 1,1,-1
 573 0 l 1,2,-1
 188 0 l 1,3,-1
 188 1493 l 1,0,-1
EndSplineSet
Colour: aaaa88
EndChar
StartChar: J
Encoding: 74 74 45
Width: 762
Flags: W
AnchorPoint: "TopCap" 381 1493 basechar 0
AnchorPoint: "Bottom" 381 0 basechar 0
Fore
188 1493 m 1,0,-1
 573 1493 l 1,1,-1
 573 145 l 2,2,3
 573 -134 573 -134 421.5 -272 c 128,-1,4
 270 -410 270 -410 -37 -410 c 2,5,-1
 -115 -410 l 1,6,-1
 -115 -119 l 1,7,-1
 -55 -119 l 2,8,9
 65 -119 65 -119 126.5 -52 c 128,-1,10
 188 15 188 15 188 145 c 2,11,-1
 188 1493 l 1,0,-1
EndSplineSet
Colour: aaaa88
EndChar
StartChar: K
Encoding: 75 75 46
Width: 1587
Flags: W
AnchorPoint: "TopCap" 790 1493 basechar 0
AnchorPoint: "Bottom" 790 0 basechar 0
Fore
188 1493 m 1,0,-1
 573 1493 l 1,1,-1
 573 948 l 1,2,-1
 1128 1493 l 1,3,-1
 1575 1493 l 1,4,-1
 856 786 l 1,5,-1
 1649 0 l 5,6,-1
 1167 0 l 1,7,-1
 573 588 l 1,8,-1
 573 0 l 1,9,-1
 188 0 l 1,10,-1
 188 1493 l 1,0,-1
EndSplineSet
Colour: aaaa88
EndChar
StartChar: L
Encoding: 76 76 47
Width: 1305
Flags: W
HStem: 0 21G<188 1249> 1473 20G<188 573>
AnchorPoint: "TopCap" 710 1493 basechar 0
AnchorPoint: "Bottom" 710 0 basechar 0
Fore
188 1493 m 1,0,-1
 573 1493 l 1,1,-1
 573 291 l 1,2,-1
 1249 291 l 1,3,-1
 1249 0 l 1,4,-1
 188 0 l 1,5,-1
 188 1493 l 1,0,-1
EndSplineSet
Colour: aaaa88
EndChar
StartChar: M
Encoding: 77 77 48
Width: 2038
Flags: W
AnchorPoint: "TopCap" 1018 1493 basechar 0
AnchorPoint: "Bottom" 1018 0 basechar 0
Fore
188 1493 m 1,0,-1
 678 1493 l 1,1,-1
 1018 694 l 1,2,-1
 1360 1493 l 1,3,-1
 1849 1493 l 1,4,-1
 1849 0 l 1,5,-1
 1485 0 l 1,6,-1
 1485 1092 l 1,7,-1
 1141 287 l 1,8,-1
 897 287 l 1,9,-1
 553 1092 l 1,10,-1
 553 0 l 1,11,-1
 188 0 l 1,12,-1
 188 1493 l 1,0,-1
EndSplineSet
Colour: aaaa88
EndChar
StartChar: N
Encoding: 78 78 49
Width: 1714
Flags: W
AnchorPoint: "TopCap" 866 1493 basechar 0
AnchorPoint: "Bottom" 866 0 basechar 0
Fore
188 1493 m 1,0,-1
 618 1493 l 1,1,-1
 1161 469 l 1,2,-1
 1161 1493 l 1,3,-1
 1526 1493 l 1,4,-1
 1526 0 l 1,5,-1
 1096 0 l 1,6,-1
 553 1024 l 1,7,-1
 553 0 l 1,8,-1
 188 0 l 1,9,-1
 188 1493 l 1,0,-1
EndSplineSet
Colour: aaaa88
EndChar
StartChar: O
Encoding: 79 79 50
Width: 1741
Flags: W
AnchorPoint: "Bottom" 870 0 basechar 0
AnchorPoint: "TopCap" 870 1493 basechar 0
AnchorPoint: "Horn" 1383 1228 basechar 0
AnchorPoint: "Ogonek" 870 0 basechar 0
Fore
870 1241 m 0,0,1
 694 1241 694 1241 597 1111 c 128,-1,2
 500 981 500 981 500 745 c 0,3,4
 500 510 500 510 597 380 c 128,-1,5
 694 250 694 250 870 250 c 0,6,7
 1047 250 1047 250 1144 380 c 128,-1,8
 1241 510 1241 510 1241 745 c 0,9,10
 1241 981 1241 981 1144 1111 c 128,-1,11
 1047 1241 1047 1241 870 1241 c 0,0,1
870 1520 m 4,12,13
 1230 1520 1230 1520 1434 1314 c 132,-1,14
 1638 1108 1638 1108 1638 745 c 4,15,16
 1638 383 1638 383 1434 177 c 132,-1,17
 1230 -29 1230 -29 870 -29 c 4,18,19
 511 -29 511 -29 306 177 c 4,20,21
 102 383 102 383 102 745 c 4,22,23
 102 1108 102 1108 306 1314 c 4,24,25
 511 1520 511 1520 870 1520 c 4,12,13
EndSplineSet
Colour: aaaa88
EndChar
StartChar: P
Encoding: 80 80 51
Width: 1501
Flags: W
AnchorPoint: "TopCap" 735 1493 basechar 0
AnchorPoint: "Bottom" 735 0 basechar 0
Fore
188 1493 m 1,0,-1
 827 1493 l 2,1,2
 1112 1493 1112 1493 1264.5 1366.5 c 128,-1,3
 1417 1240 1417 1240 1417 1006 c 0,4,5
 1417 771 1417 771 1264.5 644.5 c 128,-1,6
 1112 518 1112 518 827 518 c 2,7,-1
 573 518 l 1,8,-1
 573 0 l 1,9,-1
 188 0 l 1,10,-1
 188 1493 l 1,0,-1
573 1214 m 1,11,-1
 573 797 l 1,12,-1
 786 797 l 2,13,14
 898 797 898 797 959 851.5 c 128,-1,15
 1020 906 1020 906 1020 1006 c 256,16,17
 1020 1106 1020 1106 959 1160 c 128,-1,18
 898 1214 898 1214 786 1214 c 2,19,-1
 573 1214 l 1,11,-1
EndSplineSet
Colour: aaaa88
EndChar
StartChar: Q
Encoding: 81 81 52
Width: 1741
Flags: W
AnchorPoint: "TopCap" 870 1493 basechar 0
AnchorPoint: "Bottom" 870 0 basechar 0
Fore
911 -27 m 1,0,-1
 881 -27 l 2,1,2
 512 -27 512 -27 307 177 c 128,-1,3
 102 381 102 381 102 745 c 0,4,5
 102 1108 102 1108 306.5 1314 c 128,-1,6
 511 1520 511 1520 870 1520 c 0,7,8
 1233 1520 1233 1520 1435.5 1316 c 128,-1,9
 1638 1112 1638 1112 1638 745 c 0,10,11
 1638 493 1638 493 1530.5 311 c 128,-1,12
 1423 129 1423 129 1221 37 c 1,13,-1
 1522 -299 l 1,14,-1
 1155 -299 l 1,15,-1
 911 -27 l 1,0,-1
870 1241 m 0,16,17
 694 1241 694 1241 597 1111 c 128,-1,18
 500 981 500 981 500 745 c 0,19,20
 500 505 500 505 595 377.5 c 128,-1,21
 690 250 690 250 870 250 c 0,22,23
 1047 250 1047 250 1144 380 c 128,-1,24
 1241 510 1241 510 1241 745 c 0,25,26
 1241 981 1241 981 1144 1111 c 128,-1,27
 1047 1241 1047 1241 870 1241 c 0,16,17
EndSplineSet
Colour: aaaa88
EndChar
StartChar: R
Encoding: 82 82 53
Width: 1577
Flags: W
AnchorPoint: "Bottom" 735 0 basechar 0
AnchorPoint: "TopCap" 735 1493 basechar 0
Fore
735 831 m 2,0,1
 856 831 856 831 908.5 876 c 128,-1,2
 961 921 961 921 961 1024 c 0,3,4
 961 1126 961 1126 908.5 1170 c 128,-1,5
 856 1214 856 1214 735 1214 c 2,6,-1
 573 1214 l 1,7,-1
 573 831 l 1,8,-1
 735 831 l 2,0,1
573 565 m 1,9,-1
 573 0 l 1,10,-1
 188 0 l 1,11,-1
 188 1493 l 1,12,-1
 776 1493 l 2,13,14
 1071 1493 1071 1493 1208.5 1394 c 128,-1,15
 1346 1295 1346 1295 1346 1081 c 0,16,17
 1346 933 1346 933 1274.5 838 c 128,-1,18
 1203 743 1203 743 1059 698 c 1,19,20
 1138 680 1138 680 1200.5 616.5 c 128,-1,21
 1263 553 1263 553 1327 424 c 2,22,-1
 1536 0 l 1,23,-1
 1126 0 l 1,24,-1
 944 371 l 2,25,26
 889 483 889 483 832.5 524 c 128,-1,27
 776 565 776 565 682 565 c 2,28,-1
 573 565 l 1,9,-1
EndSplineSet
Colour: aaaa88
EndChar
StartChar: S
Encoding: 83 83 54
Width: 1475
Flags: W
AnchorPoint: "TopCap" 744 1493 basechar 0
AnchorPoint: "Bottom" 744 0 basechar 0
AnchorPoint: "Cedilla" 744 0 basechar 0
Fore
1227 1446 m 1,0,-1
 1227 1130 l 1,1,2
 1104 1185 1104 1185 987 1213 c 128,-1,3
 870 1241 870 1241 766 1241 c 0,4,5
 628 1241 628 1241 562 1203 c 128,-1,6
 496 1165 496 1165 496 1085 c 0,7,8
 496 1025 496 1025 540.5 991.5 c 128,-1,9
 585 958 585 958 702 934 c 2,10,-1
 866 901 l 2,11,12
 1115 851 1115 851 1220 749 c 128,-1,13
 1325 647 1325 647 1325 459 c 0,14,15
 1325 212 1325 212 1178.5 91.5 c 128,-1,16
 1032 -29 1032 -29 731 -29 c 0,17,18
 589 -29 589 -29 446 -2 c 128,-1,19
 303 25 303 25 160 78 c 1,20,-1
 160 403 l 1,21,22
 303 327 303 327 436.5 288.5 c 128,-1,23
 570 250 570 250 694 250 c 0,24,25
 820 250 820 250 887 292 c 128,-1,26
 954 334 954 334 954 412 c 0,27,28
 954 482 954 482 908.5 520 c 128,-1,29
 863 558 863 558 727 588 c 2,30,-1
 578 621 l 2,31,32
 354 669 354 669 250.5 774 c 128,-1,33
 147 879 147 879 147 1057 c 0,34,35
 147 1280 147 1280 291 1400 c 128,-1,36
 435 1520 435 1520 705 1520 c 0,37,38
 828 1520 828 1520 958 1501.5 c 128,-1,39
 1088 1483 1088 1483 1227 1446 c 1,0,-1
EndSplineSet
Colour: aaaa88
EndChar
StartChar: T
Encoding: 84 84 55
Width: 1397
Flags: W
AnchorPoint: "TopCap" 699 1493 basechar 0
AnchorPoint: "Bottom" 699 0 basechar 0
AnchorPoint: "Cedilla" 699 0 basechar 0
Fore
10 1493 m 1,0,-1
 1386 1493 l 1,1,-1
 1386 1202 l 1,2,-1
 891 1202 l 1,3,-1
 891 0 l 1,4,-1
 506 0 l 1,5,-1
 506 1202 l 1,6,-1
 10 1202 l 1,7,-1
 10 1493 l 1,0,-1
EndSplineSet
Colour: aaaa88
EndChar
StartChar: U
Encoding: 85 85 56
Width: 1663
Flags: W
AnchorPoint: "TopCap" 832 1493 basechar 0
AnchorPoint: "Bottom" 832 0 basechar 0
AnchorPoint: "Horn" 1408 1369 basechar 0
AnchorPoint: "Ogonek" 832 0 basechar 0
Fore
188 1493 m 1,0,-1
 573 1493 l 1,1,-1
 573 598 l 2,2,3
 573 413 573 413 633.5 333.5 c 128,-1,4
 694 254 694 254 831 254 c 0,5,6
 969 254 969 254 1029.5 333.5 c 128,-1,7
 1090 413 1090 413 1090 598 c 2,8,-1
 1090 1493 l 1,9,-1
 1475 1493 l 5,10,-1
 1475 598 l 2,11,12
 1475 281 1475 281 1316 126 c 128,-1,13
 1157 -29 1157 -29 831 -29 c 0,14,15
 506 -29 506 -29 347 126 c 128,-1,16
 188 281 188 281 188 598 c 2,17,-1
 188 1493 l 1,0,-1
EndSplineSet
Colour: aaaa88
EndChar
StartChar: V
Encoding: 86 86 57
Width: 1585
Flags: W
AnchorPoint: "TopCap" 793 1493 basechar 0
AnchorPoint: "Bottom" 793 0 basechar 0
Fore
10 1493 m 1,0,-1
 397 1493 l 1,1,-1
 793 391 l 1,2,-1
 1188 1493 l 1,3,-1
 1575 1493 l 1,4,-1
 1022 0 l 1,5,-1
 563 0 l 1,6,-1
 10 1493 l 1,0,-1
EndSplineSet
Colour: aaaa88
EndChar
StartChar: W
Encoding: 87 87 58
Width: 2259
Flags: W
AnchorPoint: "TopCap" 1129 1493 basechar 0
AnchorPoint: "Bottom" 1129 0 basechar 0
Fore
61 1493 m 1,0,-1
 430 1493 l 1,1,-1
 688 408 l 1,2,-1
 944 1493 l 1,3,-1
 1315 1493 l 1,4,-1
 1571 408 l 1,5,-1
 1829 1493 l 1,6,-1
 2195 1493 l 1,7,-1
 1843 0 l 1,8,-1
 1399 0 l 1,9,-1
 1128 1135 l 1,10,-1
 860 0 l 1,11,-1
 416 0 l 1,12,-1
 61 1493 l 1,0,-1
EndSplineSet
Colour: aaaa88
EndChar
StartChar: X
Encoding: 88 88 59
Width: 1579
Flags: W
AnchorPoint: "TopCap" 789 1493 basechar 0
AnchorPoint: "Bottom" 789 0 basechar 0
Fore
1020 762 m 1,0,-1
 1538 0 l 1,1,-1
 1137 0 l 1,2,-1
 788 510 l 1,3,-1
 442 0 l 1,4,-1
 39 0 l 1,5,-1
 557 762 l 1,6,-1
 59 1493 l 1,7,-1
 461 1493 l 1,8,-1
 788 1012 l 1,9,-1
 1114 1493 l 1,10,-1
 1518 1493 l 1,11,-1
 1020 762 l 1,0,-1
EndSplineSet
Colour: aaaa88
EndChar
StartChar: Y
Encoding: 89 89 60
Width: 1483
Flags: W
AnchorPoint: "TopCap" 741 1493 basechar 0
AnchorPoint: "Bottom" 741 0 basechar 0
Fore
-20 1493 m 1,0,-1
 401 1493 l 1,1,-1
 741 961 l 1,2,-1
 1081 1493 l 1,3,-1
 1503 1493 l 1,4,-1
 934 629 l 1,5,-1
 934 0 l 1,6,-1
 549 0 l 1,7,-1
 549 629 l 1,8,-1
 -20 1493 l 1,0,-1
EndSplineSet
Colour: aaaa88
EndChar
StartChar: Z
Encoding: 90 90 61
Width: 1485
Flags: W
AnchorPoint: "TopCap" 742 1493 basechar 0
AnchorPoint: "Bottom" 742 0 basechar 0
Fore
115 1493 m 1,0,-1
 1370 1493 l 1,1,-1
 1370 1260 l 1,2,-1
 569 291 l 1,3,-1
 1393 291 l 1,4,-1
 1393 0 l 1,5,-1
 92 0 l 1,6,-1
 92 233 l 1,7,-1
 893 1202 l 1,8,-1
 115 1202 l 1,9,-1
 115 1493 l 1,0,-1
EndSplineSet
Colour: aaaa88
EndChar
StartChar: bracketleft
Encoding: 91 91 62
Width: 936
Flags: W
Fore
176 1556 m 1,0,-1
 797 1556 l 1,1,-1
 797 1331 l 1,2,-1
 516 1331 l 1,3,-1
 516 -45 l 1,4,-1
 797 -45 l 1,5,-1
 797 -270 l 1,6,-1
 176 -270 l 1,7,-1
 176 1556 l 1,0,-1
EndSplineSet
Colour: aaaa88
EndChar
StartChar: backslash
Encoding: 92 92 63
Width: 748
Flags: W
Fore
526 -190 m 1,0,-1
 0 1493 l 1,1,-1
 221 1493 l 1,2,-1
 748 -190 l 1,3,-1
 526 -190 l 1,0,-1
EndSplineSet
Colour: aaaa88
EndChar
StartChar: bracketright
Encoding: 93 93 64
Width: 936
Flags: W
Fore
760 -270 m 1,0,-1
 139 -270 l 1,1,-1
 139 -45 l 1,2,-1
 420 -45 l 1,3,-1
 420 1331 l 1,4,-1
 139 1331 l 1,5,-1
 139 1556 l 1,6,-1
 760 1556 l 1,7,-1
 760 -270 l 1,0,-1
EndSplineSet
Colour: aaaa88
EndChar
StartChar: asciicircum
Encoding: 94 94 65
Width: 1716
Flags: W
Fore
981 1493 m 1,0,-1
 1509 936 l 1,1,-1
 1268 936 l 1,2,-1
 858 1237 l 1,3,-1
 449 936 l 1,4,-1
 207 936 l 1,5,-1
 735 1493 l 1,6,-1
 981 1493 l 1,0,-1
EndSplineSet
Colour: aaaa88
EndChar
StartChar: underscore
Encoding: 95 95 66
Width: 1024
Flags: W
Fore
1024 -293 m 1,0,-1
 1024 -483 l 1,1,-1
 0 -483 l 1,2,-1
 0 -293 l 1,3,-1
 1024 -293 l 1,0,-1
EndSplineSet
Colour: aaaa88
EndChar
StartChar: grave
Encoding: 96 96 67
Width: 1024
Flags: W
Fore
377 1638 m 1,0,-1
 659 1262 l 1,1,-1
 463 1262 l 1,2,-1
 94 1638 l 1,3,-1
 377 1638 l 1,0,-1
EndSplineSet
Colour: aaaa88
EndChar
StartChar: a
Encoding: 97 97 68
Width: 1382
Flags: W
AnchorPoint: "Ogonek" 925 0 basechar 0
AnchorPoint: "Bottom" 655 0 basechar 0
AnchorPoint: "Top" 655 1120 basechar 0
Fore
674 504 m 2,0,1
 562 504 562 504 505.5 466 c 128,-1,2
 449 428 449 428 449 354 c 0,3,4
 449 286 449 286 494.5 247.5 c 128,-1,5
 540 209 540 209 621 209 c 0,6,7
 722 209 722 209 791 281.5 c 128,-1,8
 860 354 860 354 860 463 c 2,9,-1
 860 504 l 1,10,-1
 674 504 l 2,0,1
1221 639 m 2,11,-1
 1221 0 l 1,12,-1
 860 0 l 1,13,-1
 860 166 l 1,14,15
 788 64 788 64 698 17.5 c 128,-1,16
 608 -29 608 -29 479 -29 c 0,17,18
 305 -29 305 -29 196.5 72.5 c 128,-1,19
 88 174 88 174 88 336 c 0,20,21
 88 533 88 533 223.5 625 c 128,-1,22
 359 717 359 717 649 717 c 2,23,-1
 860 717 l 1,24,-1
 860 745 l 2,25,26
 860 830 860 830 793 869.5 c 128,-1,27
 726 909 726 909 584 909 c 0,28,29
 469 909 469 909 370 886 c 128,-1,30
 271 863 271 863 186 817 c 1,31,-1
 186 1090 l 1,32,33
 301 1118 301 1118 417 1132.5 c 128,-1,34
 533 1147 533 1147 649 1147 c 0,35,36
 952 1147 952 1147 1086.5 1027.5 c 128,-1,37
 1221 908 1221 908 1221 639 c 2,11,-1
EndSplineSet
Colour: aaaa88
EndChar
StartChar: b
Encoding: 98 98 69
Width: 1466
Flags: W
AnchorPoint: "Top" 767 1493 basechar 0
AnchorPoint: "Bottom" 767 0 basechar 0
Fore
768 231 m 256,0,1
 883 231 883 231 943.5 315 c 128,-1,2
 1004 399 1004 399 1004 559 c 256,3,4
 1004 719 1004 719 943.5 803 c 128,-1,5
 883 887 883 887 768 887 c 256,6,7
 653 887 653 887 591.5 802.5 c 128,-1,8
 530 718 530 718 530 559 c 256,9,10
 530 400 530 400 591.5 315.5 c 128,-1,11
 653 231 653 231 768 231 c 256,0,1
530 956 m 1,12,13
 604 1054 604 1054 694 1100.5 c 128,-1,14
 784 1147 784 1147 901 1147 c 0,15,16
 1108 1147 1108 1147 1241 982.5 c 128,-1,17
 1374 818 1374 818 1374 559 c 256,18,19
 1374 300 1374 300 1241 135.5 c 128,-1,20
 1108 -29 1108 -29 901 -29 c 0,21,22
 784 -29 784 -29 694 17.5 c 128,-1,23
 604 64 604 64 530 162 c 1,24,-1
 530 0 l 1,25,-1
 172 0 l 1,26,-1
 172 1556 l 1,27,-1
 530 1556 l 1,28,-1
 530 956 l 1,12,13
EndSplineSet
Colour: aaaa88
EndChar
StartChar: c
Encoding: 99 99 70
Width: 1214
Flags: W
AnchorPoint: "Bottom" 694 0 basechar 0
AnchorPoint: "Top" 693 1120 basechar 0
AnchorPoint: "Cedilla" 694 0 basechar 0
Fore
1077 1085 m 1,0,-1
 1077 793 l 1,1,2
 1004 843 1004 843 930.5 867 c 128,-1,3
 857 891 857 891 778 891 c 0,4,5
 628 891 628 891 544.5 803.5 c 128,-1,6
 461 716 461 716 461 559 c 256,7,8
 461 402 461 402 544.5 314.5 c 128,-1,9
 628 227 628 227 778 227 c 0,10,11
 862 227 862 227 937.5 252 c 128,-1,12
 1013 277 1013 277 1077 326 c 1,13,-1
 1077 33 l 1,14,15
 993 2 993 2 906.5 -13.5 c 128,-1,16
 820 -29 820 -29 733 -29 c 0,17,18
 430 -29 430 -29 259 126.5 c 128,-1,19
 88 282 88 282 88 559 c 260,20,21
 88 836 88 836 259 991.5 c 128,-1,22
 430 1147 430 1147 733 1147 c 0,23,24
 821 1147 821 1147 906.5 1131.5 c 128,-1,25
 992 1116 992 1116 1077 1085 c 1,0,-1
EndSplineSet
Colour: aaaa88
EndChar
StartChar: d
Encoding: 100 100 71
Width: 1466
Flags: W
AnchorPoint: "Top" 699 1120 basechar 0
AnchorPoint: "Bottom" 699 0 basechar 0
Fore
934 956 m 1,0,-1
 934 1556 l 1,1,-1
 1294 1556 l 1,2,-1
 1294 0 l 5,3,-1
 934 0 l 5,4,-1
 934 162 l 5,5,6
 860 63 860 63 771 17 c 132,-1,7
 682 -29 682 -29 565 -29 c 4,8,9
 358 -29 358 -29 225 135.5 c 128,-1,10
 92 300 92 300 92 559 c 256,11,12
 92 818 92 818 225 982.5 c 128,-1,13
 358 1147 358 1147 565 1147 c 0,14,15
 681 1147 681 1147 770.5 1100.5 c 128,-1,16
 860 1054 860 1054 934 956 c 1,0,-1
698 231 m 4,17,18
 813 231 813 231 873.5 315 c 132,-1,19
 934 399 934 399 934 559 c 260,20,21
 934 719 934 719 873.5 803 c 128,-1,22
 813 887 813 887 698 887 c 0,23,24
 584 887 584 887 523.5 803 c 128,-1,25
 463 719 463 719 463 559 c 256,26,27
 463 399 463 399 523.5 315 c 132,-1,28
 584 231 584 231 698 231 c 4,17,18
EndSplineSet
Colour: aaaa88
EndChar
StartChar: e
Encoding: 101 101 72
Width: 1389
Flags: W
AnchorPoint: "Cedilla" 662 0 basechar 0
AnchorPoint: "Top" 680 1120 basechar 0
AnchorPoint: "Bottom" 662 0 basechar 0
AnchorPoint: "Ogonek" 662 0 basechar 0
Fore
1290 563 m 2,0,-1
 1290 461 l 1,1,-1
 453 461 l 1,2,3
 466 335 466 335 544 272 c 128,-1,4
 622 209 622 209 762 209 c 0,5,6
 875 209 875 209 993.5 242.5 c 128,-1,7
 1112 276 1112 276 1237 344 c 1,8,-1
 1237 68 l 1,9,10
 1110 20 1110 20 983 -4.5 c 128,-1,11
 856 -29 856 -29 729 -29 c 0,12,13
 425 -29 425 -29 256.5 125.5 c 128,-1,14
 88 280 88 280 88 559 c 0,15,16
 88 833 88 833 253.5 990 c 128,-1,17
 419 1147 419 1147 709 1147 c 0,18,19
 973 1147 973 1147 1131.5 988 c 128,-1,20
 1290 829 1290 829 1290 563 c 2,0,-1
922 682 m 1,21,22
 922 784 922 784 862.5 846.5 c 128,-1,23
 803 909 803 909 707 909 c 0,24,25
 603 909 603 909 538 850.5 c 128,-1,26
 473 792 473 792 457 682 c 1,27,-1
 922 682 l 1,21,22
EndSplineSet
Colour: aaaa88
EndChar
StartChar: f
Encoding: 102 102 73
Width: 891
Flags: W
AnchorPoint: "Top" 515 1493 basechar 0
AnchorPoint: "Bottom" 430 0 basechar 0
Fore
909 1556 m 1,0,-1
 909 1321 l 1,1,-1
 711 1321 l 2,2,3
 635 1321 635 1321 605 1293.5 c 128,-1,4
 575 1266 575 1266 575 1198 c 2,5,-1
 575 1120 l 1,6,-1
 881 1120 l 1,7,-1
 881 864 l 1,8,-1
 575 864 l 1,9,-1
 575 0 l 1,10,-1
 217 0 l 1,11,-1
 217 864 l 1,12,-1
 39 864 l 1,13,-1
 39 1120 l 1,14,-1
 217 1120 l 1,15,-1
 217 1198 l 2,16,17
 217 1381 217 1381 319 1468.5 c 128,-1,18
 421 1556 421 1556 635 1556 c 2,19,-1
 909 1556 l 1,0,-1
EndSplineSet
Colour: aaaa88
EndChar
StartChar: g
Encoding: 103 103 74
Width: 1466
Flags: W
AnchorPoint: "Top" 746 1120 basechar 0
AnchorPoint: "Bottom" 728 -426 basechar 0
Fore
934 190 m 1,0,1
 860 92 860 92 771 46 c 128,-1,2
 682 0 682 0 565 0 c 0,3,4
 360 0 360 0 226 161.5 c 128,-1,5
 92 323 92 323 92 573 c 0,6,7
 92 824 92 824 226 984.5 c 128,-1,8
 360 1145 360 1145 565 1145 c 0,9,10
 682 1145 682 1145 771 1099 c 128,-1,11
 860 1053 860 1053 934 954 c 1,12,-1
 934 1120 l 1,13,-1
 1294 1120 l 1,14,-1
 1294 113 l 2,15,16
 1294 -157 1294 -157 1123.5 -299.5 c 128,-1,17
 953 -442 953 -442 629 -442 c 0,18,19
 524 -442 524 -442 426 -426 c 128,-1,20
 328 -410 328 -410 229 -377 c 1,21,-1
 229 -98 l 1,22,23
 323 -152 323 -152 413 -178.5 c 128,-1,24
 503 -205 503 -205 594 -205 c 0,25,26
 770 -205 770 -205 852 -128 c 128,-1,27
 934 -51 934 -51 934 113 c 2,28,-1
 934 190 l 1,0,1
698 887 m 0,29,30
 587 887 587 887 525 805 c 128,-1,31
 463 723 463 723 463 573 c 0,32,33
 463 419 463 419 523 339.5 c 128,-1,34
 583 260 583 260 698 260 c 0,35,36
 810 260 810 260 872 342 c 128,-1,37
 934 424 934 424 934 573 c 0,38,39
 934 723 934 723 872 805 c 128,-1,40
 810 887 810 887 698 887 c 0,29,30
EndSplineSet
Colour: aaaa88
EndChar
StartChar: h
Encoding: 104 104 75
Width: 1458
Flags: W
AnchorPoint: "Top" 729 1493 basechar 0
AnchorPoint: "Bottom" 729 0 basechar 0
AnchorPoint: "Cedilla" 366 0 basechar 0
Fore
1298 682 m 2,0,-1
 1298 0 l 1,1,-1
 938 0 l 1,2,-1
 938 111 l 1,3,-1
 938 520 l 2,4,5
 938 667 938 667 931.5 722 c 128,-1,6
 925 777 925 777 909 803 c 0,7,8
 888 838 888 838 852 857.5 c 128,-1,9
 816 877 816 877 770 877 c 0,10,11
 658 877 658 877 594 790.5 c 128,-1,12
 530 704 530 704 530 551 c 2,13,-1
 530 0 l 1,14,-1
 172 0 l 1,15,-1
 172 1556 l 5,16,-1
 530 1556 l 1,17,-1
 530 956 l 1,18,19
 611 1054 611 1054 702 1100.5 c 128,-1,20
 793 1147 793 1147 903 1147 c 0,21,22
 1097 1147 1097 1147 1197.5 1028 c 128,-1,23
 1298 909 1298 909 1298 682 c 2,0,-1
EndSplineSet
Colour: aaaa88
EndChar
StartChar: i
Encoding: 105 105 76
Width: 702
Flags: W
AnchorPoint: "Bottom" 350 0 basechar 0
AnchorPoint: "Top" 350 1120 basechar 0
AnchorPoint: "Ogonek" 350 0 basechar 0
Fore
172 1120 m 1,0,-1
 530 1120 l 1,1,-1
 530 0 l 1,2,-1
 172 0 l 1,3,-1
 172 1120 l 1,0,-1
172 1556 m 1,4,-1
 530 1556 l 1,5,-1
 530 1264 l 1,6,-1
 172 1264 l 1,7,-1
 172 1556 l 1,4,-1
EndSplineSet
Colour: aaaa88
EndChar
StartChar: j
Encoding: 106 106 77
Width: 702
Flags: W
AnchorPoint: "Top" 350 1120 basechar 0
AnchorPoint: "Bottom" 350 -426 basechar 0
Fore
172 1120 m 5,0,-1
 530 1120 l 1,1,-1
 530 20 l 2,2,3
 530 -205 530 -205 422 -323.5 c 128,-1,4
 314 -442 314 -442 109 -442 c 2,5,-1
 -68 -442 l 1,6,-1
 -68 -207 l 1,7,-1
 -6 -207 l 2,8,9
 96 -207 96 -207 134 -161 c 128,-1,10
 172 -115 172 -115 172 20 c 6,11,-1
 172 1120 l 5,0,-1
172 1556 m 1,12,-1
 530 1556 l 1,13,-1
 530 1264 l 1,14,-1
 172 1264 l 1,15,-1
 172 1556 l 1,12,-1
EndSplineSet
Colour: aaaa88
EndChar
StartChar: k
Encoding: 107 107 78
Width: 1362
Flags: W
AnchorPoint: "Top" 713 1493 basechar 0
AnchorPoint: "Bottom" 713 0 basechar 0
Fore
172 1556 m 1,0,-1
 530 1556 l 1,1,-1
 530 709 l 1,2,-1
 942 1120 l 1,3,-1
 1358 1120 l 1,4,-1
 811 606 l 1,5,-1
 1401 0 l 1,6,-1
 967 0 l 1,7,-1
 530 467 l 1,8,-1
 530 0 l 1,9,-1
 172 0 l 1,10,-1
 172 1556 l 1,0,-1
EndSplineSet
Colour: aaaa88
EndChar
StartChar: l
Encoding: 108 108 79
Width: 702
Flags: W
AnchorPoint: "Bottom" 350 0 basechar 0
AnchorPoint: "Top" 351 1520 basechar 0
Fore
172 1556 m 1,0,-1
 530 1556 l 1,1,-1
 530 0 l 1,2,-1
 172 0 l 1,3,-1
 172 1556 l 1,0,-1
EndSplineSet
Colour: aaaa88
EndChar
StartChar: m
Encoding: 109 109 80
Width: 2134
Flags: W
HStem: 0 21G<170 530 891 1251 1612 1972> 877 270<1466 1577>
VStem: 170 360<0 586 0 1120> 891 360<0 577> 1612 360<0 689>
AnchorPoint: "Bottom" 1074 0 basechar 0
AnchorPoint: "Top" 1074 1120 basechar 0
Fore
1210 934 m 5,0,1
 1278 1038 1278 1038 1371.5 1092.5 c 132,-1,2
 1465 1147 1465 1147 1577 1147 c 4,3,4
 1770 1147 1770 1147 1871 1028 c 132,-1,5
 1972 909 1972 909 1972 682 c 6,6,-1
 1972 0 l 1,7,-1
 1612 0 l 1,8,-1
 1612 584 l 6,9,10
 1613 597 1613 597 1613.5 611 c 132,-1,11
 1614 625 1614 625 1614 651 c 4,12,13
 1614 770 1614 770 1579 823.5 c 132,-1,14
 1544 877 1544 877 1466 877 c 4,15,16
 1364 877 1364 877 1308.5 793 c 132,-1,17
 1253 709 1253 709 1251 550 c 6,18,-1
 1251 0 l 1,19,-1
 891 0 l 1,20,-1
 891 584 l 6,21,22
 891 770 891 770 859 823.5 c 132,-1,23
 827 877 827 877 745 877 c 4,24,25
 642 877 642 877 586 792.5 c 132,-1,26
 530 708 530 708 530 551 c 6,27,-1
 530 0 l 1,28,-1
 170 0 l 1,29,-1
 170 1120 l 1,30,-1
 530 1120 l 5,31,-1
 530 956 l 5,32,33
 596 1051 596 1051 681.5 1099 c 132,-1,34
 767 1147 767 1147 870 1147 c 4,35,36
 986 1147 986 1147 1075 1091 c 132,-1,37
 1164 1035 1164 1035 1210 934 c 5,0,1
EndSplineSet
Colour: aaaa88
EndChar
StartChar: n
Encoding: 110 110 81
Width: 1458
Flags: W
AnchorPoint: "Bottom" 729 0 basechar 0
AnchorPoint: "Top" 729 1120 basechar 0
Fore
1298 682 m 2,0,-1
 1298 0 l 1,1,-1
 938 0 l 1,2,-1
 938 111 l 1,3,-1
 938 522 l 2,4,5
 938 667 938 667 931.5 722 c 128,-1,6
 925 777 925 777 909 803 c 0,7,8
 888 838 888 838 852 857.5 c 128,-1,9
 816 877 816 877 770 877 c 0,10,11
 658 877 658 877 594 790.5 c 128,-1,12
 530 704 530 704 530 551 c 2,13,-1
 530 0 l 1,14,-1
 172 0 l 1,15,-1
 172 1120 l 5,16,-1
 530 1120 l 1,17,-1
 530 956 l 1,18,19
 611 1054 611 1054 702 1100.5 c 128,-1,20
 793 1147 793 1147 903 1147 c 0,21,22
 1097 1147 1097 1147 1197.5 1028 c 128,-1,23
 1298 909 1298 909 1298 682 c 2,0,-1
EndSplineSet
Colour: aaaa88
EndChar
StartChar: o
Encoding: 111 111 82
Width: 1407
Flags: W
HStem: -29 256<705 729> 891 256<705 729>
VStem: 88 373<559 596> 946 373<559 596>
AnchorPoint: "Bottom" 704 0 basechar 0
AnchorPoint: "Top" 704 1120 basechar 0
AnchorPoint: "Horn" 1037 948 basechar 0
AnchorPoint: "Ogonek" 704 0 basechar 0
Fore
705 891 m 4,0,1
 586 891 586 891 523.5 805.5 c 132,-1,2
 461 720 461 720 461 559 c 260,3,4
 461 398 461 398 523.5 312.5 c 128,-1,5
 586 227 586 227 705 227 c 0,6,7
 822 227 822 227 884 312.5 c 128,-1,8
 946 398 946 398 946 559 c 256,9,10
 946 720 946 720 884 805.5 c 128,-1,11
 822 891 822 891 705 891 c 4,0,1
705 1147 m 4,12,13
 994 1147 994 1147 1156.5 991 c 128,-1,14
 1319 835 1319 835 1319 559 c 256,15,16
 1319 283 1319 283 1156.5 127 c 128,-1,17
 994 -29 994 -29 705 -29 c 0,18,19
 415 -29 415 -29 251.5 127 c 128,-1,20
 88 283 88 283 88 559 c 260,21,22
 88 835 88 835 251.5 991 c 132,-1,23
 415 1147 415 1147 705 1147 c 4,12,13
EndSplineSet
Colour: aaaa88
EndChar
StartChar: p
Encoding: 112 112 83
Width: 1466
Flags: W
AnchorPoint: "Top" 767 1120 basechar 0
AnchorPoint: "Bottom" 767 -426 basechar 0
Fore
530 162 m 1,0,-1
 530 -426 l 1,1,-1
 172 -426 l 1,2,-1
 172 1120 l 1,3,-1
 530 1120 l 1,4,-1
 530 956 l 1,5,6
 604 1054 604 1054 694 1100.5 c 128,-1,7
 784 1147 784 1147 901 1147 c 0,8,9
 1108 1147 1108 1147 1241 982.5 c 128,-1,10
 1374 818 1374 818 1374 559 c 256,11,12
 1374 300 1374 300 1241 135.5 c 128,-1,13
 1108 -29 1108 -29 901 -29 c 0,14,15
 784 -29 784 -29 694 17.5 c 128,-1,16
 604 64 604 64 530 162 c 1,0,-1
768 887 m 256,17,18
 653 887 653 887 591.5 802.5 c 128,-1,19
 530 718 530 718 530 559 c 256,20,21
 530 400 530 400 591.5 315.5 c 128,-1,22
 653 231 653 231 768 231 c 256,23,24
 883 231 883 231 943.5 315 c 128,-1,25
 1004 399 1004 399 1004 559 c 256,26,27
 1004 719 1004 719 943.5 803 c 128,-1,28
 883 887 883 887 768 887 c 256,17,18
EndSplineSet
Colour: aaaa88
EndChar
StartChar: q
Encoding: 113 113 84
Width: 1466
Flags: W
AnchorPoint: "Top" 699 1120 basechar 0
AnchorPoint: "Bottom" 699 -426 basechar 0
Fore
698 887 m 0,0,1
 584 887 584 887 523.5 803 c 128,-1,2
 463 719 463 719 463 559 c 256,3,4
 463 399 463 399 523.5 315 c 128,-1,5
 584 231 584 231 698 231 c 0,6,7
 813 231 813 231 873.5 315 c 128,-1,8
 934 399 934 399 934 559 c 256,9,10
 934 719 934 719 873.5 803 c 128,-1,11
 813 887 813 887 698 887 c 0,0,1
934 162 m 1,12,13
 860 63 860 63 771 17 c 128,-1,14
 682 -29 682 -29 565 -29 c 0,15,16
 358 -29 358 -29 225 135.5 c 128,-1,17
 92 300 92 300 92 559 c 256,18,19
 92 818 92 818 225 981.5 c 128,-1,20
 358 1145 358 1145 565 1145 c 0,21,22
 682 1145 682 1145 771 1099 c 128,-1,23
 860 1053 860 1053 934 954 c 1,24,-1
 934 1120 l 1,25,-1
 1294 1120 l 1,26,-1
 1294 -426 l 1,27,-1
 934 -426 l 1,28,-1
 934 162 l 1,12,13
EndSplineSet
Colour: aaaa88
EndChar
StartChar: r
Encoding: 114 114 85
Width: 1010
Flags: W
AnchorPoint: "Top" 619 1120 basechar 0
AnchorPoint: "Bottom" 619 0 basechar 0
AnchorPoint: "Cedilla" 619 0 basechar 0
Fore
1004 815 m 1,0,1
 957 837 957 837 910 848 c 128,-1,2
 864 858 864 858 817 858 c 0,3,4
 679 858 679 858 604 770 c 128,-1,5
 530 681 530 681 530 516 c 2,6,-1
 530 0 l 1,7,-1
 172 0 l 1,8,-1
 172 1120 l 1,9,-1
 530 1120 l 1,10,-1
 530 936 l 1,11,12
 599 1046 599 1046 688 1096 c 128,-1,13
 778 1147 778 1147 903 1147 c 0,14,15
 921 1147 921 1147 942 1146 c 128,-1,16
 965 1144 965 1144 1004 1139 c 1,17,-1
 1004 815 l 1,0,1
EndSplineSet
Colour: aaaa88
EndChar
StartChar: s
Encoding: 115 115 86
Width: 1219
Flags: W
AnchorPoint: "Bottom" 611 0 basechar 0
AnchorPoint: "Top" 611 1120 basechar 0
AnchorPoint: "Cedilla" 611 0 basechar 0
Fore
1047 1085 m 1,0,-1
 1047 813 l 1,1,2
 932 861 932 861 825 885 c 128,-1,3
 718 909 718 909 623 909 c 0,4,5
 521 909 521 909 471.5 883.5 c 128,-1,6
 422 858 422 858 422 805 c 0,7,8
 422 762 422 762 459.5 739 c 128,-1,9
 497 716 497 716 594 705 c 1,10,-1
 657 696 l 2,11,12
 932 661 932 661 1027 581 c 128,-1,13
 1122 501 1122 501 1122 330 c 0,14,15
 1122 151 1122 151 990 61 c 128,-1,16
 858 -29 858 -29 596 -29 c 0,17,18
 485 -29 485 -29 366.5 -11.5 c 128,-1,19
 248 6 248 6 123 41 c 1,20,-1
 123 313 l 1,21,22
 230 261 230 261 342.5 235 c 128,-1,23
 455 209 455 209 571 209 c 0,24,25
 676 209 676 209 729 238 c 128,-1,26
 782 267 782 267 782 324 c 0,27,28
 782 372 782 372 745.5 395.5 c 128,-1,29
 709 419 709 419 600 432 c 2,30,-1
 537 440 l 2,31,32
 298 470 298 470 202 551 c 128,-1,33
 106 632 106 632 106 797 c 0,34,35
 106 975 106 975 228 1061 c 128,-1,36
 350 1147 350 1147 602 1147 c 0,37,38
 701 1147 701 1147 810 1132 c 128,-1,39
 919 1117 919 1117 1047 1085 c 1,0,-1
EndSplineSet
Colour: aaaa88
EndChar
StartChar: t
Encoding: 116 116 87
Width: 979
Flags: W
AnchorPoint: "Top" 384 1520 basechar 0
AnchorPoint: "Bottom" 521 0 basechar 0
AnchorPoint: "Cedilla" 649 0 basechar 0
Fore
563 1438 m 5,0,-1
 563 1120 l 5,1,-1
 932 1120 l 5,2,-1
 932 864 l 5,3,-1
 563 864 l 5,4,-1
 563 389 l 2,5,6
 563 311 563 311 594 283.5 c 128,-1,7
 625 256 625 256 717 256 c 2,8,-1
 901 256 l 1,9,-1
 901 0 l 1,10,-1
 594 0 l 2,11,12
 382 0 382 0 293.5 88.5 c 128,-1,13
 205 177 205 177 205 389 c 2,14,-1
 205 864 l 5,15,-1
 27 864 l 5,16,-1
 27 1120 l 5,17,-1
 205 1120 l 5,18,-1
 205 1438 l 5,19,-1
 563 1438 l 5,0,-1
EndSplineSet
Colour: aaaa88
EndChar
StartChar: u
Encoding: 117 117 88
Width: 1458
Flags: W
AnchorPoint: "Bottom" 729 0 basechar 0
AnchorPoint: "Top" 729 1120 basechar 0
AnchorPoint: "Horn" 1185 948 basechar 0
AnchorPoint: "Ogonek" 1000 0 basechar 0
Fore
160 436 m 2,0,-1
 160 1120 l 5,1,-1
 520 1120 l 1,2,-1
 520 1008 l 2,3,4
 520 917 520 917 519 779.5 c 128,-1,5
 518 642 518 642 518 596 c 0,6,7
 518 461 518 461 525 401.5 c 128,-1,8
 532 342 532 342 549 315 c 0,9,10
 571 280 571 280 606.5 261 c 128,-1,11
 642 242 642 242 688 242 c 0,12,13
 800 242 800 242 864 328 c 128,-1,14
 928 414 928 414 928 567 c 2,15,-1
 928 1120 l 1,16,-1
 1286 1120 l 1,17,-1
 1286 0 l 1,18,-1
 928 0 l 1,19,-1
 928 162 l 1,20,21
 847 64 847 64 756.5 17.5 c 128,-1,22
 666 -29 666 -29 557 -29 c 0,23,24
 363 -29 363 -29 261.5 90 c 128,-1,25
 160 209 160 209 160 436 c 2,0,-1
EndSplineSet
Colour: aaaa88
EndChar
StartChar: v
Encoding: 118 118 89
Width: 1335
Flags: W
AnchorPoint: "Bottom" 668 0 basechar 0
AnchorPoint: "Top" 668 1120 basechar 0
Fore
31 1120 m 1,0,-1
 389 1120 l 1,1,-1
 668 346 l 1,2,-1
 946 1120 l 1,3,-1
 1305 1120 l 1,4,-1
 864 0 l 1,5,-1
 471 0 l 1,6,-1
 31 1120 l 1,0,-1
EndSplineSet
Colour: aaaa88
EndChar
StartChar: w
Encoding: 119 119 90
Width: 1892
Flags: W
AnchorPoint: "Bottom" 946 0 basechar 0
AnchorPoint: "Top" 946 1120 basechar 0
Fore
72 1120 m 1,0,-1
 420 1120 l 1,1,-1
 608 348 l 1,2,-1
 797 1120 l 1,3,-1
 1096 1120 l 1,4,-1
 1284 356 l 1,5,-1
 1473 1120 l 1,6,-1
 1821 1120 l 1,7,-1
 1526 0 l 1,8,-1
 1135 0 l 1,9,-1
 946 770 l 1,10,-1
 758 0 l 1,11,-1
 367 0 l 1,12,-1
 72 1120 l 1,0,-1
EndSplineSet
Colour: aaaa88
EndChar
StartChar: x
Encoding: 120 120 91
Width: 1321
Flags: W
AnchorPoint: "Bottom" 661 0 basechar 0
AnchorPoint: "Top" 661 1120 basechar 0
Fore
455 573 m 1,0,-1
 51 1120 l 1,1,-1
 430 1120 l 1,2,-1
 659 788 l 1,3,-1
 891 1120 l 1,4,-1
 1270 1120 l 1,5,-1
 866 575 l 1,6,-1
 1290 0 l 1,7,-1
 911 0 l 1,8,-1
 659 354 l 1,9,-1
 410 0 l 1,10,-1
 31 0 l 1,11,-1
 455 573 l 1,0,-1
EndSplineSet
Colour: aaaa88
EndChar
StartChar: y
Encoding: 121 121 92
Width: 1335
Flags: W
AnchorPoint: "Top" 668 1120 basechar 0
AnchorPoint: "Bottom" 668 -426 basechar 0
Fore
25 1120 m 1,0,-1
 383 1120 l 1,1,-1
 684 360 l 1,2,-1
 940 1120 l 1,3,-1
 1298 1120 l 1,4,-1
 827 -106 l 1,5,6
 756 -293 756 -293 661.5 -367.5 c 128,-1,7
 567 -442 567 -442 412 -442 c 2,8,-1
 205 -442 l 1,9,-1
 205 -207 l 1,10,-1
 317 -207 l 2,11,12
 408 -207 408 -207 449.5 -178 c 128,-1,13
 491 -149 491 -149 514 -74 c 1,14,-1
 524 -43 l 1,15,-1
 25 1120 l 1,0,-1
EndSplineSet
Colour: aaaa88
EndChar
StartChar: z
Encoding: 122 122 93
Width: 1192
Flags: W
AnchorPoint: "Bottom" 597 0 basechar 0
AnchorPoint: "Top" 597 1120 basechar 0
Fore
117 1120 m 1,0,-1
 1094 1120 l 1,1,-1
 1094 870 l 1,2,-1
 504 256 l 1,3,-1
 1094 256 l 1,4,-1
 1094 0 l 1,5,-1
 92 0 l 1,6,-1
 92 250 l 1,7,-1
 682 864 l 1,8,-1
 117 864 l 1,9,-1
 117 1120 l 1,0,-1
EndSplineSet
Colour: aaaa88
EndChar
StartChar: braceleft
Encoding: 123 123 94
Width: 1458
Flags: W
Fore
1202 -109 m 1,0,-1
 1202 -334 l 1,1,-1
 985 -334 l 2,2,3
 767 -334 767 -334 667 -246 c 128,-1,4
 567 -158 567 -158 567 35 c 2,5,-1
 567 227 l 2,6,7
 567 377 567 377 513 435.5 c 128,-1,8
 459 494 459 494 317 494 c 2,9,-1
 256 494 l 1,10,-1
 256 717 l 1,11,-1
 317 717 l 2,12,13
 459 717 459 717 513 775 c 128,-1,14
 567 833 567 833 567 983 c 2,15,-1
 567 1188 l 2,16,17
 567 1381 567 1381 667 1468.5 c 128,-1,18
 767 1556 767 1556 985 1556 c 2,19,-1
 1202 1556 l 1,20,-1
 1202 1331 l 1,21,-1
 1133 1331 l 2,22,23
 992 1331 992 1331 949.5 1287.5 c 128,-1,24
 907 1244 907 1244 907 1102 c 2,25,-1
 907 936 l 2,26,27
 907 779 907 779 862 708 c 128,-1,28
 817 637 817 637 707 612 c 1,29,30
 818 585 818 585 862.5 514 c 128,-1,31
 907 443 907 443 907 287 c 2,32,-1
 907 121 l 2,33,34
 907 -22 907 -22 949.5 -65.5 c 128,-1,35
 992 -109 992 -109 1133 -109 c 2,36,-1
 1202 -109 l 1,0,-1
EndSplineSet
Colour: aaaa88
EndChar
StartChar: bar
Encoding: 124 124 95
Width: 748
Flags: W
Fore
487 1565 m 1,0,-1
 487 -483 l 1,1,-1
 260 -483 l 1,2,-1
 260 1565 l 1,3,-1
 487 1565 l 1,0,-1
EndSplineSet
Colour: aaaa88
EndChar
StartChar: braceright
Encoding: 125 125 96
Width: 1458
Flags: W
Fore
256 -109 m 1,0,-1
 326 -109 l 2,1,2
 466 -109 466 -109 508.5 -65.5 c 128,-1,3
 551 -22 551 -22 551 121 c 2,4,-1
 551 287 l 2,5,6
 551 443 551 443 596 514 c 128,-1,7
 641 585 641 585 752 612 c 1,8,9
 641 637 641 637 596 708 c 128,-1,10
 551 779 551 779 551 936 c 2,11,-1
 551 1102 l 2,12,13
 551 1244 551 1244 508.5 1287.5 c 128,-1,14
 466 1331 466 1331 326 1331 c 2,15,-1
 256 1331 l 1,16,-1
 256 1556 l 1,17,-1
 473 1556 l 2,18,19
 691 1556 691 1556 791 1468.5 c 128,-1,20
 891 1381 891 1381 891 1188 c 2,21,-1
 891 983 l 2,22,23
 891 833 891 833 945 775 c 128,-1,24
 999 717 999 717 1141 717 c 2,25,-1
 1202 717 l 1,26,-1
 1202 494 l 1,27,-1
 1141 494 l 2,28,29
 999 494 999 494 945 435.5 c 128,-1,30
 891 377 891 377 891 227 c 2,31,-1
 891 35 l 2,32,33
 891 -158 891 -158 791 -246 c 128,-1,34
 691 -334 691 -334 473 -334 c 2,35,-1
 256 -334 l 1,36,-1
 256 -109 l 1,0,-1
EndSplineSet
Colour: aaaa88
EndChar
StartChar: asciitilde
Encoding: 126 126 97
Width: 1716
Flags: W
Fore
1499 850 m 1,0,-1
 1499 606 l 1,1,2
 1393 526 1393 526 1303.5 491.5 c 128,-1,3
 1214 457 1214 457 1118 457 c 0,4,5
 1011 457 1011 457 868 515 c 0,6,7
 854 521 854 521 846 524 c 0,8,9
 839 527 839 527 824 533 c 0,10,11
 669 594 669 594 575 594 c 0,12,13
 487 594 487 594 401 555.5 c 128,-1,14
 315 517 315 517 217 434 c 1,15,-1
 217 678 l 1,16,17
 324 758 324 758 413 792.5 c 128,-1,18
 502 827 502 827 598 827 c 0,19,20
 705 827 705 827 848 769 c 0,21,22
 863 763 863 763 870 760 c 256,23,24
 877 757 877 757 892 751 c 0,25,26
 1047 690 1047 690 1141 690 c 0,27,28
 1227 690 1227 690 1311.5 727.5 c 128,-1,29
 1396 765 1396 765 1499 850 c 1,0,-1
EndSplineSet
Colour: aaaa88
EndChar
StartChar: Aring
Encoding: 197 197 99
Width: 1585
Flags: W
Fore
1032 1464 m 1,0,-1
 1575 0 l 1,1,-1
 1188 0 l 1,2,-1
 1094 272 l 1,3,-1
 492 272 l 1,4,-1
 397 0 l 1,5,-1
 10 0 l 1,6,-1
 553 1464 l 1,7,8
 530 1498 530 1498 519 1535.5 c 128,-1,9
 508 1573 508 1573 508 1616 c 0,10,11
 508 1733 508 1733 591.5 1817 c 128,-1,12
 675 1901 675 1901 793 1901 c 0,13,14
 909 1901 909 1901 993 1817 c 128,-1,15
 1077 1733 1077 1733 1077 1616 c 0,16,17
 1077 1569 1077 1569 1066 1531 c 128,-1,18
 1055 1493 1055 1493 1032 1464 c 1,0,-1
662 1616 m 256,19,20
 662 1562 662 1562 700.5 1523.5 c 128,-1,21
 739 1485 739 1485 793 1485 c 256,22,23
 847 1485 847 1485 885.5 1523.5 c 128,-1,24
 924 1562 924 1562 924 1616 c 256,25,26
 924 1670 924 1670 885 1708.5 c 128,-1,27
 846 1747 846 1747 793 1747 c 0,28,29
 739 1747 739 1747 700.5 1708.5 c 128,-1,30
 662 1670 662 1670 662 1616 c 256,19,20
588 549 m 1,31,-1
 997 549 l 1,32,-1
 793 1143 l 1,33,-1
 588 549 l 1,31,-1
EndSplineSet
Colour: aaaa88
EndChar
StartChar: dagger
Encoding: 8224 8224 130
Width: 1024
Flags: W
Fore
342 1493 m 1,0,-1
 672 1493 l 1,1,-1
 672 1112 l 1,2,-1
 963 1112 l 1,3,-1
 963 874 l 1,4,-1
 672 874 l 1,5,-1
 672 -197 l 1,6,-1
 342 -197 l 1,7,-1
 342 874 l 1,8,-1
 53 874 l 1,9,-1
 53 1112 l 1,10,-1
 342 1112 l 1,11,-1
 342 1493 l 1,0,-1
EndSplineSet
Colour: aaaa88
EndChar
StartChar: degree
Encoding: 176 176 131
Width: 1024
Flags: W
Fore
512 1372 m 0,0,1
 440 1372 440 1372 390 1322 c 128,-1,2
 340 1272 340 1272 340 1200 c 256,3,4
 340 1128 340 1128 389.5 1079 c 128,-1,5
 439 1030 439 1030 512 1030 c 0,6,7
 584 1030 584 1030 634 1079.5 c 128,-1,8
 684 1129 684 1129 684 1200 c 0,9,10
 684 1272 684 1272 633.5 1322 c 128,-1,11
 583 1372 583 1372 512 1372 c 0,0,1
512 1534 m 0,12,13
 578 1534 578 1534 639 1508.5 c 128,-1,14
 700 1483 700 1483 748 1436 c 0,15,16
 795 1388 795 1388 819.5 1328 c 128,-1,17
 844 1268 844 1268 844 1200 c 0,18,19
 844 1133 844 1133 819.5 1072.5 c 128,-1,20
 795 1012 795 1012 750 967 c 0,21,22
 702 919 702 919 640 893.5 c 128,-1,23
 578 868 578 868 510 868 c 0,24,25
 369 868 369 868 273.5 963.5 c 128,-1,26
 178 1059 178 1059 178 1200 c 256,27,28
 178 1341 178 1341 274.5 1437.5 c 128,-1,29
 371 1534 371 1534 512 1534 c 0,12,13
EndSplineSet
Colour: aaaa88
EndChar
StartChar: cent
Encoding: 162 162 132
Width: 1425
Flags: W
Fore
702 858 m 1,0,1
 624 814 624 814 585.5 740.5 c 128,-1,2
 547 667 547 667 547 559 c 0,3,4
 547 450 547 450 585.5 376 c 128,-1,5
 624 302 624 302 702 260 c 1,6,-1
 702 858 l 1,0,1
1161 1085 m 1,7,-1
 1161 793 l 1,8,9
 1087 841 1087 841 1015.5 866 c 128,-1,10
 944 891 944 891 879 891 c 2,11,-1
 864 891 l 1,12,-1
 864 228 l 1,13,14
 953 229 953 229 1028.5 254 c 128,-1,15
 1104 279 1104 279 1161 326 c 1,16,-1
 1161 33 l 1,17,18
 1078 3 1078 3 1005 -13 c 128,-1,19
 932 -29 932 -29 874 -29 c 2,20,-1
 864 -29 l 1,21,-1
 864 -313 l 1,22,-1
 702 -313 l 1,23,-1
 702 -25 l 1,24,25
 440 15 440 15 307 166 c 128,-1,26
 174 317 174 317 174 575 c 0,27,28
 174 819 174 819 309 964.5 c 128,-1,29
 444 1110 444 1110 702 1145 c 1,30,-1
 702 1432 l 1,31,-1
 864 1432 l 1,32,-1
 865 1145 l 1,33,34
 936 1142 936 1142 1009.5 1127.5 c 128,-1,35
 1083 1113 1083 1113 1161 1085 c 1,7,-1
EndSplineSet
Colour: aaaa88
EndChar
StartChar: sterling
Encoding: 163 163 133
Width: 1425
Flags: W
Fore
1243 1466 m 1,0,-1
 1243 1180 l 1,1,2
 1173 1219 1173 1219 1099 1238 c 128,-1,3
 1025 1257 1025 1257 948 1257 c 0,4,5
 830 1257 830 1257 773.5 1194.5 c 128,-1,6
 717 1132 717 1132 717 1001 c 2,7,-1
 717 831 l 1,8,-1
 1090 831 l 1,9,-1
 1090 592 l 1,10,-1
 717 592 l 1,11,-1
 717 266 l 1,12,-1
 1255 266 l 1,13,-1
 1255 0 l 1,14,-1
 125 0 l 1,15,-1
 125 266 l 1,16,-1
 352 266 l 1,17,-1
 352 592 l 1,18,-1
 158 592 l 1,19,-1
 158 831 l 1,20,-1
 352 831 l 1,21,-1
 352 1001 l 2,22,23
 352 1272 352 1272 479 1396 c 128,-1,24
 606 1520 606 1520 881 1520 c 0,25,26
 973 1520 973 1520 1063.5 1506.5 c 128,-1,27
 1154 1493 1154 1493 1243 1466 c 1,0,-1
EndSplineSet
Colour: aaaa88
EndChar
StartChar: section
Encoding: 167 167 134
Width: 1024
Flags: W
Fore
885 1462 m 1,0,-1
 885 1235 l 1,1,2
 786 1274 786 1274 707 1293.5 c 128,-1,3
 628 1313 628 1313 571 1313 c 0,4,5
 496 1313 496 1313 458 1288.5 c 128,-1,6
 420 1264 420 1264 420 1217 c 0,7,8
 420 1150 420 1150 608 1071 c 0,9,10
 634 1060 634 1060 647 1055 c 0,11,12
 857 966 857 966 936.5 879.5 c 128,-1,13
 1016 793 1016 793 1016 668 c 0,14,15
 1016 551 1016 551 959.5 471.5 c 128,-1,16
 903 392 903 392 786 344 c 1,17,18
 863 303 863 303 900.5 246.5 c 128,-1,19
 938 190 938 190 938 117 c 0,20,21
 938 -28 938 -28 817 -111.5 c 128,-1,22
 696 -195 696 -195 483 -195 c 0,23,24
 398 -195 398 -195 307.5 -180.5 c 128,-1,25
 217 -166 217 -166 115 -137 c 1,26,-1
 115 100 l 1,27,28
 230 59 230 59 321 37.5 c 128,-1,29
 412 16 412 16 469 16 c 0,30,31
 534 16 534 16 573 41 c 128,-1,32
 612 66 612 66 612 106 c 0,33,34
 612 176 612 176 432 250 c 0,35,36
 396 264 396 264 377 272 c 0,37,38
 174 359 174 359 94 448.5 c 128,-1,39
 14 538 14 538 14 668 c 0,40,41
 14 772 14 772 69.5 849 c 128,-1,42
 125 926 125 926 238 977 c 1,43,44
 163 1028 163 1028 130.5 1083.5 c 128,-1,45
 98 1139 98 1139 98 1214 c 0,46,47
 98 1358 98 1358 212.5 1439 c 128,-1,48
 327 1520 327 1520 528 1520 c 0,49,50
 612 1520 612 1520 702 1505.5 c 128,-1,51
 792 1491 792 1491 885 1462 c 1,0,-1
434 856 m 1,52,53
 366 828 366 828 332.5 790 c 128,-1,54
 299 752 299 752 299 702 c 0,55,56
 299 635 299 635 360.5 586 c 128,-1,57
 422 537 422 537 604 471 c 1,58,59
 669 494 669 494 704 533.5 c 128,-1,60
 739 573 739 573 739 625 c 0,61,62
 739 692 739 692 670 745 c 128,-1,63
 601 798 601 798 434 856 c 1,52,53
EndSplineSet
Colour: aaaa88
EndChar
StartChar: bullet
Encoding: 8226 8226 135
Width: 1309
Flags: W
Fore
295 762 m 256,0,1
 295 836 295 836 321.5 901 c 128,-1,2
 348 966 348 966 399 1016 c 0,3,4
 452 1067 452 1067 517 1093.5 c 128,-1,5
 582 1120 582 1120 655 1120 c 256,6,7
 728 1120 728 1120 793.5 1093 c 128,-1,8
 859 1066 859 1066 909 1016 c 0,9,10
 961 964 961 964 987.5 899.5 c 128,-1,11
 1014 835 1014 835 1014 762 c 0,12,13
 1014 688 1014 688 987 622.5 c 128,-1,14
 960 557 960 557 909 506 c 256,15,16
 858 455 858 455 792.5 428 c 128,-1,17
 727 401 727 401 653 401 c 0,18,19
 580 401 580 401 515 428 c 128,-1,20
 450 455 450 455 399 506 c 0,21,22
 349 557 349 557 322 622.5 c 128,-1,23
 295 688 295 688 295 762 c 256,0,1
EndSplineSet
Colour: aaaa88
EndChar
StartChar: paragraph
Encoding: 182 182 136
Width: 1303
Flags: W
Fore
604 1493 m 2,0,-1
 1124 1493 l 1,1,-1
 1124 -197 l 1,2,-1
 934 -197 l 1,3,-1
 934 1346 l 1,4,-1
 745 1346 l 1,5,-1
 745 -197 l 1,6,-1
 555 -197 l 1,7,-1
 555 649 l 1,8,9
 351 674 351 674 240 783.5 c 128,-1,10
 129 893 129 893 129 1071 c 0,11,12
 129 1261 129 1261 259 1377 c 128,-1,13
 389 1493 389 1493 604 1493 c 2,0,-1
EndSplineSet
Colour: aaaa88
EndChar
StartChar: germandbls
Encoding: 223 223 137
Width: 1473
Flags: W
Fore
172 1114 m 2,0,1
 172 1336 172 1336 307 1446 c 128,-1,2
 442 1556 442 1556 715 1556 c 0,3,4
 977 1556 977 1556 1111 1444 c 128,-1,5
 1245 1332 1245 1332 1245 1114 c 2,6,-1
 1245 1043 l 1,7,8
 1094 1033 1094 1033 1022 994 c 128,-1,9
 950 955 950 955 950 881 c 0,10,11
 950 844 950 844 974.5 815.5 c 128,-1,12
 999 787 999 787 1092 735 c 2,13,-1
 1161 698 l 2,14,15
 1277 634 1277 634 1330.5 549.5 c 128,-1,16
 1384 465 1384 465 1384 348 c 0,17,18
 1384 159 1384 159 1269.5 65 c 128,-1,19
 1155 -29 1155 -29 924 -29 c 0,20,21
 859 -29 859 -29 790 -16.5 c 128,-1,22
 721 -4 721 -4 647 20 c 1,23,-1
 647 264 l 1,24,25
 703 237 703 237 760.5 223 c 128,-1,26
 818 209 818 209 872 209 c 0,27,28
 944 209 944 209 988 245 c 128,-1,29
 1032 281 1032 281 1032 338 c 0,30,31
 1032 385 1032 385 1004.5 419 c 128,-1,32
 977 453 977 453 879 508 c 2,33,-1
 809 547 l 2,34,35
 721 596 721 596 679 663.5 c 128,-1,36
 637 731 637 731 637 821 c 0,37,38
 637 937 637 937 706.5 1016 c 128,-1,39
 776 1095 776 1095 921 1145 c 1,40,41
 920 1230 920 1230 872 1274.5 c 128,-1,42
 824 1319 824 1319 733 1319 c 0,43,44
 632 1319 632 1319 581 1264 c 128,-1,45
 530 1209 530 1209 530 1100 c 2,46,-1
 530 0 l 1,47,-1
 172 0 l 1,48,-1
 172 1114 l 2,0,1
EndSplineSet
Colour: aaaa88
EndChar
StartChar: registered
Encoding: 174 174 138
Width: 2048
Flags: W
Fore
1024 1331 m 256,0,1
 903 1331 903 1331 799 1287.5 c 128,-1,2
 695 1244 695 1244 608 1157 c 256,3,4
 521 1070 521 1070 477.5 966.5 c 128,-1,5
 434 863 434 863 434 741 c 0,6,7
 434 620 434 620 477.5 516.5 c 128,-1,8
 521 413 521 413 608 326 c 0,9,10
 694 240 694 240 798.5 197 c 128,-1,11
 903 154 903 154 1024 154 c 0,12,13
 1147 154 1147 154 1250 196.5 c 128,-1,14
 1353 239 1353 239 1440 326 c 256,15,16
 1527 413 1527 413 1570.5 516.5 c 128,-1,17
 1614 620 1614 620 1614 741 c 0,18,19
 1614 863 1614 863 1570.5 966.5 c 128,-1,20
 1527 1070 1527 1070 1440 1157 c 0,21,22
 1352 1245 1352 1245 1248.5 1288 c 128,-1,23
 1145 1331 1145 1331 1024 1331 c 256,0,1
967 1036 m 2,24,-1
 932 1036 l 1,25,-1
 932 829 l 1,26,-1
 967 829 l 2,27,28
 1045 829 1045 829 1084.5 855.5 c 128,-1,29
 1124 882 1124 882 1124 934 c 256,30,31
 1124 986 1124 986 1085.5 1011 c 128,-1,32
 1047 1036 1047 1036 967 1036 c 2,24,-1
1004 1174 m 2,33,34
 1180 1174 1180 1174 1267 1114.5 c 128,-1,35
 1354 1055 1354 1055 1354 934 c 0,36,37
 1354 848 1354 848 1301.5 792 c 128,-1,38
 1249 736 1249 736 1153 719 c 1,39,40
 1194 697 1194 697 1229.5 657 c 128,-1,41
 1265 617 1265 617 1294 559 c 2,42,-1
 1405 338 l 1,43,-1
 1176 338 l 1,44,-1
 1069 551 l 2,45,46
 1031 629 1031 629 1002 661.5 c 128,-1,47
 973 694 973 694 944 694 c 2,48,-1
 932 694 l 1,49,-1
 932 338 l 1,50,-1
 719 338 l 1,51,-1
 719 1174 l 1,52,-1
 1004 1174 l 2,33,34
1024 1485 m 256,53,54
 1176 1485 1176 1485 1307.5 1430 c 128,-1,55
 1439 1375 1439 1375 1548 1266 c 256,56,57
 1657 1157 1657 1157 1711 1026 c 128,-1,58
 1765 895 1765 895 1765 741 c 0,59,60
 1765 589 1765 589 1711 458.5 c 128,-1,61
 1657 328 1657 328 1548 219 c 256,62,63
 1439 110 1439 110 1307.5 55 c 128,-1,64
 1176 0 1176 0 1024 0 c 256,65,66
 872 0 872 0 740.5 55 c 128,-1,67
 609 110 609 110 500 219 c 256,68,69
 391 328 391 328 337 458.5 c 128,-1,70
 283 589 283 589 283 741 c 0,71,72
 283 895 283 895 337 1026 c 128,-1,73
 391 1157 391 1157 500 1266 c 256,74,75
 609 1375 609 1375 740.5 1430 c 128,-1,76
 872 1485 872 1485 1024 1485 c 256,53,54
EndSplineSet
Colour: aaaa88
EndChar
StartChar: copyright
Encoding: 169 169 139
Width: 2048
Flags: W
Fore
1323 1126 m 1,0,-1
 1323 911 l 1,1,2
 1266 948 1266 948 1210.5 965.5 c 128,-1,3
 1155 983 1155 983 1098 983 c 0,4,5
 985 983 985 983 921.5 919 c 128,-1,6
 858 855 858 855 858 741 c 0,7,8
 858 626 858 626 921 563 c 128,-1,9
 984 500 984 500 1098 500 c 0,10,11
 1162 500 1162 500 1219.5 518 c 128,-1,12
 1277 536 1277 536 1323 571 c 1,13,-1
 1323 358 l 1,14,15
 1258 336 1258 336 1192.5 324.5 c 128,-1,16
 1127 313 1127 313 1065 313 c 0,17,18
 854 313 854 313 727 430 c 128,-1,19
 600 547 600 547 600 741 c 0,20,21
 600 936 600 936 727 1052.5 c 128,-1,22
 854 1169 854 1169 1065 1169 c 0,23,24
 1134 1169 1134 1169 1198 1158.5 c 128,-1,25
 1262 1148 1262 1148 1323 1126 c 1,0,-1
1024 1331 m 256,26,27
 903 1331 903 1331 799 1287.5 c 128,-1,28
 695 1244 695 1244 608 1157 c 256,29,30
 521 1070 521 1070 477.5 966.5 c 128,-1,31
 434 863 434 863 434 741 c 0,32,33
 434 620 434 620 477.5 516.5 c 128,-1,34
 521 413 521 413 608 326 c 0,35,36
 694 240 694 240 798.5 197 c 128,-1,37
 903 154 903 154 1024 154 c 0,38,39
 1147 154 1147 154 1250 196.5 c 128,-1,40
 1353 239 1353 239 1440 326 c 256,41,42
 1527 413 1527 413 1570.5 516.5 c 128,-1,43
 1614 620 1614 620 1614 741 c 0,44,45
 1614 863 1614 863 1570.5 966.5 c 128,-1,46
 1527 1070 1527 1070 1440 1157 c 0,47,48
 1352 1245 1352 1245 1248.5 1288 c 128,-1,49
 1145 1331 1145 1331 1024 1331 c 256,26,27
1024 1485 m 256,50,51
 1176 1485 1176 1485 1307.5 1430 c 128,-1,52
 1439 1375 1439 1375 1548 1266 c 256,53,54
 1657 1157 1657 1157 1711 1026 c 128,-1,55
 1765 895 1765 895 1765 741 c 0,56,57
 1765 589 1765 589 1711 458.5 c 128,-1,58
 1657 328 1657 328 1548 219 c 256,59,60
 1439 110 1439 110 1307.5 55 c 128,-1,61
 1176 0 1176 0 1024 0 c 256,62,63
 872 0 872 0 740.5 55 c 128,-1,64
 609 110 609 110 500 219 c 256,65,66
 391 328 391 328 337 458.5 c 128,-1,67
 283 589 283 589 283 741 c 0,68,69
 283 895 283 895 337 1026 c 128,-1,70
 391 1157 391 1157 500 1266 c 256,71,72
 609 1375 609 1375 740.5 1430 c 128,-1,73
 872 1485 872 1485 1024 1485 c 256,50,51
EndSplineSet
Colour: aaaa88
EndChar
StartChar: trademark
Encoding: 8482 8482 140
Width: 2048
Flags: W
Fore
1153 1493 m 1,0,-1
 1272 1266 l 1,1,-1
 1391 1493 l 1,2,-1
 1618 1493 l 1,3,-1
 1618 915 l 1,4,-1
 1448 915 l 1,5,-1
 1448 1352 l 1,6,-1
 1311 1096 l 1,7,-1
 1235 1096 l 1,8,-1
 1098 1352 l 1,9,-1
 1098 915 l 1,10,-1
 926 915 l 1,11,-1
 926 1493 l 1,12,-1
 1153 1493 l 1,0,-1
813 1493 m 1,13,-1
 813 1350 l 1,14,-1
 639 1350 l 1,15,-1
 639 915 l 1,16,-1
 467 915 l 1,17,-1
 467 1350 l 1,18,-1
 295 1350 l 1,19,-1
 295 1493 l 1,20,-1
 813 1493 l 1,13,-1
EndSplineSet
Colour: aaaa88
EndChar
StartChar: acute
Encoding: 180 180 141
Width: 1024
Flags: W
Fore
647 1638 m 1,0,-1
 930 1638 l 1,1,-1
 561 1262 l 1,2,-1
 365 1262 l 1,3,-1
 647 1638 l 1,0,-1
EndSplineSet
Colour: aaaa88
EndChar
StartChar: dieresis
Encoding: 168 168 142
Width: 1024
Flags: W
Fore
197 1585 m 1,0,-1
 432 1585 l 1,1,-1
 432 1339 l 1,2,-1
 197 1339 l 1,3,-1
 197 1585 l 1,0,-1
592 1585 m 1,4,-1
 827 1585 l 1,5,-1
 827 1339 l 1,6,-1
 592 1339 l 1,7,-1
 592 1585 l 1,4,-1
EndSplineSet
Colour: aaaa88
EndChar
StartChar: notequal
Encoding: 8800 8800 143
Width: 1716
Flags: W
Fore
217 987 m 1,0,-1
 1008 987 l 1,1,-1
 1260 1292 l 1,2,-1
 1409 1167 l 1,3,-1
 1264 987 l 1,4,-1
 1499 987 l 1,5,-1
 1499 752 l 1,6,-1
 1081 752 l 1,7,-1
 907 532 l 1,8,-1
 1499 532 l 1,9,-1
 1499 295 l 1,10,-1
 709 295 l 1,11,-1
 457 -10 l 1,12,-1
 307 117 l 1,13,-1
 453 295 l 1,14,-1
 217 295 l 1,15,-1
 217 532 l 1,16,-1
 641 532 l 1,17,-1
 817 752 l 1,18,-1
 217 752 l 1,19,-1
 217 987 l 1,0,-1
EndSplineSet
Colour: aaaa88
EndChar
StartChar: AE
Encoding: 198 198 144
Width: 2222
Flags: W
AnchorPoint: "TopCap" 1210 1493 basechar 0
AnchorPoint: "Bottom" 1210 0 basechar 0
Fore
891 1237 m 1,0,-1
 635 627 l 1,1,-1
 1012 627 l 1,2,-1
 1012 1237 l 1,3,-1
 891 1237 l 1,0,-1
625 1493 m 1,4,-1
 2050 1493 l 1,5,-1
 2050 1202 l 1,6,-1
 1397 1202 l 1,7,-1
 1397 924 l 1,8,-1
 2011 924 l 1,9,-1
 2011 633 l 1,10,-1
 1397 633 l 1,11,-1
 1397 291 l 1,12,-1
 2073 291 l 1,13,-1
 2073 0 l 1,14,-1
 1012 0 l 1,15,-1
 1012 350 l 1,16,-1
 518 350 l 1,17,-1
 371 0 l 1,18,-1
 0 0 l 1,19,-1
 625 1493 l 1,4,-1
EndSplineSet
Colour: aaaa88
EndChar
StartChar: Oslash
Encoding: 216 216 145
Width: 1741
Flags: W
Fore
604 371 m 1,0,1
 656 309 656 309 721.5 279.5 c 128,-1,2
 787 250 787 250 870 250 c 0,3,4
 1047 250 1047 250 1144 380 c 128,-1,5
 1241 510 1241 510 1241 745 c 0,6,7
 1241 813 1241 813 1233.5 871.5 c 128,-1,8
 1226 930 1226 930 1210 979 c 1,9,-1
 604 371 l 1,0,1
1133 1126 m 1,10,11
 1082 1184 1082 1184 1017 1212.5 c 128,-1,12
 952 1241 952 1241 870 1241 c 0,13,14
 694 1241 694 1241 597 1111 c 128,-1,15
 500 981 500 981 500 745 c 0,16,17
 500 681 500 681 507 624.5 c 128,-1,18
 514 568 514 568 528 522 c 1,19,-1
 1133 1126 l 1,10,11
250 244 m 1,20,21
 176 344 176 344 139 469 c 128,-1,22
 102 594 102 594 102 745 c 0,23,24
 102 1108 102 1108 306.5 1314 c 128,-1,25
 511 1520 511 1520 870 1520 c 0,26,27
 1024 1520 1024 1520 1148 1482.5 c 128,-1,28
 1272 1445 1272 1445 1374 1368 c 1,29,-1
 1573 1567 l 1,30,-1
 1686 1452 l 1,31,-1
 1485 1253 l 1,32,33
 1562 1154 1562 1154 1600 1026.5 c 128,-1,34
 1638 899 1638 899 1638 745 c 0,35,36
 1638 383 1638 383 1434 177 c 128,-1,37
 1230 -29 1230 -29 870 -29 c 0,38,39
 717 -29 717 -29 589.5 10.5 c 128,-1,40
 462 50 462 50 360 129 c 1,41,-1
 158 -74 l 1,42,-1
 45 39 l 1,43,-1
 250 244 l 1,20,21
EndSplineSet
Colour: aaaa88
EndChar
StartChar: infinity
Encoding: 8734 8734 146
Width: 2056
Flags: W
Fore
1027 850 m 1,0,0
 1129 1031 1129 1031 1210 1103 c 0,53,54
 1317 1198 1317 1198 1480 1198 c 24,51,52
 1677 1198 1677 1198 1806 1051 c 0,37,38
 1941 895 1941 895 1941 641 c 24,35,36
 1941 395 1941 395 1806 230 c 0,34,35
 1684 83 1684 83 1480 83 c 0,32,33
 1374 83 1374 83 1296 125 c 128,-1,31
 1218 167 1218 167 1143 256 c 9,29,30
 1062 368 1062 368 1029 434 c 1,0,0
 927 253 927 253 846 181 c 0,53,54
 739 86 739 86 576 86 c 24,51,52
 379 86 379 86 250 233 c 0,37,38
 115 389 115 389 115 643 c 24,35,36
 115 889 115 889 250 1054 c 0,34,35
 372 1201 372 1201 576 1201 c 0,32,33
 682 1201 682 1201 760 1159 c 128,-1,31
 838 1117 838 1117 913 1028 c 9,29,30
 994 916 994 916 1027 850 c 1,0,0
567 352 m 24,45,46
 756 352 756 352 904 618 c 1,0,0
 718 936 718 936 567 936 c 0,45,46
 444 936 444 936 382 853 c 0,44,45
 315 762 315 762 315 643 c 24,42,43
 315 515 315 515 382.5 433.5 c 128,-1,44
 450 352 450 352 567 352 c 24,45,46
1489 932 m 24,45,46
 1300 932 1300 932 1152 666 c 1,0,0
 1338 348 1338 348 1489 348 c 0,45,46
 1612 348 1612 348 1674 431 c 0,44,45
 1741 522 1741 522 1741 641 c 24,42,43
 1741 769 1741 769 1673.5 850.5 c 128,-1,44
 1606 932 1606 932 1489 932 c 24,45,46
EndSplineSet
Colour: aaaa88
EndChar
StartChar: plusminus
Encoding: 177 177 147
Width: 1716
Flags: W
Fore
977 1284 m 1,0,-1
 977 930 l 1,1,-1
 1499 930 l 1,2,-1
 1499 694 l 1,3,-1
 977 694 l 1,4,-1
 977 340 l 1,5,-1
 739 340 l 1,6,-1
 739 694 l 1,7,-1
 217 694 l 1,8,-1
 217 930 l 1,9,-1
 739 930 l 1,10,-1
 739 1284 l 1,11,-1
 977 1284 l 1,0,-1
217 238 m 1,12,-1
 1499 238 l 1,13,-1
 1499 0 l 1,14,-1
 217 0 l 1,15,-1
 217 238 l 1,12,-1
EndSplineSet
Colour: aaaa88
EndChar
StartChar: lessequal
Encoding: 8804 8804 148
Width: 1716
Flags: W
Fore
1499 238 m 1,0,-1
 1499 0 l 1,1,-1
 217 0 l 1,2,-1
 217 238 l 1,3,-1
 1499 238 l 1,0,-1
1499 948 m 1,4,-1
 602 739 l 1,5,-1
 1499 530 l 1,6,-1
 1499 287 l 1,7,-1
 217 623 l 1,8,-1
 217 858 l 1,9,-1
 1499 1192 l 1,10,-1
 1499 948 l 1,4,-1
EndSplineSet
Colour: aaaa88
EndChar
StartChar: greaterequal
Encoding: 8805 8805 149
Width: 1716
Flags: W
Fore
217 238 m 1,0,-1
 1499 238 l 1,1,-1
 1499 0 l 1,2,-1
 217 0 l 1,3,-1
 217 238 l 1,0,-1
217 948 m 1,4,-1
 217 1192 l 1,5,-1
 1499 858 l 1,6,-1
 1499 623 l 1,7,-1
 217 287 l 1,8,-1
 217 530 l 1,9,-1
 1114 739 l 1,10,-1
 217 948 l 1,4,-1
EndSplineSet
Colour: aaaa88
EndChar
StartChar: yen
Encoding: 165 165 150
Width: 1425
Flags: W
Fore
1358 416 m 1,0,-1
 903 416 l 1,1,-1
 903 0 l 1,2,-1
 522 0 l 1,3,-1
 522 416 l 1,4,-1
 68 416 l 1,5,-1
 68 610 l 1,6,-1
 522 610 l 1,7,-1
 522 676 l 1,8,-1
 473 762 l 1,9,-1
 68 762 l 1,10,-1
 68 954 l 1,11,-1
 360 954 l 1,12,-1
 25 1493 l 1,13,-1
 424 1493 l 1,14,-1
 713 1032 l 1,15,-1
 1001 1493 l 1,16,-1
 1401 1493 l 1,17,-1
 1065 954 l 1,18,-1
 1358 954 l 1,19,-1
 1358 762 l 1,20,-1
 952 762 l 1,21,-1
 903 676 l 1,22,-1
 903 610 l 1,23,-1
 1358 610 l 1,24,-1
 1358 416 l 1,0,-1
EndSplineSet
Colour: aaaa88
EndChar
StartChar: mu
Encoding: 181 181 151
Width: 1507
Flags: W
Fore
174 -428 m 1,0,-1
 174 1120 l 1,1,-1
 535 1120 l 1,2,-1
 535 469 l 2,3,4
 535 353 535 353 585 296.5 c 128,-1,5
 635 240 635 240 737 240 c 0,6,7
 840 240 840 240 890 296.5 c 128,-1,8
 940 353 940 353 940 469 c 2,9,-1
 940 1120 l 1,10,-1
 1300 1120 l 1,11,-1
 1300 371 l 2,12,13
 1300 300 1300 300 1316.5 272 c 128,-1,14
 1333 244 1333 244 1372 244 c 0,15,16
 1390 244 1390 244 1406.5 249 c 128,-1,17
 1423 254 1423 254 1442 266 c 1,18,-1
 1442 16 l 1,19,20
 1389 -7 1389 -7 1342.5 -18 c 128,-1,21
 1296 -29 1296 -29 1251 -29 c 0,22,23
 1162 -29 1162 -29 1105.5 8.5 c 128,-1,24
 1049 46 1049 46 1014 129 c 1,25,26
 967 50 967 50 899.5 10.5 c 128,-1,27
 832 -29 832 -29 743 -29 c 0,28,29
 669 -29 669 -29 617 -5.5 c 128,-1,30
 565 18 565 18 535 66 c 1,31,-1
 535 -428 l 1,32,-1
 174 -428 l 1,0,-1
EndSplineSet
Colour: aaaa88
EndChar
StartChar: partialdiff
Encoding: 8706 8706 152
Width: 1114
Flags: W
HStem: -29 196<370 536.5> 637 240<382 587> 1178 203<470 705.628>
VStem: 57 247<264 458.19> 806 246<765 912.5>
Fore
302 1125 m 1,0,-1
 302 1345 l 9,1,2
 448 1381 448 1381 554 1381 c 0,3,4
 857 1381 857 1381 992 1120 c 0,5,6
 1052 1004 1052 1004 1052 821 c 0,7,8
 1052 708 1052 708 1024 577 c 0,9,10
 954 250 954 250 765 93 c 0,11,12
 618 -29 618 -29 455 -29 c 0,13,14
 285 -29 285 -29 181 62 c 0,15,16
 57 172 57 172 57 356 c 0,17,18
 57 560 57 560 168 720 c 0,19,20
 276 877 276 877 488 877 c 0,21,22
 598 877 598 877 702 808 c 0,23,24
 741 782 741 782 797 700 c 1,25,26
 806 765 806 765 806 838 c 0,27,28
 806 949 806 949 774 1007 c 0,29,30
 679 1178 679 1178 512 1178 c 0,31,32
 429 1178 429 1178 302 1125 c 1,0,-1
304 331 m 0,33,34
 304 258 304 258 344 213 c 0,35,36
 385 167 385 167 456 167 c 0,37,38
 514 167 514 167 565 203 c 0,39,40
 628 247 628 247 677 328 c 0,41,42
 715 391 715 391 737 464 c 1,43,44
 656 637 656 637 518 637 c 0,45,46
 388 637 388 637 337 497 c 0,47,48
 304 408 304 408 304 331 c 0,33,34
EndSplineSet
Colour: aaaa88
EndChar
StartChar: summation
Encoding: 8721 8721 153
Width: 1470
Flags: W
Fore
66 1473 m 1,0,-1
 1374 1473 l 1,1,-1
 1374 1208 l 1,2,-1
 496 1208 l 1,3,-1
 1116 563 l 1,4,-1
 494 -127 l 1,5,-1
 1427 -127 l 1,6,-1
 1427 -393 l 1,7,-1
 41 -393 l 1,8,-1
 41 -221 l 1,9,-1
 739 551 l 1,10,-1
 66 1241 l 1,11,-1
 66 1473 l 1,0,-1
EndSplineSet
Colour: aaaa88
EndChar
StartChar: product
Encoding: 8719 8719 154
Width: 1612
Flags: W
Fore
150 1473 m 1,0,-1
 1458 1473 l 1,1,-1
 1458 -393 l 1,2,-1
 1114 -393 l 1,3,-1
 1114 1184 l 1,4,-1
 494 1184 l 1,5,-1
 494 -393 l 1,6,-1
 150 -393 l 1,7,-1
 150 1473 l 1,0,-1
EndSplineSet
Colour: aaaa88
EndChar
StartChar: pi
Encoding: 960 960 155
Width: 1617
Flags: W
HStem: 0 21G<436 794> 899 221<405 441 441 1034 441 1567>
VStem: 70 213<766 794.576> 436 358<0 899> 1034 359<418 899>
AnchorPoint: "Ogonek" 894 0 basechar 0
AnchorPoint: "Top" 894 1120 basechar 0
AnchorPoint: "Bottom" 894 0 basechar 0
Fore
1050 246 m 24,0,0
 1034 341 1034 341 1034 469 c 2,9,-1
 1034 899 l 1,10,-1
 794 899 l 1,6,-1
 794 0 l 1,2,-1
 436 0 l 1,3,-1
 436 899 l 1,9,-1
 383 899 l 2,10,11
 329 899 329 899 304 865 c 128,-1,12
 283 836 283 836 283 766 c 1,13,-1
 70 766 l 1,14,15
 70 964 70 964 144 1042 c 128,-1,16
 218 1120 218 1120 441 1120 c 2,0,0
 1567 1120 l 1,0,-1
 1567 899 l 1,1,-1
 1393 899 l 1,11,-1
 1393 371 l 2,12,13
 1393 300 1393 300 1410 272 c 128,-1,14
 1426 244 1426 244 1465 244 c 0,15,16
 1483 244 1483 244 1499.5 249 c 128,-1,17
 1516 254 1516 254 1535 266 c 1,18,-1
 1535 16 l 1,19,20
 1486 -7 1486 -7 1432 -18 c 128,-1,21
 1379 -29 1379 -29 1336 -29 c 0,22,23
 1235 -29 1235 -29 1187 9 c 128,-1,24
 1139 45 1139 45 1091 129 c 8,25,26
 1061 182 1061 182 1050 246 c 24,0,0
EndSplineSet
Colour: aaaa88
EndChar
StartChar: integral
Encoding: 8747 8747 156
Width: 1247
Flags: W
Fore
734 2 m 18,0,1
 734 -138 734 -138 697 -208 c 0,2,3
 650 -297 650 -297 599 -339 c 0,4,5
 493 -426 493 -426 370 -426 c 0,6,7
 221 -426 221 -426 142 -339 c 9,8,-1
 233 -211 l 17,9,10
 280 -264 280 -264 348 -264 c 128,-1,11
 416 -264 416 -264 464 -211 c 128,-1,13
 512 -158 512 -158 512 -81 c 2,14,-1
 512 1168 l 18,15,16
 512 1304 512 1304 550 1378 c 0,17,18
 596 1467 596 1467 648 1509 c 0,19,20
 754 1596 754 1596 877 1596 c 0,21,22
 1026 1596 1026 1596 1105 1509 c 9,23,-1
 1014 1381 l 17,24,25
 967 1434 967 1434 898.5 1434 c 128,-1,26
 830 1434 830 1434 782 1381 c 0,27,28
 734 1328 734 1328 734 1251 c 10,29,-1
 734 2 l 18,0,1
EndSplineSet
Colour: aaaa88
EndChar
StartChar: ordfeminine
Encoding: 170 170 157
Width: 1155
Flags: W
Fore
176 573 m 1,0,-1
 989 573 l 1,1,-1
 989 373 l 1,2,-1
 176 373 l 1,3,-1
 176 573 l 1,0,-1
643 1081 m 2,4,5
 510 1081 510 1081 458 1055 c 128,-1,6
 406 1029 406 1029 406 967 c 0,7,8
 406 916 406 916 439 887 c 128,-1,9
 472 858 472 858 530 858 c 0,10,11
 619 858 619 858 676 915 c 128,-1,12
 733 972 733 972 733 1059 c 2,13,-1
 733 1081 l 1,14,-1
 643 1081 l 2,4,5
1001 1165 m 2,15,-1
 1001 717 l 1,16,-1
 756 717 l 1,17,-1
 756 844 l 1,18,19
 701 768 701 768 631 732 c 128,-1,20
 561 696 561 696 467 696 c 0,21,22
 322 696 322 696 240 763 c 128,-1,23
 158 830 158 830 158 946 c 0,24,25
 158 1087 158 1087 263 1153 c 128,-1,26
 368 1219 368 1219 594 1219 c 2,27,-1
 731 1219 l 1,28,-1
 731 1239 l 2,29,30
 731 1295 731 1295 686.5 1324.5 c 128,-1,31
 642 1354 642 1354 557 1354 c 0,32,33
 470 1354 470 1354 387 1336.5 c 128,-1,34
 304 1319 304 1319 225 1284 c 1,35,-1
 225 1464 l 1,36,37
 317 1492 317 1492 401.5 1506 c 128,-1,38
 486 1520 486 1520 561 1520 c 0,39,40
 785 1520 785 1520 893 1432.5 c 128,-1,41
 1001 1345 1001 1345 1001 1165 c 2,15,-1
EndSplineSet
Colour: aaaa88
EndChar
StartChar: ordmasculine
Encoding: 186 186 158
Width: 1155
Flags: W
Fore
578 1520 m 0,0,1
 791 1520 791 1520 914.5 1409 c 128,-1,2
 1038 1298 1038 1298 1038 1108 c 256,3,4
 1038 918 1038 918 915 808 c 128,-1,5
 792 698 792 698 578 698 c 256,6,7
 364 698 364 698 240.5 808 c 128,-1,8
 117 918 117 918 117 1108 c 256,9,10
 117 1298 117 1298 240.5 1409 c 128,-1,11
 364 1520 364 1520 578 1520 c 0,0,1
166 573 m 1,12,-1
 989 573 l 1,13,-1
 989 373 l 1,14,-1
 166 373 l 1,15,-1
 166 573 l 1,12,-1
578 1350 m 0,16,17
 494 1350 494 1350 448.5 1287 c 128,-1,18
 403 1224 403 1224 403 1108 c 256,19,20
 403 992 403 992 448.5 930 c 128,-1,21
 494 868 494 868 578 868 c 0,22,23
 661 868 661 868 706.5 930 c 128,-1,24
 752 992 752 992 752 1108 c 256,25,26
 752 1224 752 1224 706.5 1287 c 128,-1,27
 661 1350 661 1350 578 1350 c 0,16,17
EndSplineSet
Colour: aaaa88
EndChar
StartChar: Omega
Encoding: 937 937 159
Width: 1583
Flags: W
HStem: 0 291<59 668 1265 1522> 1227 282<790 812>
VStem: 102 365<783 833> 1114 365<783 833>
AnchorPoint: "Bottom" 789 0 basechar 0
AnchorPoint: "TopCap" 789 1493 basechar 0
Fore
1265 291 m 1,0,-1
 1522 291 l 1,1,-1
 1522 0 l 1,2,-1
 913 0 l 1,3,-1
 913 320 l 1,4,5
 1011 412 1011 412 1058 516 c 0,6,7
 1114 644 1114 644 1114 804 c 0,8,9
 1114 1001 1114 1001 1028 1114 c 0,10,11
 941 1227 941 1227 790 1227 c 0,12,13
 640 1227 640 1227 553 1114 c 0,14,15
 467 1001 467 1001 467 804 c 0,16,17
 467 646 467 646 523 516 c 0,18,19
 578 388 578 388 668 320 c 1,20,-1
 668 0 l 1,21,-1
 59 0 l 1,22,-1
 59 291 l 1,23,-1
 315 291 l 1,24,25
 224 382 224 382 163 516 c 0,26,27
 102 647 102 647 102 819 c 0,28,29
 102 1132 102 1132 290 1320 c 0,30,31
 478 1509 478 1509 790 1509 c 0,32,33
 1103 1509 1103 1509 1291 1320 c 0,34,35
 1479 1132 1479 1132 1479 819 c 0,36,37
 1479 649 1479 649 1418 516 c 0,38,39
 1354 378 1354 378 1265 291 c 1,0,-1
EndSplineSet
Colour: aaaa88
EndChar
StartChar: ae
Encoding: 230 230 160
Width: 2146
Flags: W
AnchorPoint: "Bottom" 1047 0 basechar 0
AnchorPoint: "Top" 1071 1120 basechar 0
Fore
1679 682 m 1,0,1
 1679 784 1679 784 1619.5 846.5 c 128,-1,2
 1560 909 1560 909 1464 909 c 0,3,4
 1361 909 1361 909 1297 850.5 c 128,-1,5
 1233 792 1233 792 1217 682 c 1,6,-1
 1679 682 l 1,0,1
674 504 m 2,7,8
 562 504 562 504 505.5 466 c 128,-1,9
 449 428 449 428 449 354 c 0,10,11
 449 286 449 286 494.5 247.5 c 128,-1,12
 540 209 540 209 621 209 c 0,13,14
 722 209 722 209 791 281.5 c 128,-1,15
 860 354 860 354 860 463 c 2,16,-1
 860 504 l 1,17,-1
 674 504 l 2,7,8
186 1090 m 1,18,19
 305 1118 305 1118 416.5 1132.5 c 128,-1,20
 528 1147 528 1147 625 1147 c 0,21,22
 775 1147 775 1147 883.5 1108.5 c 128,-1,23
 992 1070 992 1070 1063 991 c 1,24,25
 1140 1068 1140 1068 1242 1107.5 c 128,-1,26
 1344 1147 1344 1147 1466 1147 c 0,27,28
 1731 1147 1731 1147 1889.5 988 c 128,-1,29
 2048 829 2048 829 2048 563 c 2,30,-1
 2048 461 l 1,31,-1
 1210 461 l 1,32,33
 1224 335 1224 335 1301.5 272 c 128,-1,34
 1379 209 1379 209 1520 209 c 0,35,36
 1633 209 1633 209 1751.5 242.5 c 128,-1,37
 1870 276 1870 276 1995 344 c 1,38,-1
 1995 68 l 1,39,40
 1868 20 1868 20 1740.5 -4.5 c 128,-1,41
 1613 -29 1613 -29 1487 -29 c 0,42,43
 1308 -29 1308 -29 1175.5 24.5 c 128,-1,44
 1043 78 1043 78 971 178 c 1,45,46
 870 71 870 71 758.5 21 c 128,-1,47
 647 -29 647 -29 508 -29 c 0,48,49
 314 -29 314 -29 201 69.5 c 128,-1,50
 88 168 88 168 88 336 c 0,51,52
 88 533 88 533 223.5 625 c 128,-1,53
 359 717 359 717 649 717 c 2,54,-1
 860 717 l 1,55,-1
 860 745 l 2,56,57
 860 830 860 830 793 869.5 c 128,-1,58
 726 909 726 909 584 909 c 0,59,60
 469 909 469 909 370 886 c 128,-1,61
 271 863 271 863 186 817 c 1,62,-1
 186 1090 l 1,18,19
EndSplineSet
Colour: aaaa88
EndChar
StartChar: oslash
Encoding: 248 248 161
Width: 1407
Flags: W
Fore
856 836 m 1,0,1
 827 864 827 864 789.5 877.5 c 128,-1,2
 752 891 752 891 705 891 c 0,3,4
 586 891 586 891 523.5 805.5 c 128,-1,5
 461 720 461 720 461 559 c 0,6,7
 461 518 461 518 464.5 485.5 c 128,-1,8
 468 453 468 453 475 426 c 1,9,-1
 856 836 l 1,0,1
547 287 m 1,10,11
 578 257 578 257 617.5 242 c 128,-1,12
 657 227 657 227 705 227 c 0,13,14
 822 227 822 227 884 312.5 c 128,-1,15
 946 398 946 398 946 559 c 0,16,17
 946 602 946 602 942.5 635.5 c 128,-1,18
 939 669 939 669 932 698 c 1,19,-1
 547 287 l 1,10,11
223 158 m 1,20,21
 156 236 156 236 122 336 c 128,-1,22
 88 436 88 436 88 559 c 0,23,24
 88 835 88 835 251.5 991 c 128,-1,25
 415 1147 415 1147 705 1147 c 0,26,27
 811 1147 811 1147 900.5 1125 c 128,-1,28
 990 1103 990 1103 1065 1059 c 1,29,-1
 1212 1217 l 1,30,-1
 1321 1116 l 1,31,-1
 1180 967 l 1,32,33
 1250 887 1250 887 1284.5 786 c 128,-1,34
 1319 685 1319 685 1319 559 c 0,35,36
 1319 283 1319 283 1156.5 127 c 128,-1,37
 994 -29 994 -29 705 -29 c 0,38,39
 597 -29 597 -29 506 -6.5 c 128,-1,40
 415 16 415 16 338 61 c 1,41,-1
 190 -94 l 1,42,-1
 78 0 l 1,43,-1
 223 158 l 1,20,21
EndSplineSet
Colour: aaaa88
EndChar
StartChar: questiondown
Encoding: 191 191 162
Width: 1188
Flags: W
Fore
487 987 m 1,0,-1
 848 987 l 1,1,-1
 848 938 l 2,2,3
 848 857 848 857 815.5 794 c 128,-1,4
 783 731 783 731 674 631 c 2,5,-1
 610 573 l 2,6,7
 554 522 554 522 528 476 c 128,-1,8
 502 430 502 430 502 383 c 0,9,10
 502 313 502 313 550 273 c 128,-1,11
 598 233 598 233 684 233 c 0,12,13
 765 233 765 233 859.5 267 c 128,-1,14
 954 301 954 301 1055 367 c 1,15,-1
 1055 53 l 1,16,17
 936 11 936 11 834.5 -9 c 128,-1,18
 733 -29 733 -29 641 -29 c 0,19,20
 397 -29 397 -29 269 70.5 c 128,-1,21
 141 170 141 170 141 360 c 0,22,23
 141 459 141 459 180 536.5 c 128,-1,24
 219 614 219 614 313 702 c 2,25,-1
 377 760 l 2,26,27
 445 821 445 821 466 859 c 128,-1,28
 487 897 487 897 487 942 c 2,29,-1
 487 987 l 1,0,-1
848 1137 m 1,30,-1
 487 1137 l 1,31,-1
 487 1493 l 1,32,-1
 848 1493 l 1,33,-1
 848 1137 l 1,30,-1
EndSplineSet
Colour: aaaa88
EndChar
StartChar: exclamdown
Encoding: 161 161 163
Width: 934
Flags: W
Fore
287 0 m 1,0,-1
 287 573 l 1,1,-1
 338 991 l 1,2,-1
 596 991 l 1,3,-1
 647 573 l 1,4,-1
 647 0 l 1,5,-1
 287 0 l 1,0,-1
287 1137 m 1,6,-1
 287 1493 l 1,7,-1
 647 1493 l 1,8,-1
 647 1137 l 1,9,-1
 287 1137 l 1,6,-1
EndSplineSet
Colour: aaaa88
EndChar
StartChar: logicalnot
Encoding: 172 172 164
Width: 1716
Flags: W
Fore
217 909 m 1,0,-1
 1499 909 l 1,1,-1
 1499 287 l 1,2,-1
 1264 287 l 1,3,-1
 1264 672 l 1,4,-1
 217 672 l 1,5,-1
 217 909 l 1,0,-1
EndSplineSet
Colour: aaaa88
EndChar
StartChar: radical
Encoding: 8730 8730 165
Width: 1366
Flags: W
Fore
1155 1714 m 1,0,-1
 1370 1714 l 1,1,-1
 1370 1565 l 1,2,-1
 1274 1565 l 1,3,-1
 684 -41 l 1,4,-1
 565 -41 l 1,5,-1
 258 805 l 1,6,-1
 113 750 l 1,7,-1
 76 879 l 1,8,-1
 436 1006 l 1,9,-1
 659 371 l 1,10,-1
 1155 1714 l 1,0,-1
EndSplineSet
Colour: aaaa88
EndChar
StartChar: florin
Encoding: 402 402 166
Width: 891
Flags: W
AnchorPoint: "Top" 485 1493 basechar 0
AnchorPoint: "Bottom" 400 0 basechar 0
Fore
575 -9 m 6,0,1
 575 -218 575 -218 463 -321 c 4,2,3
 349 -426 349 -426 176 -426 c 28,4,5
 -24 -426 -24 -426 -103 -339 c 13,6,-1
 -12 -211 l 21,7,8
 32 -253 32 -253 86 -253 c 4,9,10
 144 -253 144 -253 180 -216 c 4,11,12
 217 -178 217 -178 217 -123 c 6,13,-1
 217 864 l 5,14,-1
 39 864 l 1,15,-1
 39 1120 l 1,16,-1
 217 1120 l 1,17,-1
 217 1198 l 2,18,19
 217 1381 217 1381 319 1468 c 0,20,21
 421 1556 421 1556 635 1556 c 2,21,-1
 909 1556 l 1,22,-1
 909 1321 l 1,23,-1
 711 1321 l 2,24,25
 635 1321 635 1321 605 1294 c 0,26,27
 575 1266 575 1266 575 1198 c 2,27,-1
 575 1120 l 1,28,-1
 881 1120 l 1,29,-1
 881 864 l 1,30,-1
 575 864 l 5,31,-1
 575 -9 l 6,0,1
EndSplineSet
Colour: aaaa88
EndChar
StartChar: approxequal
Encoding: 8776 8776 167
Width: 1716
Flags: W
Fore
1499 1059 m 1,0,-1
 1499 815 l 1,1,2
 1393 735 1393 735 1303.5 700.5 c 128,-1,3
 1214 666 1214 666 1118 666 c 0,4,5
 1011 666 1011 666 868 724 c 0,6,7
 854 730 854 730 846 733 c 0,8,9
 839 736 839 736 824 742 c 0,10,11
 669 803 669 803 575 803 c 0,12,13
 487 803 487 803 401 764.5 c 128,-1,14
 315 726 315 726 217 643 c 1,15,-1
 217 887 l 1,16,17
 322 965 322 965 411.5 999.5 c 128,-1,18
 501 1034 501 1034 598 1034 c 0,19,20
 708 1034 708 1034 855 975 c 0,21,22
 865 971 865 971 870 969 c 0,23,24
 878 966 878 966 892 960 c 0,25,26
 1047 899 1047 899 1141 899 c 0,27,28
 1227 899 1227 899 1311.5 936.5 c 128,-1,29
 1396 974 1396 974 1499 1059 c 1,0,-1
1499 641 m 1,30,-1
 1499 397 l 1,31,32
 1393 317 1393 317 1303.5 282.5 c 128,-1,33
 1214 248 1214 248 1118 248 c 0,34,35
 1011 248 1011 248 868 306 c 0,36,37
 854 312 854 312 845 316 c 0,38,39
 839 318 839 318 824 324 c 0,40,41
 669 385 669 385 575 385 c 0,42,43
 487 385 487 385 401 347 c 128,-1,44
 315 309 315 309 217 225 c 1,45,-1
 217 469 l 1,46,47
 324 549 324 549 413 583.5 c 128,-1,48
 502 618 502 618 598 618 c 0,49,50
 705 618 705 618 848 560 c 0,51,52
 863 554 863 554 870 551 c 0,53,54
 878 548 878 548 892 543 c 0,55,56
 1047 481 1047 481 1141 481 c 0,57,58
 1227 481 1227 481 1311.5 518.5 c 128,-1,59
 1396 556 1396 556 1499 641 c 1,30,-1
EndSplineSet
Colour: aaaa88
EndChar
StartChar: Delta
Encoding: 8710 8710 168
Width: 1427
Flags: W
Fore
713 1110 m 1,0,-1
 387 256 l 1,1,-1
 1040 256 l 1,2,-1
 713 1110 l 1,0,-1
563 1473 m 1,3,-1
 864 1473 l 1,4,-1
 1427 0 l 1,5,-1
 0 0 l 1,6,-1
 563 1473 l 1,3,-1
EndSplineSet
Colour: aaaa88
EndChar
StartChar: guillemotleft
Encoding: 171 171 169
Width: 1323
Flags: W
Fore
651 1063 m 1,0,-1
 651 821 l 1,1,-1
 358 600 l 1,2,-1
 651 379 l 1,3,-1
 651 137 l 1,4,-1
 158 506 l 1,5,-1
 158 692 l 1,6,-1
 651 1063 l 1,0,-1
1130 1063 m 1,7,-1
 1130 821 l 1,8,-1
 838 600 l 1,9,-1
 1130 379 l 1,10,-1
 1130 137 l 1,11,-1
 637 506 l 1,12,-1
 637 692 l 1,13,-1
 1130 1063 l 1,7,-1
EndSplineSet
Colour: aaaa88
EndChar
StartChar: guillemotright
Encoding: 187 187 170
Width: 1323
Flags: W
Fore
672 1063 m 1,0,-1
 1165 692 l 1,1,-1
 1165 506 l 1,2,-1
 672 137 l 1,3,-1
 672 379 l 1,4,-1
 965 600 l 1,5,-1
 672 821 l 1,6,-1
 672 1063 l 1,0,-1
193 1063 m 1,7,-1
 684 692 l 1,8,-1
 684 506 l 1,9,-1
 193 137 l 1,10,-1
 193 379 l 1,11,-1
 485 600 l 1,12,-1
 193 821 l 1,13,-1
 193 1063 l 1,7,-1
EndSplineSet
Colour: aaaa88
EndChar
StartChar: ellipsis
Encoding: 8230 8230 171
Width: 2048
Flags: W
Fore
1526 387 m 1,0,-1
 1886 387 l 1,1,-1
 1886 0 l 1,2,-1
 1526 0 l 1,3,-1
 1526 387 l 1,0,-1
162 387 m 1,4,-1
 522 387 l 1,5,-1
 522 0 l 1,6,-1
 162 0 l 1,7,-1
 162 387 l 1,4,-1
844 387 m 1,8,-1
 1204 387 l 1,9,-1
 1204 0 l 1,10,-1
 844 0 l 1,11,-1
 844 387 l 1,8,-1
EndSplineSet
Colour: aaaa88
EndChar
StartChar: OE
Encoding: 338 338 176
Width: 2390
Flags: W
Fore
1180 1202 m 1,0,-1
 1075 1202 l 2,1,2
 786 1202 786 1202 643 1089 c 128,-1,3
 500 976 500 976 500 748 c 0,4,5
 500 519 500 519 643.5 405 c 128,-1,6
 787 291 787 291 1075 291 c 2,7,-1
 1180 291 l 1,8,-1
 1180 1202 l 1,0,-1
1090 1493 m 2,9,-1
 2218 1493 l 1,10,-1
 2218 1202 l 1,11,-1
 1565 1202 l 1,12,-1
 1565 924 l 1,13,-1
 2179 924 l 1,14,-1
 2179 633 l 1,15,-1
 1565 633 l 1,16,-1
 1565 291 l 1,17,-1
 2241 291 l 1,18,-1
 2241 0 l 1,19,-1
 1090 0 l 2,20,21
 1077 0 1077 0 1053.5 -1 c 128,-1,22
 1030 -2 1030 -2 1018 -2 c 0,23,24
 576 -2 576 -2 339 192.5 c 128,-1,25
 102 387 102 387 102 748 c 0,26,27
 102 1108 102 1108 339 1301.5 c 128,-1,28
 576 1495 576 1495 1018 1495 c 0,29,30
 1029 1495 1029 1495 1053 1494 c 128,-1,31
 1077 1493 1077 1493 1090 1493 c 2,9,-1
EndSplineSet
Colour: aaaa88
EndChar
StartChar: oe
Encoding: 339 339 177
Width: 2241
Flags: W
Fore
1774 682 m 1,0,1
 1774 784 1774 784 1714.5 846.5 c 128,-1,2
 1655 909 1655 909 1559 909 c 0,3,4
 1455 909 1455 909 1390 850.5 c 128,-1,5
 1325 792 1325 792 1309 682 c 1,6,-1
 1774 682 l 1,0,1
2142 563 m 2,7,-1
 2142 461 l 1,8,-1
 1305 461 l 1,9,10
 1318 335 1318 335 1396 272 c 128,-1,11
 1474 209 1474 209 1614 209 c 0,12,13
 1727 209 1727 209 1845.5 242.5 c 128,-1,14
 1964 276 1964 276 2089 344 c 1,15,-1
 2089 68 l 1,16,17
 1963 20 1963 20 1835 -4.5 c 128,-1,18
 1707 -29 1707 -29 1581 -29 c 0,19,20
 1416 -29 1416 -29 1309 11.5 c 128,-1,21
 1202 52 1202 52 1130 139 c 1,22,23
 1048 55 1048 55 941.5 13 c 128,-1,24
 835 -29 835 -29 705 -29 c 0,25,26
 415 -29 415 -29 251.5 127 c 128,-1,27
 88 283 88 283 88 559 c 256,28,29
 88 835 88 835 251.5 991 c 128,-1,30
 415 1147 415 1147 705 1147 c 0,31,32
 839 1147 839 1147 942 1106 c 128,-1,33
 1045 1065 1045 1065 1126 979 c 1,34,35
 1208 1066 1208 1066 1307.5 1106.5 c 128,-1,36
 1407 1147 1407 1147 1542 1147 c 0,37,38
 1820 1147 1820 1147 1981 990 c 128,-1,39
 2142 833 2142 833 2142 563 c 2,7,-1
705 891 m 0,40,41
 586 891 586 891 523.5 805.5 c 128,-1,42
 461 720 461 720 461 559 c 256,43,44
 461 398 461 398 523.5 312.5 c 128,-1,45
 586 227 586 227 705 227 c 0,46,47
 822 227 822 227 884 312.5 c 128,-1,48
 946 398 946 398 946 559 c 256,49,50
 946 720 946 720 884 805.5 c 128,-1,51
 822 891 822 891 705 891 c 0,40,41
EndSplineSet
Colour: aaaa88
EndChar
StartChar: endash
Encoding: 8211 8211 178
Width: 1024
Flags: W
Fore
0 690 m 1,0,-1
 1024 690 l 1,1,-1
 1024 432 l 1,2,-1
 0 432 l 1,3,-1
 0 690 l 1,0,-1
EndSplineSet
Colour: aaaa88
EndChar
StartChar: emdash
Encoding: 8212 8212 179
Width: 2048
Flags: W
Fore
0 690 m 1,0,-1
 2048 690 l 1,1,-1
 2048 432 l 1,2,-1
 0 432 l 1,3,-1
 0 690 l 1,0,-1
EndSplineSet
Colour: aaaa88
EndChar
StartChar: quotedblleft
Encoding: 8220 8220 180
Width: 1346
Flags: W
Fore
1057 856 m 1,0,-1
 717 856 l 1,1,-1
 717 1139 l 1,2,-1
 944 1493 l 1,3,-1
 1157 1493 l 1,4,-1
 1057 1139 l 1,5,-1
 1057 856 l 1,0,-1
551 856 m 1,6,-1
 211 856 l 1,7,-1
 211 1141 l 1,8,-1
 438 1493 l 1,9,-1
 651 1493 l 1,10,-1
 551 1141 l 1,11,-1
 551 856 l 1,6,-1
EndSplineSet
Colour: aaaa88
EndChar
StartChar: quotedblright
Encoding: 8221 8221 181
Width: 1346
Flags: W
Fore
289 1493 m 1,0,-1
 629 1493 l 1,1,-1
 629 1208 l 1,2,-1
 401 856 l 1,3,-1
 188 856 l 1,4,-1
 289 1208 l 1,5,-1
 289 1493 l 1,0,-1
795 1493 m 1,6,-1
 1135 1493 l 1,7,-1
 1135 1206 l 1,8,-1
 907 856 l 1,9,-1
 694 856 l 1,10,-1
 795 1206 l 1,11,-1
 795 1493 l 1,6,-1
EndSplineSet
Colour: aaaa88
EndChar
StartChar: quoteleft
Encoding: 8216 8216 182
Width: 778
Flags: W
Fore
551 856 m 1,0,-1
 211 856 l 1,1,-1
 211 1141 l 1,2,-1
 438 1493 l 1,3,-1
 651 1493 l 1,4,-1
 551 1141 l 1,5,-1
 551 856 l 1,0,-1
EndSplineSet
Colour: aaaa88
EndChar
StartChar: quoteright
Encoding: 8217 8217 183
Width: 778
Flags: W
Fore
229 1493 m 1,0,-1
 569 1493 l 1,1,-1
 569 1208 l 1,2,-1
 342 856 l 1,3,-1
 129 856 l 1,4,-1
 229 1208 l 1,5,-1
 229 1493 l 1,0,-1
EndSplineSet
Colour: aaaa88
EndChar
StartChar: divide
Encoding: 247 247 184
Width: 1716
Flags: W
Fore
705 395 m 1,0,-1
 1012 395 l 1,1,-1
 1012 86 l 1,2,-1
 705 86 l 1,3,-1
 705 395 l 1,0,-1
705 1198 m 1,4,-1
 1012 1198 l 1,5,-1
 1012 889 l 1,6,-1
 705 889 l 1,7,-1
 705 1198 l 1,4,-1
217 760 m 1,8,-1
 1499 760 l 1,9,-1
 1499 524 l 1,10,-1
 217 524 l 1,11,-1
 217 760 l 1,8,-1
EndSplineSet
Colour: aaaa88
EndChar
StartChar: lozenge
Encoding: 9674 9674 185
Width: 1012
Flags: W
Fore
506 1409 m 1,0,-1
 121 592 l 1,1,-1
 506 -233 l 1,2,-1
 891 592 l 1,3,-1
 506 1409 l 1,0,-1
506 1653 m 1,4,-1
 1006 592 l 1,5,-1
 506 -477 l 1,6,-1
 6 592 l 1,7,-1
 506 1653 l 1,4,-1
EndSplineSet
Colour: aaaa88
EndChar
StartChar: fraction
Encoding: 8725 8725 188
AltUni: 8260
Width: 342
Flags: W
Fore
-184 -29 m 5,0,-1
 -408 -29 l 5,1,-1
 526 1520 l 5,2,-1
 750 1520 l 5,3,-1
 -184 -29 l 5,0,-1
EndSplineSet
Colour: aaaa88
EndChar
StartChar: currency
Encoding: 164 164 189
Width: 1303
Flags: W
Fore
434 268 m 1,0,-1
 227 61 l 1,1,-1
 74 215 l 1,2,-1
 281 422 l 1,3,4
 253 471 253 471 239 524.5 c 128,-1,5
 225 578 225 578 225 641 c 256,6,7
 225 704 225 704 240 758 c 128,-1,8
 255 812 255 812 285 858 c 1,9,-1
 76 1063 l 1,10,-1
 229 1217 l 1,11,-1
 436 1010 l 1,12,13
 484 1040 484 1040 538 1054.5 c 128,-1,14
 592 1069 592 1069 653 1069 c 0,15,16
 707 1069 707 1069 761 1055.5 c 128,-1,17
 815 1042 815 1042 872 1014 c 1,18,-1
 1079 1221 l 1,19,-1
 1231 1067 l 1,20,-1
 1024 860 l 1,21,22
 1053 805 1053 805 1067 750 c 128,-1,23
 1081 695 1081 695 1081 641 c 0,24,25
 1081 578 1081 578 1066.5 525.5 c 128,-1,26
 1052 473 1052 473 1022 426 c 1,27,-1
 1229 219 l 1,28,-1
 1075 66 l 1,29,-1
 868 272 l 1,30,31
 822 242 822 242 769 227.5 c 128,-1,32
 716 213 716 213 653 213 c 0,33,34
 595 213 595 213 541 226.5 c 128,-1,35
 487 240 487 240 434 268 c 1,0,-1
653 422 m 0,36,37
 744 422 744 422 808 485.5 c 128,-1,38
 872 549 872 549 872 641 c 256,39,40
 872 733 872 733 808.5 796.5 c 128,-1,41
 745 860 745 860 653 860 c 0,42,43
 562 860 562 860 498 796.5 c 128,-1,44
 434 733 434 733 434 641 c 0,45,46
 434 548 434 548 497 485 c 128,-1,47
 560 422 560 422 653 422 c 0,36,37
EndSplineSet
Colour: aaaa88
EndChar
StartChar: guilsinglleft
Encoding: 8249 8249 190
Width: 844
Flags: W
Fore
651 1063 m 1,0,-1
 651 821 l 1,1,-1
 358 600 l 1,2,-1
 651 379 l 1,3,-1
 651 137 l 1,4,-1
 158 506 l 1,5,-1
 158 692 l 1,6,-1
 651 1063 l 1,0,-1
EndSplineSet
Colour: aaaa88
EndChar
StartChar: guilsinglright
Encoding: 8250 8250 191
Width: 844
Flags: W
Fore
193 1063 m 1,0,-1
 686 692 l 1,1,-1
 686 506 l 1,2,-1
 193 137 l 1,3,-1
 193 379 l 1,4,-1
 485 600 l 1,5,-1
 193 821 l 1,6,-1
 193 1063 l 1,0,-1
EndSplineSet
Colour: aaaa88
EndChar
StartChar: fi
Encoding: 64257 64257 192
Width: 1518
Flags: W
Fore
985 1556 m 1,0,-1
 1346 1556 l 1,1,-1
 1346 1264 l 1,2,-1
 985 1264 l 1,3,-1
 985 1556 l 1,0,-1
911 1556 m 1,4,-1
 911 1321 l 1,5,-1
 713 1321 l 2,6,7
 638 1321 638 1321 609 1293.5 c 128,-1,8
 580 1266 580 1266 580 1198 c 2,9,-1
 580 1120 l 1,10,-1
 1346 1120 l 5,11,-1
 1346 0 l 1,12,-1
 985 0 l 1,13,-1
 985 864 l 1,14,-1
 580 864 l 1,15,-1
 580 0 l 1,16,-1
 219 0 l 1,17,-1
 219 864 l 1,18,-1
 43 864 l 1,19,-1
 43 1120 l 1,20,-1
 219 1120 l 1,21,-1
 219 1198 l 2,22,23
 219 1381 219 1381 321 1468.5 c 128,-1,24
 423 1556 423 1556 637 1556 c 2,25,-1
 911 1556 l 1,4,-1
EndSplineSet
Ligature: 0 0 'liga' f i
Colour: aaaa88
EndChar
StartChar: fl
Encoding: 64258 64258 193
Width: 1518
Flags: W
Fore
635 1556 m 2,0,-1
 1346 1556 l 1,1,-1
 1346 0 l 1,2,-1
 985 0 l 1,3,-1
 985 1321 l 1,4,-1
 711 1321 l 2,5,6
 635 1321 635 1321 605 1293.5 c 128,-1,7
 575 1266 575 1266 575 1198 c 6,8,-1
 575 1120 l 5,9,-1
 856 1120 l 5,10,-1
 856 864 l 5,11,-1
 575 864 l 5,12,-1
 575 0 l 1,13,-1
 217 0 l 1,14,-1
 217 864 l 1,15,-1
 39 864 l 1,16,-1
 39 1120 l 1,17,-1
 217 1120 l 1,18,-1
 217 1198 l 2,19,20
 217 1381 217 1381 319 1468.5 c 128,-1,21
 421 1556 421 1556 635 1556 c 2,0,-1
EndSplineSet
Ligature: 0 0 'liga' f l
Colour: aaaa88
EndChar
StartChar: daggerdbl
Encoding: 8225 8225 194
Width: 1024
Flags: W
Fore
342 1493 m 1,0,-1
 672 1493 l 1,1,-1
 672 1112 l 1,2,-1
 963 1112 l 1,3,-1
 963 874 l 1,4,-1
 672 874 l 1,5,-1
 672 422 l 1,6,-1
 963 422 l 1,7,-1
 963 184 l 1,8,-1
 672 184 l 1,9,-1
 672 -197 l 1,10,-1
 342 -197 l 1,11,-1
 342 184 l 1,12,-1
 51 184 l 1,13,-1
 51 422 l 1,14,-1
 342 422 l 1,15,-1
 342 874 l 1,16,-1
 53 874 l 1,17,-1
 53 1112 l 1,18,-1
 342 1112 l 1,19,-1
 342 1493 l 1,0,-1
EndSplineSet
Colour: aaaa88
EndChar
StartChar: periodcentered
Encoding: 183 183 195
Width: 778
Flags: W
Fore
209 905 m 1,0,-1
 569 905 l 1,1,-1
 569 518 l 1,2,-1
 209 518 l 1,3,-1
 209 905 l 1,0,-1
EndSplineSet
Colour: aaaa88
EndChar
StartChar: quotesinglbase
Encoding: 8218 8218 196
Width: 778
Flags: W
Fore
248 387 m 1,0,-1
 588 387 l 1,1,-1
 588 102 l 1,2,-1
 358 -250 l 1,3,-1
 147 -250 l 1,4,-1
 248 102 l 1,5,-1
 248 387 l 1,0,-1
EndSplineSet
Colour: aaaa88
EndChar
StartChar: quotedblbase
Encoding: 8222 8222 197
Width: 1346
Flags: W
Fore
248 387 m 1,0,-1
 588 387 l 1,1,-1
 588 102 l 1,2,-1
 358 -250 l 1,3,-1
 147 -250 l 1,4,-1
 248 102 l 1,5,-1
 248 387 l 1,0,-1
754 387 m 1,6,-1
 1094 387 l 1,7,-1
 1094 100 l 1,8,-1
 866 -250 l 1,9,-1
 653 -250 l 1,10,-1
 754 100 l 1,11,-1
 754 387 l 1,6,-1
EndSplineSet
Colour: aaaa88
EndChar
StartChar: perthousand
Encoding: 8240 8240 198
Width: 2949
Flags: W
Fore
2503 616 m 0,0,1
 2431 616 2431 616 2392 554.5 c 128,-1,2
 2353 493 2353 493 2353 379 c 0,3,4
 2353 264 2353 264 2392 202.5 c 128,-1,5
 2431 141 2431 141 2503 141 c 0,6,7
 2574 141 2574 141 2612 202.5 c 128,-1,8
 2650 264 2650 264 2650 379 c 0,9,10
 2650 493 2650 493 2612 554.5 c 128,-1,11
 2574 616 2574 616 2503 616 c 0,0,1
2503 784 m 0,12,13
 2689 784 2689 784 2795.5 676 c 128,-1,14
 2902 568 2902 568 2902 379 c 256,15,16
 2902 190 2902 190 2795 80.5 c 128,-1,17
 2688 -29 2688 -29 2503 -29 c 0,18,19
 2317 -29 2317 -29 2209 80.5 c 128,-1,20
 2101 190 2101 190 2101 379 c 0,21,22
 2101 567 2101 567 2208.5 675.5 c 128,-1,23
 2316 784 2316 784 2503 784 c 0,12,13
465 1352 m 0,24,25
 393 1352 393 1352 354 1290 c 128,-1,26
 315 1228 315 1228 315 1114 c 0,27,28
 315 999 315 999 354 936.5 c 128,-1,29
 393 874 393 874 465 874 c 256,30,31
 537 874 537 874 575.5 936.5 c 128,-1,32
 614 999 614 999 614 1114 c 0,33,34
 614 1228 614 1228 575 1290 c 128,-1,35
 536 1352 536 1352 465 1352 c 0,24,25
465 1520 m 256,36,37
 651 1520 651 1520 757.5 1411.5 c 128,-1,38
 864 1303 864 1303 864 1114 c 256,39,40
 864 925 864 925 757.5 816 c 128,-1,41
 651 707 651 707 465 707 c 256,42,43
 279 707 279 707 172.5 816 c 128,-1,44
 66 925 66 925 66 1114 c 256,45,46
 66 1303 66 1303 172.5 1411.5 c 128,-1,47
 279 1520 279 1520 465 1520 c 256,36,37
670 -29 m 1,48,-1
 449 -29 l 1,49,-1
 1382 1520 l 1,50,-1
 1604 1520 l 1,51,-1
 670 -29 l 1,48,-1
1587 784 m 256,52,53
 1773 784 1773 784 1880 676 c 128,-1,54
 1987 568 1987 568 1987 379 c 256,55,56
 1987 190 1987 190 1880 80.5 c 128,-1,57
 1773 -29 1773 -29 1587 -29 c 256,58,59
 1401 -29 1401 -29 1293.5 80.5 c 128,-1,60
 1186 190 1186 190 1186 379 c 0,61,62
 1186 567 1186 567 1293.5 675.5 c 128,-1,63
 1401 784 1401 784 1587 784 c 256,52,53
1587 616 m 256,64,65
 1516 616 1516 616 1477 554.5 c 128,-1,66
 1438 493 1438 493 1438 379 c 0,67,68
 1438 264 1438 264 1476.5 202.5 c 128,-1,69
 1515 141 1515 141 1587 141 c 256,70,71
 1659 141 1659 141 1697 202.5 c 128,-1,72
 1735 264 1735 264 1735 379 c 0,73,74
 1735 493 1735 493 1696.5 554.5 c 128,-1,75
 1658 616 1658 616 1587 616 c 256,64,65
EndSplineSet
Colour: aaaa88
EndChar
StartChar: dotlessi
Encoding: 305 305 214
Width: 702
Flags: W
HStem: 0 21G<172 530> 1100 20G<172 530>
VStem: 172 358<0 1120>
Fore
172 1120 m 1,0,-1
 530 1120 l 1,1,-1
 530 0 l 1,2,-1
 172 0 l 1,3,-1
 172 1120 l 1,0,-1
EndSplineSet
Colour: aaaa88
EndChar
StartChar: circumflex
Encoding: 710 710 215
Width: 1024
Flags: W
Fore
391 1638 m 1,0,-1
 633 1638 l 1,1,-1
 889 1262 l 1,2,-1
 711 1262 l 1,3,-1
 512 1487 l 1,4,-1
 313 1262 l 1,5,-1
 135 1262 l 1,6,-1
 391 1638 l 1,0,-1
EndSplineSet
Colour: aaaa88
EndChar
StartChar: tilde
Encoding: 732 732 216
Width: 1024
Flags: W
Fore
514 1364 m 2,0,-1
 459 1401 l 2,1,2
 455 1403 455 1403 449 1407 c 0,3,4
 402 1438 402 1438 377 1438 c 0,5,6
 341 1438 341 1438 322 1407 c 128,-1,7
 303 1376 303 1376 303 1317 c 2,8,-1
 303 1309 l 1,9,-1
 164 1309 l 1,10,11
 164 1445 164 1445 215.5 1519 c 128,-1,12
 267 1593 267 1593 360 1593 c 0,13,14
 396 1593 396 1593 432.5 1579.5 c 128,-1,15
 469 1566 469 1566 510 1536 c 2,16,-1
 571 1493 l 2,17,18
 593 1478 593 1478 611.5 1470 c 128,-1,19
 630 1462 630 1462 645 1462 c 0,20,21
 681 1462 681 1462 701 1494 c 128,-1,22
 721 1526 721 1526 721 1583 c 2,23,-1
 721 1591 l 1,24,-1
 860 1591 l 1,25,26
 860 1455 860 1455 808.5 1381 c 128,-1,27
 757 1307 757 1307 664 1307 c 0,28,29
 628 1307 628 1307 594.5 1319 c 128,-1,30
 561 1331 561 1331 514 1364 c 2,0,-1
EndSplineSet
Colour: aaaa88
EndChar
StartChar: macron
Encoding: 175 175 217
Width: 1024
Flags: W
Fore
197 1556 m 1,0,-1
 827 1556 l 1,1,-1
 827 1368 l 1,2,-1
 197 1368 l 1,3,-1
 197 1556 l 1,0,-1
EndSplineSet
Colour: aaaa88
EndChar
StartChar: breve
Encoding: 728 728 218
Width: 1024
Flags: W
Fore
176 1606 m 1,0,-1
 319 1606 l 1,1,2
 330 1536 330 1536 379.5 1499 c 128,-1,3
 429 1462 429 1462 512 1462 c 256,4,5
 595 1462 595 1462 644.5 1499 c 128,-1,6
 694 1536 694 1536 705 1606 c 1,7,-1
 848 1606 l 1,8,9
 842 1462 842 1462 755 1385.5 c 128,-1,10
 668 1309 668 1309 512 1309 c 256,11,12
 356 1309 356 1309 269 1385.5 c 128,-1,13
 182 1462 182 1462 176 1606 c 1,0,-1
EndSplineSet
Colour: aaaa88
EndChar
StartChar: dotaccent
Encoding: 729 729 219
Width: 1024
Flags: W
Fore
375 1585 m 1,0,-1
 649 1585 l 1,1,-1
 649 1339 l 1,2,-1
 375 1339 l 1,3,-1
 375 1585 l 1,0,-1
EndSplineSet
Colour: aaaa88
EndChar
StartChar: ring
Encoding: 730 730 220
Width: 1024
Flags: W
Fore
381 1534 m 0,0,1
 381 1479 381 1479 419.5 1441 c 128,-1,2
 458 1403 458 1403 512 1403 c 0,3,4
 567 1403 567 1403 605 1441.5 c 128,-1,5
 643 1480 643 1480 643 1534 c 256,6,7
 643 1588 643 1588 604.5 1626.5 c 128,-1,8
 566 1665 566 1665 512 1665 c 0,9,10
 457 1665 457 1665 419 1626.5 c 128,-1,11
 381 1588 381 1588 381 1534 c 0,0,1
227 1534 m 256,12,13
 227 1652 227 1652 310.5 1735.5 c 128,-1,14
 394 1819 394 1819 512 1819 c 256,15,16
 630 1819 630 1819 713.5 1735.5 c 128,-1,17
 797 1652 797 1652 797 1534 c 256,18,19
 797 1416 797 1416 713.5 1332.5 c 128,-1,20
 630 1249 630 1249 512 1249 c 256,21,22
 394 1249 394 1249 310.5 1332.5 c 128,-1,23
 227 1416 227 1416 227 1534 c 256,12,13
EndSplineSet
Colour: aaaa88
EndChar
StartChar: cedilla
Encoding: 184 184 221
Width: 1024
Flags: W
Fore
602 0 m 1,0,1
 660 -62 660 -62 687.5 -115 c 128,-1,2
 715 -168 715 -168 715 -215 c 0,3,4
 715 -310 715 -310 653.5 -355.5 c 128,-1,5
 592 -401 592 -401 465 -401 c 0,6,7
 417 -401 417 -401 366 -394.5 c 128,-1,8
 315 -388 315 -388 263 -375 c 1,9,-1
 262 -223 l 1,10,11
 312 -239 312 -239 353.5 -246.5 c 128,-1,12
 395 -254 395 -254 428 -254 c 0,13,14
 486 -254 486 -254 518.5 -231 c 128,-1,15
 551 -208 551 -208 551 -168 c 0,16,17
 551 -142 551 -142 529.5 -101 c 128,-1,18
 508 -60 508 -60 463 0 c 1,19,-1
 602 0 l 1,0,1
EndSplineSet
Colour: aaaa88
EndChar
StartChar: hungarumlaut
Encoding: 733 733 222
Width: 1024
Flags: W
Fore
387 1638 m 1,0,-1
 604 1638 l 1,1,-1
 356 1262 l 1,2,-1
 193 1262 l 1,3,-1
 387 1638 l 1,0,-1
750 1638 m 1,4,-1
 981 1638 l 1,5,-1
 709 1262 l 1,6,-1
 535 1262 l 1,7,-1
 750 1638 l 1,4,-1
EndSplineSet
Colour: aaaa88
EndChar
StartChar: ogonek
Encoding: 731 731 223
Width: 1024
Flags: W
Fore
453 0 m 1,0,-1
 594 0 l 1,1,2
 544 -67 544 -67 525 -103.5 c 128,-1,3
 506 -140 506 -140 506 -166 c 0,4,5
 506 -205 506 -205 535.5 -229.5 c 128,-1,6
 565 -254 565 -254 614 -254 c 0,7,8
 653 -254 653 -254 691.5 -246.5 c 128,-1,9
 730 -239 730 -239 770 -223 c 1,10,-1
 770 -379 l 1,11,12
 715 -390 715 -390 668 -395.5 c 128,-1,13
 621 -401 621 -401 580 -401 c 0,14,15
 465 -401 465 -401 403.5 -355 c 128,-1,16
 342 -309 342 -309 342 -223 c 0,17,18
 342 -170 342 -170 369 -115.5 c 128,-1,19
 396 -61 396 -61 453 0 c 1,0,-1
EndSplineSet
Colour: aaaa88
EndChar
StartChar: caron
Encoding: 711 711 224
Width: 1024
Flags: W
Fore
391 1262 m 1,0,-1
 135 1638 l 1,1,-1
 313 1638 l 1,2,-1
 512 1411 l 1,3,-1
 711 1638 l 1,4,-1
 889 1638 l 1,5,-1
 633 1262 l 1,6,-1
 391 1262 l 1,0,-1
EndSplineSet
Colour: aaaa88
EndChar
StartChar: Lslash
Encoding: 321 321 225
Width: 1315
Flags: W
Fore
199 1493 m 1,0,-1
 584 1493 l 1,1,-1
 584 1077 l 1,2,-1
 838 1262 l 1,3,-1
 981 1069 l 1,4,-1
 584 797 l 1,5,-1
 584 291 l 1,6,-1
 1260 291 l 1,7,-1
 1260 0 l 1,8,-1
 199 0 l 1,9,-1
 199 524 l 1,10,-1
 51 418 l 1,11,-1
 -92 608 l 1,12,-1
 199 805 l 1,13,-1
 199 1493 l 1,0,-1
EndSplineSet
Colour: aaaa88
EndChar
StartChar: lslash
Encoding: 322 322 226
Width: 760
Flags: W
Fore
199 1556 m 1,0,-1
 559 1556 l 1,1,-1
 559 1055 l 1,2,-1
 688 1143 l 1,3,-1
 799 989 l 1,4,-1
 559 825 l 1,5,-1
 559 0 l 1,6,-1
 199 0 l 1,7,-1
 199 641 l 1,8,-1
 74 555 l 1,9,-1
 -37 709 l 1,10,-1
 199 872 l 1,11,-1
 199 1556 l 1,0,-1
EndSplineSet
Colour: aaaa88
EndChar
StartChar: brokenbar
Encoding: 166 166 231
Width: 748
Flags: W
Fore
487 1432 m 1,0,-1
 487 674 l 1,1,-1
 260 674 l 1,2,-1
 260 1432 l 1,3,-1
 487 1432 l 1,0,-1
487 408 m 1,4,-1
 487 -350 l 1,5,-1
 260 -350 l 1,6,-1
 260 408 l 1,7,-1
 487 408 l 1,4,-1
EndSplineSet
Colour: aaaa88
EndChar
StartChar: Eth
Encoding: 208 208 232
Width: 1716
Flags: W
Fore
592 1202 m 1,0,-1
 592 881 l 1,1,-1
 827 881 l 1,2,-1
 827 621 l 1,3,-1
 592 621 l 1,4,-1
 592 291 l 1,5,-1
 729 291 l 2,6,7
 965 291 965 291 1089.5 408 c 128,-1,8
 1214 525 1214 525 1214 748 c 0,9,10
 1214 970 1214 970 1090 1086 c 128,-1,11
 966 1202 966 1202 729 1202 c 2,12,-1
 592 1202 l 1,0,-1
207 1493 m 1,13,-1
 612 1493 l 2,14,15
 953 1493 953 1493 1119 1444.5 c 128,-1,16
 1285 1396 1285 1396 1405 1280 c 0,17,18
 1509 1179 1509 1179 1560.5 1047 c 128,-1,19
 1612 915 1612 915 1612 748 c 0,20,21
 1612 579 1612 579 1560.5 446.5 c 128,-1,22
 1509 314 1509 314 1405 213 c 0,23,24
 1284 97 1284 97 1116 48.5 c 128,-1,25
 948 0 948 0 612 0 c 2,26,-1
 207 0 l 1,27,-1
 207 621 l 1,28,-1
 33 621 l 1,29,-1
 33 881 l 1,30,-1
 207 881 l 1,31,-1
 207 1493 l 1,13,-1
EndSplineSet
Colour: aaaa88
EndChar
StartChar: eth
Encoding: 240 240 233
Width: 1407
Flags: W
Fore
920 743 m 1,0,1
 865 770 865 770 811 783.5 c 128,-1,2
 757 797 757 797 705 797 c 0,3,4
 588 797 588 797 524.5 730.5 c 128,-1,5
 461 664 461 664 461 543 c 0,6,7
 461 395 461 395 526 311 c 128,-1,8
 591 227 591 227 705 227 c 0,9,10
 822 227 822 227 884 312.5 c 128,-1,11
 946 398 946 398 946 559 c 0,12,13
 946 604 946 604 939.5 650 c 128,-1,14
 933 696 933 696 920 743 c 1,0,1
1096 1100 m 2,15,16
 1213 964 1213 964 1266 835.5 c 128,-1,17
 1319 707 1319 707 1319 559 c 0,18,19
 1319 283 1319 283 1156.5 127 c 128,-1,20
 994 -29 994 -29 705 -29 c 0,21,22
 415 -29 415 -29 251.5 127 c 128,-1,23
 88 283 88 283 88 559 c 0,24,25
 88 790 88 790 238.5 922.5 c 128,-1,26
 389 1055 389 1055 653 1055 c 0,27,28
 699 1055 699 1055 738 1048.5 c 128,-1,29
 777 1042 777 1042 813 1028 c 1,30,-1
 623 1247 l 1,31,-1
 250 1128 l 1,32,-1
 213 1257 l 1,33,-1
 520 1354 l 1,34,-1
 332 1556 l 1,35,-1
 684 1556 l 1,36,-1
 795 1440 l 1,37,-1
 1171 1554 l 1,38,-1
 1206 1425 l 1,39,-1
 891 1329 l 1,40,-1
 1096 1100 l 2,15,16
EndSplineSet
Colour: aaaa88
EndChar
StartChar: Thorn
Encoding: 222 222 236
Width: 1511
Flags: W
Fore
573 258 m 1,0,-1
 573 0 l 1,1,-1
 188 0 l 1,2,-1
 188 1493 l 1,3,-1
 573 1493 l 1,4,-1
 573 1233 l 1,5,-1
 827 1233 l 2,6,7
 1112 1233 1112 1233 1264.5 1106.5 c 128,-1,8
 1417 980 1417 980 1417 745 c 0,9,10
 1417 511 1417 511 1264.5 384.5 c 128,-1,11
 1112 258 1112 258 827 258 c 2,12,-1
 573 258 l 1,0,-1
573 956 m 1,13,-1
 573 537 l 1,14,-1
 786 537 l 2,15,16
 898 537 898 537 959 591.5 c 128,-1,17
 1020 646 1020 646 1020 745 c 0,18,19
 1020 846 1020 846 959 901 c 128,-1,20
 898 956 898 956 786 956 c 2,21,-1
 573 956 l 1,13,-1
EndSplineSet
Colour: aaaa88
EndChar
StartChar: thorn
Encoding: 254 254 237
Width: 1466
Flags: W
Fore
530 162 m 1,0,-1
 530 -426 l 1,1,-1
 172 -426 l 1,2,-1
 172 1556 l 1,3,-1
 530 1556 l 1,4,-1
 530 956 l 1,5,6
 604 1054 604 1054 694 1100.5 c 128,-1,7
 784 1147 784 1147 901 1147 c 0,8,9
 1108 1147 1108 1147 1241 982.5 c 128,-1,10
 1374 818 1374 818 1374 559 c 256,11,12
 1374 300 1374 300 1241 135.5 c 128,-1,13
 1108 -29 1108 -29 901 -29 c 0,14,15
 784 -29 784 -29 694 17.5 c 128,-1,16
 604 64 604 64 530 162 c 1,0,-1
768 887 m 256,17,18
 653 887 653 887 591.5 802.5 c 128,-1,19
 530 718 530 718 530 559 c 256,20,21
 530 400 530 400 591.5 315.5 c 128,-1,22
 653 231 653 231 768 231 c 256,23,24
 883 231 883 231 943.5 315 c 128,-1,25
 1004 399 1004 399 1004 559 c 256,26,27
 1004 719 1004 719 943.5 803 c 128,-1,28
 883 887 883 887 768 887 c 256,17,18
EndSplineSet
Colour: aaaa88
EndChar
StartChar: minus
Encoding: 8722 8722 238
Width: 1716
Flags: W
Fore
217 760 m 1,0,-1
 1499 760 l 1,1,-1
 1499 524 l 1,2,-1
 217 524 l 1,3,-1
 217 760 l 1,0,-1
EndSplineSet
Colour: aaaa88
EndChar
StartChar: multiply
Encoding: 215 215 239
Width: 1716
Flags: W
Fore
1460 1075 m 1,0,-1
 1026 641 l 1,1,-1
 1460 209 l 1,2,-1
 1292 41 l 1,3,-1
 858 473 l 1,4,-1
 424 41 l 1,5,-1
 256 209 l 1,6,-1
 690 641 l 1,7,-1
 256 1075 l 1,8,-1
 424 1243 l 1,9,-1
 858 809 l 1,10,-1
 1292 1243 l 1,11,-1
 1460 1075 l 1,0,-1
EndSplineSet
Colour: aaaa88
EndChar
StartChar: onesuperior
Encoding: 185 185 240
Width: 897
Flags: W
Fore
141 825 m 1,0,-1
 348 825 l 1,1,-1
 348 1346 l 1,2,-1
 123 1294 l 1,3,-1
 123 1454 l 1,4,-1
 352 1503 l 1,5,-1
 578 1503 l 1,6,-1
 578 825 l 1,7,-1
 782 825 l 1,8,-1
 782 668 l 1,9,-1
 141 668 l 1,10,-1
 141 825 l 1,0,-1
EndSplineSet
Colour: aaaa88
EndChar
StartChar: twosuperior
Encoding: 178 178 241
Width: 897
Flags: W
Fore
412 836 m 1,0,-1
 782 836 l 1,1,-1
 782 668 l 1,2,-1
 109 668 l 1,3,-1
 109 821 l 1,4,-1
 422 1087 l 2,5,6
 483 1140 483 1140 509 1180 c 128,-1,7
 535 1220 535 1220 535 1260 c 0,8,9
 535 1310 535 1310 498.5 1341 c 128,-1,10
 462 1372 462 1372 403 1372 c 0,11,12
 341 1372 341 1372 270 1349.5 c 128,-1,13
 199 1327 199 1327 115 1280 c 1,14,-1
 115 1466 l 1,15,16
 202 1493 202 1493 283.5 1506.5 c 128,-1,17
 365 1520 365 1520 440 1520 c 0,18,19
 598 1520 598 1520 688 1455.5 c 128,-1,20
 778 1391 778 1391 778 1280 c 0,21,22
 778 1208 778 1208 742.5 1147.5 c 128,-1,23
 707 1087 707 1087 606 1001 c 2,24,-1
 412 836 l 1,0,-1
EndSplineSet
Colour: aaaa88
EndChar
StartChar: threesuperior
Encoding: 179 179 242
Width: 897
Flags: W
Fore
592 1120 m 1,0,1
 684 1102 684 1102 735 1047 c 128,-1,2
 786 992 786 992 786 911 c 0,3,4
 786 782 786 782 687 717.5 c 128,-1,5
 588 653 588 653 387 653 c 0,6,7
 306 653 306 653 232 664.5 c 128,-1,8
 158 676 158 676 90 698 c 1,9,-1
 90 872 l 1,10,11
 156 836 156 836 220 817.5 c 128,-1,12
 284 799 284 799 344 799 c 0,13,14
 439 799 439 799 491 831 c 128,-1,15
 543 863 543 863 543 922 c 0,16,17
 543 986 543 986 489.5 1016.5 c 128,-1,18
 436 1047 436 1047 322 1047 c 2,19,-1
 248 1047 l 1,20,-1
 248 1184 l 1,21,-1
 332 1184 l 2,22,23
 430 1184 430 1184 475 1207.5 c 128,-1,24
 520 1231 520 1231 520 1282 c 0,25,26
 520 1327 520 1327 481 1349.5 c 128,-1,27
 442 1372 442 1372 362 1372 c 0,28,29
 310 1372 310 1372 248.5 1359 c 128,-1,30
 187 1346 187 1346 117 1319 c 1,31,-1
 117 1485 l 1,32,33
 182 1502 182 1502 257.5 1511 c 128,-1,34
 333 1520 333 1520 420 1520 c 0,35,36
 587 1520 587 1520 675.5 1464 c 128,-1,37
 764 1408 764 1408 764 1303 c 0,38,39
 764 1234 764 1234 719 1186 c 128,-1,40
 674 1138 674 1138 592 1120 c 1,0,1
EndSplineSet
Colour: aaaa88
EndChar
StartChar: onequarter
Encoding: 188 188 243
Width: 2120
Flags: W
Fore
1593 641 m 1,0,-1
 1354 317 l 1,1,-1
 1593 317 l 1,2,-1
 1593 641 l 1,0,-1
1575 836 m 1,3,-1
 1823 836 l 1,4,-1
 1823 317 l 1,5,-1
 1960 317 l 1,6,-1
 1960 162 l 1,7,-1
 1823 162 l 1,8,-1
 1823 0 l 1,9,-1
 1593 0 l 1,10,-1
 1593 162 l 1,11,-1
 1202 162 l 1,12,-1
 1202 330 l 1,13,-1
 1575 836 l 1,3,-1
733 -29 m 1,14,-1
 510 -29 l 1,15,-1
 1444 1520 l 1,16,-1
 1667 1520 l 1,17,-1
 733 -29 l 1,14,-1
119 825 m 1,18,-1
 324 825 l 1,19,-1
 324 1346 l 1,20,-1
 100 1294 l 1,21,-1
 100 1454 l 1,22,-1
 330 1503 l 1,23,-1
 553 1503 l 1,24,-1
 553 825 l 1,25,-1
 758 825 l 1,26,-1
 758 668 l 1,27,-1
 119 668 l 1,28,-1
 119 825 l 1,18,-1
EndSplineSet
Ligature: 0 1 'frac' one slash four
Ligature: 0 1 'frac' one fraction four
Colour: aaaa88
EndChar
StartChar: onehalf
Encoding: 189 189 244
Width: 2120
Flags: W
Fore
1649 168 m 1,0,-1
 2021 168 l 1,1,-1
 2021 0 l 1,2,-1
 1346 0 l 1,3,-1
 1346 154 l 1,4,-1
 1661 422 l 2,5,6
 1723 475 1723 475 1748.5 514 c 128,-1,7
 1774 553 1774 553 1774 592 c 0,8,9
 1774 642 1774 642 1737 673.5 c 128,-1,10
 1700 705 1700 705 1640 705 c 0,11,12
 1578 705 1578 705 1508.5 682.5 c 128,-1,13
 1439 660 1439 660 1354 612 c 1,14,-1
 1354 799 l 1,15,16
 1442 826 1442 826 1522.5 839 c 128,-1,17
 1603 852 1603 852 1677 852 c 0,18,19
 1836 852 1836 852 1925.5 788.5 c 128,-1,20
 2015 725 2015 725 2015 614 c 0,21,22
 2015 542 2015 542 1978.5 480 c 128,-1,23
 1942 418 1942 418 1843 334 c 2,24,-1
 1649 168 l 1,0,-1
733 -29 m 1,25,-1
 510 -29 l 1,26,-1
 1444 1520 l 1,27,-1
 1667 1520 l 1,28,-1
 733 -29 l 1,25,-1
119 825 m 1,29,-1
 324 825 l 1,30,-1
 324 1346 l 1,31,-1
 100 1294 l 1,32,-1
 100 1454 l 1,33,-1
 330 1503 l 1,34,-1
 553 1503 l 1,35,-1
 553 825 l 1,36,-1
 758 825 l 1,37,-1
 758 668 l 1,38,-1
 119 668 l 1,39,-1
 119 825 l 1,29,-1
EndSplineSet
Ligature: 0 1 'frac' one slash two
Ligature: 0 1 'frac' one fraction two
Colour: aaaa88
EndChar
StartChar: threequarters
Encoding: 190 190 245
Width: 2120
Flags: W
Fore
1575 836 m 1,0,-1
 1823 836 l 1,1,-1
 1823 317 l 1,2,-1
 1960 317 l 1,3,-1
 1960 162 l 1,4,-1
 1823 162 l 1,5,-1
 1823 0 l 1,6,-1
 1593 0 l 1,7,-1
 1593 162 l 1,8,-1
 1202 162 l 1,9,-1
 1202 330 l 1,10,-1
 1575 836 l 1,0,-1
1593 641 m 1,11,-1
 1354 317 l 1,12,-1
 1593 317 l 1,13,-1
 1593 641 l 1,11,-1
606 1120 m 1,14,15
 699 1102 699 1102 750 1047 c 128,-1,16
 801 992 801 992 801 911 c 0,17,18
 801 782 801 782 701.5 717.5 c 128,-1,19
 602 653 602 653 401 653 c 0,20,21
 320 653 320 653 246 664.5 c 128,-1,22
 172 676 172 676 104 698 c 1,23,-1
 104 872 l 1,24,25
 170 836 170 836 234 817.5 c 128,-1,26
 298 799 298 799 358 799 c 0,27,28
 453 799 453 799 505 831 c 128,-1,29
 557 863 557 863 557 922 c 0,30,31
 557 986 557 986 504 1016.5 c 128,-1,32
 451 1047 451 1047 336 1047 c 2,33,-1
 262 1047 l 1,34,-1
 262 1184 l 1,35,-1
 346 1184 l 2,36,37
 444 1184 444 1184 489.5 1207.5 c 128,-1,38
 535 1231 535 1231 535 1282 c 0,39,40
 535 1327 535 1327 495.5 1349.5 c 128,-1,41
 456 1372 456 1372 377 1372 c 0,42,43
 324 1372 324 1372 263 1359 c 128,-1,44
 202 1346 202 1346 131 1319 c 1,45,-1
 131 1485 l 1,46,47
 196 1502 196 1502 272 1511 c 128,-1,48
 348 1520 348 1520 434 1520 c 0,49,50
 601 1520 601 1520 689.5 1464 c 128,-1,51
 778 1408 778 1408 778 1303 c 0,52,53
 778 1234 778 1234 733 1186 c 128,-1,54
 688 1138 688 1138 606 1120 c 1,14,15
733 -29 m 1,55,-1
 510 -29 l 1,56,-1
 1444 1520 l 1,57,-1
 1667 1520 l 1,58,-1
 733 -29 l 1,55,-1
EndSplineSet
Ligature: 0 1 'frac' three slash four
Ligature: 0 1 'frac' three fraction four
Colour: aaaa88
EndChar
StartChar: dcroat
Encoding: 273 273 255
Width: 1466
Flags: W
Fore
934 956 m 1,0,-1
 934 1237 l 1,1,-1
 608 1237 l 1,2,-1
 608 1442 l 1,3,-1
 934 1442 l 1,4,-1
 934 1556 l 1,5,-1
 1294 1556 l 1,6,-1
 1294 1442 l 1,7,-1
 1448 1442 l 1,8,-1
 1448 1237 l 1,9,-1
 1294 1237 l 1,10,-1
 1294 0 l 1,11,-1
 934 0 l 1,12,-1
 934 162 l 1,13,14
 860 63 860 63 771 17 c 128,-1,15
 682 -29 682 -29 565 -29 c 0,16,17
 358 -29 358 -29 225 135.5 c 128,-1,18
 92 300 92 300 92 559 c 256,19,20
 92 818 92 818 225 982.5 c 128,-1,21
 358 1147 358 1147 565 1147 c 0,22,23
 681 1147 681 1147 770.5 1100.5 c 128,-1,24
 860 1054 860 1054 934 956 c 1,0,-1
698 231 m 0,25,26
 813 231 813 231 873.5 315 c 128,-1,27
 934 399 934 399 934 559 c 256,28,29
 934 719 934 719 873.5 803 c 128,-1,30
 813 887 813 887 698 887 c 0,31,32
 584 887 584 887 523.5 803 c 128,-1,33
 463 719 463 719 463 559 c 256,34,35
 463 399 463 399 523.5 315 c 128,-1,36
 584 231 584 231 698 231 c 0,25,26
EndSplineSet
Colour: aaaa88
EndChar
StartChar: sfthyphen
Encoding: 173 173 256
Width: 850
Flags: W
Fore
111 735 m 1,0,-1
 739 735 l 1,1,-1
 739 444 l 1,2,-1
 111 444 l 1,3,-1
 111 735 l 1,0,-1
EndSplineSet
Colour: aaaa88
EndChar
StartChar: periodcentered
Encoding: 8729 8729 257
Width: 778
Flags: W
Fore
209 905 m 1,0,-1
 569 905 l 1,1,-1
 569 518 l 1,2,-1
 209 518 l 1,3,-1
 209 905 l 1,0,-1
EndSplineSet
Colour: aaaa88
EndChar
StartChar: Euro
Encoding: 8364 8364 258
Width: 1425
Flags: W
Fore
1288 82 m 1,0,1
 1193 27 1193 27 1089.5 -1 c 128,-1,2
 986 -29 986 -29 874 -29 c 0,3,4
 612 -29 612 -29 432.5 101.5 c 128,-1,5
 253 232 253 232 178 477 c 1,6,-1
 -39 477 l 1,7,-1
 49 672 l 1,8,-1
 147 672 l 1,9,10
 146 686 146 686 145.5 701.5 c 128,-1,11
 145 717 145 717 145 745 c 0,12,13
 145 774 145 774 145.5 790 c 128,-1,14
 146 806 146 806 147 821 c 1,15,-1
 -39 821 l 1,16,-1
 49 1016 l 1,17,-1
 178 1016 l 1,18,19
 255 1262 255 1262 433.5 1391 c 128,-1,20
 612 1520 612 1520 874 1520 c 0,21,22
 986 1520 986 1520 1089.5 1492 c 128,-1,23
 1193 1464 1193 1464 1288 1409 c 1,24,-1
 1288 1100 l 1,25,26
 1207 1178 1207 1178 1115 1217.5 c 128,-1,27
 1023 1257 1023 1257 924 1257 c 0,28,29
 797 1257 797 1257 707.5 1195.5 c 128,-1,30
 618 1134 618 1134 573 1016 c 1,31,-1
 1112 1016 l 1,32,-1
 1026 821 l 1,33,-1
 533 821 l 1,34,35
 531 805 531 805 530.5 787 c 128,-1,36
 530 769 530 769 530 733 c 0,37,38
 530 720 530 720 530.5 704.5 c 128,-1,39
 531 689 531 689 532 672 c 1,40,-1
 961 672 l 1,41,-1
 872 477 l 1,42,-1
 573 477 l 1,43,44
 623 355 623 355 710.5 294 c 128,-1,45
 798 233 798 233 924 233 c 0,46,47
 1023 233 1023 233 1113.5 272.5 c 128,-1,48
 1204 312 1204 312 1288 391 c 1,49,-1
 1288 82 l 1,0,1
EndSplineSet
Colour: aaaa88
EndChar
StartChar: Dieresis
Encoding: 65539 -1 259
Width: 1024
Flags: W
Fore
197 1526 m 1,0,-1
 432 1526 l 1,1,-1
 432 1280 l 1,2,-1
 197 1280 l 1,3,-1
 197 1526 l 1,0,-1
592 1526 m 1,4,-1
 827 1526 l 1,5,-1
 827 1280 l 1,6,-1
 592 1280 l 1,7,-1
 592 1526 l 1,4,-1
EndSplineSet
Colour: aaaa88
EndChar
StartChar: Acute
Encoding: 65540 -1 260
Width: 1024
Flags: W
Fore
563 1526 m 1,0,-1
 846 1526 l 1,1,-1
 561 1262 l 1,2,-1
 365 1262 l 1,3,-1
 563 1526 l 1,0,-1
EndSplineSet
Colour: aaaa88
EndChar
StartChar: Tilde
Encoding: 65541 -1 261
Width: 1024
Flags: W
Fore
514 1311 m 2,0,-1
 458 1346 l 2,1,2
 455 1348 455 1348 448 1352 c 0,3,4
 403 1378 403 1378 375 1378 c 0,5,6
 343 1378 343 1378 323 1348 c 128,-1,7
 303 1318 303 1318 303 1268 c 2,8,-1
 303 1262 l 1,9,-1
 164 1262 l 1,10,11
 164 1267 164 1267 165 1277 c 128,-1,12
 166 1287 166 1287 166 1292 c 0,13,14
 166 1398 166 1398 219.5 1463 c 128,-1,15
 273 1528 273 1528 360 1528 c 0,16,17
 397 1528 397 1528 434 1515.5 c 128,-1,18
 471 1503 471 1503 510 1479 c 2,19,-1
 569 1440 l 2,20,21
 590 1426 590 1426 609.5 1418.5 c 128,-1,22
 629 1411 629 1411 645 1411 c 0,23,24
 682 1411 682 1411 701.5 1441 c 128,-1,25
 721 1471 721 1471 721 1528 c 1,26,-1
 860 1528 l 1,27,28
 860 1522 860 1522 859 1512 c 128,-1,29
 858 1502 858 1502 858 1497 c 0,30,31
 858 1391 858 1391 804.5 1326.5 c 128,-1,32
 751 1262 751 1262 664 1262 c 0,33,34
 626 1262 626 1262 591 1273 c 128,-1,35
 556 1284 556 1284 514 1311 c 2,0,-1
EndSplineSet
Colour: aaaa88
EndChar
StartChar: Grave
Encoding: 65542 -1 262
Width: 1024
Flags: W
Fore
461 1526 m 1,0,-1
 659 1262 l 1,1,-1
 463 1262 l 1,2,-1
 178 1526 l 1,3,-1
 461 1526 l 1,0,-1
EndSplineSet
Colour: aaaa88
EndChar
StartChar: Circumflex
Encoding: 65543 -1 263
Width: 1024
Flags: W
Fore
358 1526 m 1,0,-1
 666 1526 l 1,1,-1
 889 1262 l 1,2,-1
 711 1262 l 1,3,-1
 512 1423 l 1,4,-1
 313 1262 l 1,5,-1
 135 1262 l 1,6,-1
 358 1526 l 1,0,-1
EndSplineSet
Colour: aaaa88
EndChar
StartChar: Caron
Encoding: 65544 -1 264
Width: 1024
Flags: W
Fore
358 1262 m 1,0,-1
 135 1526 l 1,1,-1
 313 1526 l 1,2,-1
 512 1364 l 1,3,-1
 711 1526 l 1,4,-1
 889 1526 l 1,5,-1
 666 1262 l 1,6,-1
 358 1262 l 1,0,-1
EndSplineSet
Colour: aaaa88
EndChar
StartChar: Breve
Encoding: 65545 -1 265
Width: 1024
Flags: W
Fore
176 1526 m 1,0,-1
 319 1526 l 1,1,2
 340 1465 340 1465 388 1435 c 128,-1,3
 436 1405 436 1405 512 1405 c 256,4,5
 588 1405 588 1405 636 1435 c 128,-1,6
 684 1465 684 1465 705 1526 c 1,7,-1
 848 1526 l 1,8,9
 832 1397 832 1397 746 1329.5 c 128,-1,10
 660 1262 660 1262 512 1262 c 256,11,12
 364 1262 364 1262 278 1329.5 c 128,-1,13
 192 1397 192 1397 176 1526 c 1,0,-1
EndSplineSet
Colour: aaaa88
EndChar
StartChar: Dotaccent
Encoding: 65546 -1 266
Width: 1024
Flags: W
Fore
375 1526 m 1,0,-1
 649 1526 l 1,1,-1
 649 1280 l 1,2,-1
 375 1280 l 1,3,-1
 375 1526 l 1,0,-1
EndSplineSet
Colour: aaaa88
EndChar
StartChar: Hungarumlaut
Encoding: 65547 -1 267
Width: 1024
Flags: W
TeX: 78 0 0 0
Fore
329 1527 m 5,0,-1
 530 1527 l 5,1,-1
 356 1262 l 1,2,-1
 193 1262 l 1,3,-1
 329 1527 l 5,0,-1
686 1527 m 5,4,-1
 900 1527 l 5,5,-1
 709 1262 l 1,6,-1
 535 1262 l 1,7,-1
 686 1527 l 5,4,-1
EndSplineSet
EndChar
StartChar: HepBar
Encoding: 65548 -1 268
Width: 1024
Flags: W
TeX: 78 0 0 0
HStem: 1690 140<87 937>
Fore
87 1830 m 5,0,-1
 937 1830 l 5,1,-1
 937 1690 l 5,2,-1
 87 1690 l 5,3,-1
 87 1830 l 5,0,-1
EndSplineSet
EndChar
StartChar: Uni030F
Encoding: 65549 -1 269
Width: 1024
Flags: W
TeX: 78 0 0 0
AnchorPoint: "TopCapMkMk" 512 1120 mark 0
AnchorPoint: "TopCapMkMk" 512 1494 basemark 0
AnchorPoint: "TopCap" 512 1120 mark 0
Fore
673 1527 m 5,0,-1
 809 1262 l 5,3,-1
 646 1262 l 5,2,-1
 472 1527 l 5,1,-1
 673 1527 l 5,0,-1
316 1527 m 5,4,-1
 467 1262 l 5,7,-1
 293 1262 l 5,6,-1
 102 1527 l 5,5,-1
 316 1527 l 5,4,-1
EndSplineSet
EndChar
StartChar: Uni0311
Encoding: 65550 -1 270
Width: 1024
Flags: W
TeX: 78 0 0 0
AnchorPoint: "TopCap" 512 1120 mark 0
AnchorPoint: "TopCapMkMk" 512 1493 basemark 0
AnchorPoint: "TopCapMkMk" 512 1120 mark 0
Fore
848 1262 m 1,0,-1
 705 1262 l 1,1,2
 684 1323 684 1323 636 1353 c 128,-1,3
 588 1383 588 1383 512 1383 c 0,4,5
 436 1383 436 1383 388 1353 c 128,-1,6
 340 1323 340 1323 319 1262 c 1,7,-1
 176 1262 l 1,8,9
 192 1391 192 1391 278 1458 c 128,-1,10
 364 1526 364 1526 512 1526 c 0,11,12
 660 1526 660 1526 746 1458 c 128,-1,13
 832 1391 832 1391 848 1262 c 1,0,-1
EndSplineSet
EndChar
StartChar: Macron
Encoding: 65551 -1 271
Width: 1024
Flags: W
TeX: 78 0 0 0
AnchorPoint: "TopCapMkMk" 512 1120 mark 0
AnchorPoint: "TopCapMkMk" 512 1493 basemark 0
AnchorPoint: "TopCap" 512 1120 mark 0
Fore
197 1500 m 1,0,-1
 827 1500 l 1,1,-1
 827 1312 l 1,2,-1
 197 1312 l 1,3,-1
 197 1500 l 1,0,-1
EndSplineSet
EndChar
StartChar: uniFFFD
Encoding: 65533 65533 272
Width: 1087
Flags: W
TeX: 117 0 0 0
Fore
30 1610 m 1,0,-1
 1055 1610 l 1,1,-1
 1055 -105 l 1,2,-1
 30 -105 l 1,3,-1
 30 1610 l 1,0,-1
391 254 m 1,0,-1
 391 0 l 1,3,-1
 594 0 l 1,2,-1
 594 254 l 1,1,-1
 391 254 l 1,0,-1
588 401 m 1,4,-1
 588 524 l 2,36,-1
 588 576 588 576 591 606 c 128,-1,35
 594 636 594 636 600 657 c 0,33,34
 608 682 608 682 627.5 708.5 c 128,-1,32
 647 735 647 735 694 782 c 2,30,31
 782 868 l 2,29,-1
 872 954 872 954 908 1022.5 c 128,-1,28
 944 1091 944 1091 944 1167 c 0,26,27
 944 1326 944 1326 832.5 1423 c 128,-1,25
 721 1520 721 1520 537 1520 c 0,23,24
 434 1520 434 1520 337.5 1492 c 128,-1,22
 241 1464 241 1464 147 1407 c 1,20,21
 147 1219 l 1,19,-1
 244 1286 244 1286 333.5 1321 c 128,-1,18
 423 1356 423 1356 502 1356 c 0,16,17
 610 1356 610 1356 675.5 1301 c 128,-1,15
 741 1246 741 1246 741 1157 c 0,13,14
 741 1108 741 1108 715.5 1061 c 128,-1,12
 690 1014 690 1014 633 961 c 1,10,11
 543 872 l 1,9,-1
 453 786 453 786 425 721 c 128,-1,8
 397 656 397 656 397 555 c 2,6,7
 397 401 l 1,5,-1
 588 401 l 1,4,-1
EndSplineSet
EndChar
StartChar: uni0237
Encoding: 567 567 273
Width: 702
Flags: W
TeX: 117 0 0 0
AnchorPoint: "Bottom" 350 -426 basechar 0
AnchorPoint: "Top" 350 1120 basechar 0
Fore
172 1120 m 1,0,-1
 530 1120 l 1,1,-1
 530 20 l 2,2,3
 530 -205 530 -205 422 -324 c 0,4,5
 314 -442 314 -442 109 -442 c 2,6,-1
 -68 -442 l 1,7,-1
 -68 -207 l 1,8,-1
 -6 -207 l 2,9,10
 96 -207 96 -207 134 -161 c 128,-1,11
 172 -115 172 -115 172 20 c 2,12,-1
 172 1120 l 1,0,-1
EndSplineSet
EndChar
StartChar: uni02B0
Encoding: 688 688 274
Width: 1020
VWidth: 2049
Flags: W
TeX: 117 0 0 0
Fore
909 1230 m 2,0,-1
 909 821 l 1,1,-1
 657 821 l 1,2,-1
 657 888 l 1,3,-1
 657 1133 l 2,4,5
 657 1221 657 1221 652 1254 c 128,-1,6
 648 1287 648 1287 636 1303 c 0,7,8
 622 1324 622 1324 596 1336 c 128,-1,9
 571 1347 571 1347 539 1347 c 0,10,11
 461 1347 461 1347 416 1295 c 128,-1,12
 371 1243 371 1243 371 1152 c 2,13,-1
 371 821 l 1,14,-1
 120 821 l 1,15,-1
 120 1755 l 1,16,-1
 371 1755 l 1,17,-1
 371 1395 l 1,18,19
 428 1453 428 1453 491 1481 c 128,-1,20
 555 1509 555 1509 632 1509 c 0,21,22
 768 1509 768 1509 838 1438 c 128,-1,23
 909 1366 909 1366 909 1230 c 2,0,-1
EndSplineSet
EndChar
StartChar: uni02B1
Encoding: 689 689 275
Width: 1020
VWidth: 2049
Flags: W
TeX: 117 0 0 0
Fore
657 1133 m 18,4,5
 657 1221 657 1221 652 1254 c 128,-1,6
 648 1287 648 1287 636 1303 c 0,7,8
 622 1324 622 1324 596 1336 c 128,-1,9
 571 1347 571 1347 539 1347 c 0,10,11
 461 1347 461 1347 416 1295 c 128,-1,12
 371 1243 371 1243 371 1152 c 2,13,-1
 371 821 l 1,14,-1
 120 821 l 9,26,-1
 120 1483 l 22,0,1
 120 1608 120 1608 199 1670 c 4,2,3
 279 1733 279 1733 400 1733 c 28,4,5
 540 1733 540 1733 595 1681 c 13,6,-1
 531 1604 l 21,7,8
 501 1629 501 1629 463 1629 c 4,9,10
 422 1629 422 1629 397 1607 c 4,11,12
 371 1584 371 1584 371 1551 c 6,13,-1
 371 1395 l 5,14,15
 428 1453 428 1453 491 1481 c 128,-1,20
 555 1509 555 1509 632 1509 c 0,21,22
 768 1509 768 1509 838 1438 c 128,-1,23
 909 1366 909 1366 909 1230 c 2,0,-1
 909 821 l 1,1,-1
 657 821 l 9,2,-1
 657 1133 l 18,4,5
EndSplineSet
EndChar
StartChar: uni02B2
Encoding: 690 690 276
Width: 491
VWidth: 2049
Flags: W
TeX: 117 0 0 0
Fore
120 1493 m 1,0,-1
 371 1493 l 1,1,-1
 371 833 l 2,2,3
 371 698 371 698 295 627 c 128,-1,4
 220 556 220 556 76 556 c 2,5,-1
 -48 556 l 1,6,-1
 -48 697 l 1,7,-1
 -4 697 l 2,8,9
 67 697 67 697 94 724 c 128,-1,10
 120 752 120 752 120 833 c 2,11,-1
 120 1493 l 1,0,-1
120 1755 m 1,12,-1
 371 1755 l 1,13,-1
 371 1579 l 1,14,-1
 120 1579 l 1,15,-1
 120 1755 l 1,12,-1
EndSplineSet
EndChar
StartChar: uni02B3
Encoding: 691 691 277
Width: 707
VWidth: 2049
Flags: W
TeX: 117 0 0 0
Fore
703 1310 m 1,0,1
 670 1323 670 1323 637 1330 c 128,-1,2
 605 1336 605 1336 572 1336 c 0,3,4
 475 1336 475 1336 423 1283 c 128,-1,5
 371 1230 371 1230 371 1131 c 2,6,-1
 371 821 l 1,7,-1
 120 821 l 1,8,-1
 120 1493 l 1,9,-1
 371 1493 l 1,10,-1
 371 1383 l 1,11,12
 419 1449 419 1449 482 1479 c 128,-1,13
 545 1509 545 1509 632 1509 c 0,14,15
 645 1509 645 1509 659 1508 c 128,-1,16
 676 1507 676 1507 703 1504 c 1,17,-1
 703 1310 l 1,0,1
EndSplineSet
EndChar
StartChar: uni02B4
Encoding: 692 692 278
Width: 707
VWidth: 2049
Flags: W
TeX: 117 0 0 0
Fore
8 1003 m 5,0,1
 38 992 38 992 74 984 c 132,-1,2
 106 978 106 978 139 978 c 4,3,4
 236 978 236 978 288 1031 c 132,-1,5
 340 1084 340 1084 340 1183 c 6,6,-1
 340 1493 l 5,7,-1
 591 1493 l 5,8,-1
 591 821 l 5,9,-1
 340 821 l 5,10,-1
 340 930 l 5,11,12
 286 856 286 856 230 834 c 132,-1,13
 154 804 154 804 79 804 c 4,14,15
 67 804 67 804 52 805 c 132,-1,16
 36 805 36 805 8 808 c 5,17,-1
 8 1003 l 5,0,1
EndSplineSet
EndChar
StartChar: uni02B5
Encoding: 693 693 279
Width: 707
VWidth: 2049
Flags: W
TeX: 117 0 0 0
Fore
591 747 m 18,13,-1
 591 714 591 714 616 691 c 0,11,12
 641 669 641 669 682 669 c 0,9,10
 720 669 720 669 751 694 c 9,7,8
 815 618 l 17,6,-1
 760 565 760 565 620 565 c 24,4,5
 498 565 498 565 419 628 c 0,2,3
 340 690 340 690 340 816 c 2,0,1
 340 930 l 1,31,-1
 286 856 286 856 230 834 c 128,-1,13
 146 801 146 801 79 804 c 0,14,15
 67 804 67 804 52 805 c 128,-1,16
 36 805 36 805 8 808 c 1,17,-1
 8 1003 l 1,0,1
 38 992 38 992 74 984 c 128,-1,2
 106 978 106 978 139 978 c 0,3,4
 236 978 236 978 288 1031 c 128,-1,5
 340 1084 340 1084 340 1183 c 2,6,-1
 340 1717 l 1,7,-1
 591 1717 l 9,8,-1
 591 747 l 18,13,-1
EndSplineSet
EndChar
StartChar: uni02B6
Encoding: 694 694 280
Width: 920
VWidth: 2049
Flags: W
TeX: 117 0 0 0
Fore
354 1115 m 6,0,1
 299 1115 l 5,10,-1
 299 952 l 5,9,-1
 354 952 l 6,8,-1
 418 952 418 952 445 970 c 4,6,7
 473 990 473 990 473 1033 c 4,4,5
 473 1077 473 1077 445 1096 c 4,2,3
 418 1115 418 1115 354 1115 c 6,0,1
299 1248 m 5,11,-1
 325 1248 l 6,34,-1
 377 1248 377 1248 409 1266 c 4,32,33
 439 1284 439 1284 465 1326 c 6,30,31
 566 1493 l 5,29,-1
 820 1493 l 5,28,-1
 704 1302 l 6,27,-1
 668 1244 668 1244 633 1216 c 4,25,26
 598 1187 598 1187 554 1179 c 5,23,24
 634 1159 634 1159 674 1116 c 4,21,22
 714 1073 714 1073 714 1006 c 4,19,20
 714 910 714 910 637 865 c 4,17,18
 560 821 560 821 395 821 c 6,15,16
 48 821 l 5,14,-1
 48 1493 l 5,13,-1
 299 1493 l 5,12,-1
 299 1248 l 5,11,-1
EndSplineSet
EndChar
StartChar: uni02B7
Encoding: 695 695 281
Width: 1324
VWidth: 2049
Flags: W
TeX: 117 0 0 0
Fore
50 1493 m 1,0,-1
 294 1493 l 1,1,-1
 426 1030 l 1,2,-1
 558 1493 l 1,3,-1
 767 1493 l 1,4,-1
 899 1035 l 1,5,-1
 1031 1493 l 1,6,-1
 1275 1493 l 1,7,-1
 1068 821 l 1,8,-1
 794.5 821 l 1,9,-1
 662 1283 l 1,10,-1
 531 821 l 1,11,-1
 257 821 l 1,12,-1
 50 1493 l 1,0,-1
EndSplineSet
EndChar
StartChar: uni02B8
Encoding: 696 696 282
Width: 934
VWidth: 2049
Flags: W
TeX: 117 0 0 0
Fore
17.5 1493 m 1,0,-1
 268 1493 l 1,1,-1
 479 1037 l 1,2,-1
 658 1493 l 1,3,-1
 909 1493 l 1,4,-1
 579 757 l 1,5,6
 529 645 529 645 463 601 c 128,-1,7
 397 556 397 556 288 556 c 2,8,-1
 144 556 l 1,9,-1
 144 697 l 1,10,-1
 222 697 l 2,11,12
 286 697 286 697 315 714 c 128,-1,13
 344 732 344 732 360 777 c 1,14,-1
 367 795 l 1,15,-1
 17.5 1493 l 1,0,-1
EndSplineSet
EndChar
StartChar: uni02BB
Encoding: 699 699 285
Width: 778
Flags: W
TeX: 117 0 0 0
Fore
525 1262 m 1,0,-1
 254 1262 l 1,1,-1
 254 1434 l 1,2,-1
 418 1754 l 1,3,-1
 607 1754 l 1,4,-1
 525 1434 l 1,5,-1
 525 1262 l 1,0,-1
EndSplineSet
EndChar
StartChar: afii64937
Encoding: 701 701 287
Width: 778
Flags: W
TeX: 97 0 0 0
Fore
525 1754 m 1,0,-1
 525 1582 l 1,1,-1
 607 1262 l 1,2,-1
 418 1262 l 1,3,-1
 254 1582 l 1,4,-1
 254 1754 l 1,5,-1
 525 1754 l 1,0,-1
EndSplineSet
EndChar
StartChar: uni02BE
Encoding: 702 702 288
Width: 1024
Flags: W
TeX: 117 0 0 0
Fore
369 1819 m 17,0,1
 487 1819 487 1819 570 1736 c 0,2,3
 654 1652 654 1652 654 1534 c 128,-1,4
 654 1416 654 1416 570 1332 c 0,5,6
 487 1249 487 1249 369 1249 c 1,7,8
 369 1321 369 1321 369 1403 c 17,9,10
 424 1403 424 1403 462 1442 c 0,11,12
 500 1480 500 1480 500 1534 c 128,-1,13
 500 1588 500 1588 461 1626 c 0,14,15
 423 1665 423 1665 369 1665 c 1,16,17
 369 1724 369 1724 369 1819 c 17,0,1
EndSplineSet
EndChar
StartChar: uni02BF
Encoding: 703 703 289
Width: 1024
Flags: W
TeX: 117 0 0 0
Fore
654 1819 m 9,0,1
 654 1724 654 1724 654 1665 c 1,16,17
 600 1665 600 1665 562 1626 c 0,14,15
 523 1588 523 1588 523 1534 c 128,-1,13
 523 1480 523 1480 561 1442 c 0,11,12
 599 1403 599 1403 654 1403 c 9,9,10
 654 1321 654 1321 654 1249 c 1,7,8
 536 1249 536 1249 453 1332 c 0,5,6
 369 1416 369 1416 369 1534 c 128,-1,4
 369 1652 369 1652 453 1736 c 0,2,3
 536 1819 536 1819 654 1819 c 9,0,1
EndSplineSet
EndChar
StartChar: uni02C0
Encoding: 704 704 290
Width: 1024
Flags: W
TeX: 117 0 0 0
Fore
356 1575 m 5,0,1
 240 1575 l 5,27,-1
 240 1678 240 1678 319 1748 c 4,25,26
 399 1819 399 1819 511 1819 c 4,23,24
 625 1819 625 1819 703 1748 c 4,21,22
 782 1676 782 1676 782 1575 c 4,19,20
 782 1474 782 1474 703 1402 c 4,17,18
 654 1357 654 1357 597 1339 c 13,15,16
 596 1262 l 5,14,-1
 426 1262 l 5,13,-1
 422 1427 l 29,12,-1
 491 1427 l 6,11,-1
 550 1427 550 1427 589 1463 c 4,9,10
 628 1500 628 1500 628 1551 c 132,-1,8
 628 1602 628 1602 589 1638 c 4,6,7
 549 1674 549 1674 491 1674 c 4,4,5
 432 1674 432 1674 394 1638 c 4,2,3
 362 1609 362 1609 356 1575 c 5,0,1
EndSplineSet
EndChar
StartChar: uni02C1
Encoding: 705 705 291
Width: 1024
Flags: W
TeX: 117 0 0 0
Fore
666 1575 m 1,0,1
 660 1609 660 1609 628 1638 c 0,2,3
 590 1674 590 1674 531 1674 c 0,4,5
 473 1674 473 1674 433 1638 c 0,6,7
 394 1602 394 1602 394 1551 c 128,-1,8
 394 1500 394 1500 433 1463 c 0,9,10
 472 1427 472 1427 531 1427 c 2,11,-1
 600 1427 l 25,12,-1
 596 1262 l 1,13,-1
 426 1262 l 1,14,-1
 425 1339 l 17,15,16
 368 1357 368 1357 319 1402 c 0,17,18
 240 1474 240 1474 240 1575 c 128,-1,20
 240 1676 240 1676 319 1748 c 0,21,22
 397 1819 397 1819 511 1819 c 0,23,24
 623 1819 623 1819 703 1748 c 0,25,26
 782 1678 782 1678 782 1575 c 1,27,-1
 666 1575 l 1,0,1
EndSplineSet
EndChar
StartChar: uni02C2
Encoding: 706 706 292
Width: 1024
Flags: W
TeX: 117 0 0 0
Fore
267 1482 m 1,0,-1
 757 1727 l 1,6,-1
 757 1558 l 1,5,-1
 432 1394 l 1,4,-1
 757 1229 l 1,3,-1
 757 1058 l 1,2,-1
 267 1303 l 1,1,-1
 267 1482 l 1,0,-1
EndSplineSet
EndChar
StartChar: uni02C3
Encoding: 707 707 293
Width: 1024
Flags: W
TeX: 117 0 0 0
Fore
757 1482 m 1,0,-1
 757 1303 l 1,1,-1
 267 1058 l 1,2,-1
 267 1229 l 1,3,-1
 592 1394 l 1,4,-1
 267 1558 l 1,5,-1
 267 1727 l 1,6,-1
 757 1482 l 1,0,-1
EndSplineSet
EndChar
StartChar: uni02C4
Encoding: 708 708 294
Width: 1024
Flags: W
TeX: 117 0 0 0
Fore
422 1148 m 1,0,-1
 178 1638 l 1,1,-1
 346 1638 l 1,2,-1
 510 1312 l 1,3,-1
 676 1638 l 1,4,-1
 846 1638 l 1,5,-1
 602 1148 l 1,6,-1
 422 1148 l 1,0,-1
EndSplineSet
EndChar
StartChar: uni02C5
Encoding: 709 709 295
Width: 1024
Flags: W
TeX: 117 0 0 0
Fore
602 1638 m 1,0,-1
 846 1148 l 1,6,-1
 678 1148 l 1,5,-1
 514 1472 l 1,4,-1
 348 1148 l 1,3,-1
 178 1148 l 1,2,-1
 422 1638 l 1,1,-1
 602 1638 l 1,0,-1
EndSplineSet
EndChar
StartChar: uni02C8
Encoding: 712 712 296
Width: 1024
Flags: W
TeX: 117 0 0 0
Fore
407 1638 m 1,0,-1
 617 1638 l 1,1,-1
 617 1262 l 1,2,-1
 407 1262 l 1,3,-1
 407 1638 l 1,0,-1
EndSplineSet
EndChar
StartChar: uni02CE
Encoding: 718 718 302
Width: 1024
Flags: W
TeX: 117 0 0 0
Fore
316 -69 m 1,0,-1
 785 -316 l 1,1,-1
 723 -446 l 1,2,-1
 232 -245 l 1,3,-1
 316 -69 l 1,0,-1
EndSplineSet
EndChar
StartChar: uni02CF
Encoding: 719 719 303
Width: 1024
Flags: W
TeX: 117 0 0 0
Fore
761 -69 m 1,0,-1
 845 -245 l 1,1,-1
 354 -446 l 1,2,-1
 292 -316 l 1,3,-1
 761 -69 l 1,0,-1
EndSplineSet
EndChar
StartChar: uni02D0
Encoding: 720 720 304
Width: 690
Flags: W
TeX: 117 0 0 0
Fore
345 709 m 5,0,-1
 157 1059 l 1,1,-1
 534 1059 l 1,2,-1
 345 709 l 5,0,-1
345 350 m 1,3,-1
 534 0 l 1,4,-1
 157 0 l 1,5,-1
 345 350 l 1,3,-1
EndSplineSet
EndChar
StartChar: uni02D1
Encoding: 721 721 305
Width: 690
Flags: W
TeX: 117 0 0 0
Fore
345 709 m 5,0,-1
 157 1059 l 1,1,-1
 534 1059 l 1,2,-1
 345 709 l 5,0,-1
EndSplineSet
EndChar
StartChar: uni02D3
Encoding: 723 723 307
Width: 1024
Flags: W
TeX: 117 0 0 0
Fore
618 -50 m 13,0,1
 618 -145 618 -145 618 -204 c 5,16,17
 564 -204 564 -204 526 -243 c 4,14,15
 487 -281 487 -281 487 -335 c 132,-1,13
 487 -389 487 -389 525 -427 c 4,11,12
 563 -466 563 -466 618 -466 c 13,9,10
 618 -548 618 -548 618 -620 c 5,7,8
 500 -620 500 -620 417 -537 c 4,5,6
 333 -453 333 -453 333 -335 c 132,-1,4
 333 -217 333 -217 417 -133 c 4,2,3
 500 -50 500 -50 618 -50 c 13,0,1
EndSplineSet
EndChar
StartChar: uni02D4
Encoding: 724 724 308
Width: 1024
Flags: W
TeX: 117 0 0 0
Fore
732 -312 m 5,0,-1
 732 -492 l 5,1,-1
 282 -492 l 5,2,-1
 282 -312 l 5,3,-1
 417 -312 l 5,4,-1
 417 -42 l 5,5,-1
 597 -42 l 5,6,-1
 597 -312 l 5,7,-1
 732 -312 l 5,0,-1
EndSplineSet
EndChar
StartChar: uni02D5
Encoding: 725 725 309
Width: 1024
Flags: W
TeX: 117 0 0 0
Fore
288 -222 m 5,0,-1
 288 -42 l 5,1,-1
 738 -42 l 5,2,-1
 738 -222 l 5,3,-1
 603 -222 l 5,4,-1
 603 -492 l 5,5,-1
 423 -492 l 5,6,-1
 423 -222 l 5,7,-1
 288 -222 l 5,0,-1
EndSplineSet
EndChar
StartChar: uni02D6
Encoding: 726 726 310
Width: 1024
Flags: W
TeX: 117 0 0 0
Fore
736 -357 m 21,0,-1
 601 -357 l 5,1,-1
 601 -492 l 5,2,-1
 421 -492 l 5,3,-1
 421 -357 l 5,4,-1
 286 -357 l 5,5,-1
 286 -177 l 5,6,-1
 421 -177 l 5,7,-1
 421 -42 l 5,8,-1
 601 -42 l 5,9,-1
 601 -177 l 5,10,-1
 736 -177 l 13,11,-1
 736 -357 l 21,0,-1
EndSplineSet
EndChar
StartChar: uni02D7
Encoding: 727 727 311
Width: 1024
Flags: W
TeX: 117 0 0 0
Fore
736 -357 m 29,0,-1
 286 -357 l 21,1,-1
 286 -177 l 5,2,-1
 736 -177 l 13,3,-1
 736 -357 l 29,0,-1
EndSplineSet
EndChar
StartChar: uni02DE
Encoding: 734 734 312
Width: 608
Flags: W
TeX: 117 0 0 0
Fore
118 843 m 9,0,-1
 -166 657 l 25,1,-1
 -230 840 l 25,2,-1
 304 1188 l 9,3,-1
 393 1007 l 9,4,5
 339 976 339 976 339 885 c 0,6,7
 339 833 339 833 371 799 c 0,8,9
 403 763 403 763 449 763 c 128,-1,10
 495 763 495 763 534 807 c 9,11,-1
 642 656 l 17,12,13
 565 572 565 572 444 572 c 0,14,15
 305 572 305 572 214 659 c 0,16,17
 172 701 172 701 146 753 c 0,18,19
 125 795 125 795 118 843 c 9,0,-1
EndSplineSet
EndChar
StartChar: uni02DF
Encoding: 735 735 313
Width: 1024
Flags: W
TeX: 117 0 0 0
Fore
593 1262 m 5,0,-1
 511 1349 l 5,1,-1
 428 1262 l 5,2,-1
 228 1262 l 5,3,-1
 409 1449 l 5,4,-1
 228 1638 l 5,5,-1
 428 1638 l 5,6,-1
 511 1552 l 5,7,-1
 593 1638 l 5,8,-1
 793 1638 l 5,9,-1
 611 1449 l 5,10,-1
 793 1262 l 5,11,-1
 593 1262 l 5,0,-1
EndSplineSet
EndChar
StartChar: uni02E0
Encoding: 736 736 314
Width: 931
VWidth: 2049
Flags: W
TeX: 117 0 0 0
Fore
468 882 m 1,0,1
 398 780 398 780 398 749 c 0,2,3
 398 691 398 691 468 691 c 24,4,5
 536 691 536 691 536 749 c 0,6,7
 536 780 536 780 468 882 c 1,0,1
594 1050 m 1,8,9
 725 842 725 842 725 771 c 0,10,11
 725 565 725 565 468 565 c 24,12,13
 209 565 209 565 209 771 c 0,14,15
 209 840 209 840 342 1051 c 1,16,-1
 63 1493 l 1,17,-1
 313 1493 l 1,18,-1
 468 1247 l 1,19,-1
 624 1493 l 1,20,-1
 874 1493 l 1,21,-1
 594 1050 l 1,8,9
EndSplineSet
EndChar
StartChar: uni02E1
Encoding: 737 737 315
Width: 491
VWidth: 2049
Flags: W
TeX: 117 0 0 0
Fore
120 1755 m 1,0,-1
 371 1755 l 1,1,-1
 371 821 l 1,2,-1
 120 821 l 1,3,-1
 120 1755 l 1,0,-1
EndSplineSet
EndChar
StartChar: uni02E2
Encoding: 738 738 316
Width: 853
VWidth: 2049
Flags: W
TeX: 117 0 0 0
Fore
733 1472 m 1,0,-1
 733 1309 l 1,1,2
 652 1338 652 1338 578 1352 c 128,-1,3
 503 1366 503 1366 436 1366 c 0,4,5
 365 1366 365 1366 330 1351 c 128,-1,6
 295 1336 295 1336 295 1304 c 0,7,8
 295 1278 295 1278 322 1264 c 128,-1,9
 348 1251 348 1251 416 1244 c 1,10,-1
 460 1239 l 2,11,12
 652 1218 652 1218 719 1170 c 128,-1,13
 785 1122 785 1122 785 1019 c 0,14,15
 785 912 785 912 693 858 c 128,-1,16
 601 804 601 804 417 804 c 0,17,18
 340 804 340 804 257 814 c 128,-1,19
 174 825 174 825 86 846 c 1,20,-1
 86 1009 l 1,21,22
 161 978 161 978 240 962 c 128,-1,23
 318 946 318 946 400 946 c 0,24,25
 473 946 473 946 510 964 c 128,-1,26
 547 981 547 981 547 1015 c 0,27,28
 547 1044 547 1044 522 1058 c 128,-1,29
 496 1072 496 1072 420 1080 c 2,30,-1
 376 1085 l 2,31,32
 209 1103 209 1103 141 1152 c 128,-1,33
 74 1200 74 1200 74 1299 c 0,34,35
 74 1406 74 1406 160 1458 c 128,-1,36
 245 1509 245 1509 421 1509 c 0,37,38
 491 1509 491 1509 567 1500 c 128,-1,39
 643 1491 643 1491 733 1472 c 1,0,-1
EndSplineSet
EndChar
StartChar: uni02E3
Encoding: 739 739 317
Width: 924
VWidth: 2049
Flags: W
TeX: 117 0 0 0
Fore
318 1165 m 1,0,-1
 36 1493 l 1,1,-1
 301 1493 l 1,2,-1
 461 1294 l 1,3,-1
 624 1493 l 1,4,-1
 889 1493 l 1,5,-1
 606 1166 l 1,6,-1
 903 821 l 1,7,-1
 638 821 l 1,8,-1
 461 1033 l 1,9,-1
 287 821 l 1,10,-1
 22 821 l 1,11,-1
 318 1165 l 1,0,-1
EndSplineSet
EndChar
StartChar: uni02E4
Encoding: 740 740 318
Width: 831
VWidth: 2049
Flags: W
TeX: 117 0 0 0
Fore
335 821 m 5,0,-1
 335 1150 l 6,29,-1
 335 1177 335 1177 321 1200 c 132,-1,28
 304 1224 304 1224 258 1260 c 6,26,27
 214 1294 l 5,25,-1
 148 1347 148 1347 120 1393 c 132,-1,24
 93 1440 93 1440 93 1499 c 4,22,23
 93 1614 93 1614 183 1673 c 132,-1,21
 272 1733 272 1733 443 1733 c 4,19,20
 508 1733 508 1733 578 1721 c 132,-1,18
 648 1709 648 1709 733 1684 c 5,16,17
 733 1495 l 5,15,-1
 662 1535 662 1535 596 1555 c 132,-1,14
 530 1575 530 1575 473 1575 c 4,12,13
 413 1575 413 1575 379 1552 c 132,-1,11
 346 1528 346 1528 346 1486 c 4,9,10
 346 1458 346 1458 364 1431 c 132,-1,8
 383 1402 383 1402 423 1372 c 6,6,7
 468 1337 l 6,5,-1
 540 1281 540 1281 565 1240 c 132,-1,4
 588 1202 588 1202 588 1153 c 6,2,3
 588 821 l 5,1,-1
 335 821 l 5,0,-1
EndSplineSet
EndChar
StartChar: uni02E5
Encoding: 741 741 319
Width: 899
Flags: W
TeX: 117 0 0 0
Fore
733 0 m 9,1,-1
 548 0 l 17,4,-1
 548 1308 l 5,5,-1
 201 1308 l 5,6,-1
 201 1493 l 1,7,-1
 733 1493 l 1,0,-1
 733 0 l 9,1,-1
EndSplineSet
EndChar
StartChar: uni02E6
Encoding: 742 742 320
Width: 899
Flags: W
TeX: 117 0 0 0
Fore
551 1171 m 25,0,0
 551 1493 l 25,0,0
 733 1493 l 5,0,-1
 733 0 l 13,1,-1
 548 0 l 17,4,-1
 548 986 l 1,5,-1
 201 986 l 1,6,-1
 201 1171 l 1,7,-1
 551 1171 l 25,0,0
EndSplineSet
EndChar
StartChar: uni02E7
Encoding: 743 743 321
Width: 899
Flags: W
TeX: 117 0 0 0
Fore
551 839 m 25,0,0
 551 1493 l 25,0,0
 733 1493 l 5,0,-1
 733 0 l 13,1,-1
 548 0 l 17,4,-1
 548 654 l 1,5,-1
 201 654 l 1,6,-1
 201 839 l 1,7,-1
 551 839 l 25,0,0
EndSplineSet
EndChar
StartChar: uni02E8
Encoding: 744 744 322
Width: 899
Flags: W
TeX: 117 0 0 0
Fore
551 507 m 25,0,0
 551 1493 l 25,0,0
 733 1493 l 5,0,-1
 733 0 l 13,1,-1
 548 0 l 17,4,-1
 548 322 l 1,5,-1
 201 322 l 1,6,-1
 201 507 l 1,7,-1
 551 507 l 25,0,0
EndSplineSet
EndChar
StartChar: uni02E9
Encoding: 745 745 323
Width: 899
Flags: W
TeX: 117 0 0 0
Fore
733 1493 m 21,1,-1
 733 0 l 5,0,-1
 201 0 l 1,7,-1
 201 185 l 1,6,-1
 548 185 l 1,5,-1
 548 1493 l 9,4,-1
 733 1493 l 21,1,-1
EndSplineSet
EndChar
StartChar: uni02EE
Encoding: 750 750 326
Width: 1024
Flags: W
TeX: 117 0 0 0
Fore
246 1638 m 5,0,-1
 456 1638 l 5,1,-1
 456 1262 l 5,2,-1
 246 1262 l 5,3,-1
 246 1638 l 5,0,-1
566 1638 m 5,0,-1
 776 1638 l 5,1,-1
 776 1262 l 5,2,-1
 566 1262 l 5,3,-1
 566 1638 l 5,0,-1
EndSplineSet
EndChar
StartChar: uni0305
Encoding: 773 773 332
Width: 0
Flags: W
TeX: 117 0 0 0
HStem: 1368 188<-1340 -67>
AnchorPoint: "Top" -703 1120 mark 0
AnchorPoint: "TopMkMk" -703 1220 mark 0
AnchorPoint: "TopMkMk" -703 1638 basemark 0
Fore
-1340 1556 m 1,0,-1
 -67 1556 l 1,1,-1
 -67 1368 l 1,2,-1
 -1340 1368 l 1,3,-1
 -1340 1556 l 1,0,-1
EndSplineSet
EndChar
StartChar: hookabovecomb
Encoding: 777 777 336
Width: 0
Flags: W
TeX: 104 0 0 0
AnchorPoint: "Top" -703 1120 mark 0
AnchorPoint: "TopMkMk" -703 1220 mark 0
AnchorPoint: "TopMkMk" -703 1638 basemark 0
Fore
-859 1575 m 1,0,1
 -975 1575 l 1,27,-1
 -975 1678 -975 1678 -896 1748 c 0,25,26
 -816 1819 -816 1819 -704 1819 c 0,23,24
 -590 1819 -590 1819 -512 1748 c 0,21,22
 -433 1676 -433 1676 -433 1575 c 0,19,20
 -433 1474 -433 1474 -512 1402 c 0,17,18
 -561 1357 -561 1357 -618 1339 c 9,15,16
 -619 1262 l 1,14,-1
 -789 1262 l 1,13,-1
 -793 1427 l 25,12,-1
 -724 1427 l 2,11,-1
 -665 1427 -665 1427 -626 1463 c 0,9,10
 -587 1500 -587 1500 -587 1551 c 128,-1,8
 -587 1602 -587 1602 -626 1638 c 0,6,7
 -666 1674 -666 1674 -724 1674 c 0,4,5
 -783 1674 -783 1674 -821 1638 c 0,2,3
 -853 1609 -853 1609 -859 1575 c 1,0,1
EndSplineSet
EndChar
StartChar: uni030D
Encoding: 781 781 340
Width: 0
Flags: W
TeX: 117 0 0 0
AnchorPoint: "TopMkMk" -703 1638 basemark 0
AnchorPoint: "TopMkMk" -703 1220 mark 0
AnchorPoint: "Top" -703 1120 mark 0
Fore
-808 1638 m 1,0,-1
 -598 1638 l 1,1,-1
 -598 1262 l 1,2,-1
 -808 1262 l 1,3,-1
 -808 1638 l 1,0,-1
EndSplineSet
EndChar
StartChar: uni030E
Encoding: 782 782 341
Width: 0
Flags: W
TeX: 117 0 0 0
HStem: 1262 376<-968 -758 -648 -438>
VStem: -968 210<1262 1638> -648 210<1262 1638>
AnchorPoint: "TopMkMk" -703 1638 basemark 0
AnchorPoint: "TopMkMk" -703 1220 mark 0
AnchorPoint: "Top" -703 1120 mark 0
Fore
-968 1638 m 1,0,-1
 -758 1638 l 1,1,-1
 -758 1262 l 1,2,-1
 -968 1262 l 1,3,-1
 -968 1638 l 1,0,-1
-648 1638 m 1,0,-1
 -438 1638 l 1,1,-1
 -438 1262 l 1,2,-1
 -648 1262 l 1,3,-1
 -648 1638 l 1,0,-1
EndSplineSet
EndChar
StartChar: uni030F
Encoding: 783 783 342
Width: 0
Flags: W
TeX: 117 0 0 0
AnchorPoint: "TopMkMk" -703 1638 basemark 0
AnchorPoint: "TopMkMk" -703 1220 mark 0
AnchorPoint: "Top" -703 1120 mark 0
Fore
-578 1638 m 1,0,-1
 -384 1262 l 1,3,-1
 -547 1262 l 1,2,-1
 -795 1638 l 1,1,-1
 -578 1638 l 1,0,-1
-941 1638 m 1,4,-1
 -726 1262 l 1,7,-1
 -900 1262 l 1,6,-1
 -1172 1638 l 1,5,-1
 -941 1638 l 1,4,-1
EndSplineSet
EndChar
StartChar: uni0318
Encoding: 792 792 351
Width: 0
Flags: W
TeX: 117 0 0 0
HStem: -357 180<-928 -643>
VStem: -643 180<-492 -42>
AnchorPoint: "BottomMkMk" -703 0 mark 0
AnchorPoint: "BottomMkMk" -703 -493 basemark 0
AnchorPoint: "Bottom" -703 0 mark 0
Fore
-643 -42 m 1,0,-1
 -463 -42 l 1,1,-1
 -463 -492 l 1,2,-1
 -643 -492 l 1,3,-1
 -643 -357 l 1,4,-1
 -928 -357 l 1,5,-1
 -928 -177 l 1,6,-1
 -643 -177 l 1,7,-1
 -643 -42 l 1,0,-1
EndSplineSet
EndChar
StartChar: uni0319
Encoding: 793 793 352
Width: 0
Flags: W
TeX: 117 0 0 0
HStem: -357 180<-763 -478>
VStem: -943 180<-492 -42>
AnchorPoint: "BottomMkMk" -703 0 mark 0
AnchorPoint: "BottomMkMk" -703 -493 basemark 0
AnchorPoint: "Bottom" -703 0 mark 0
Fore
-763 -42 m 1,0,-1
 -763 -177 l 1,1,-1
 -478 -177 l 1,2,-1
 -478 -357 l 1,3,-1
 -763 -357 l 1,4,-1
 -763 -492 l 1,5,-1
 -943 -492 l 1,6,-1
 -943 -42 l 1,7,-1
 -763 -42 l 1,0,-1
EndSplineSet
EndChar
StartChar: uni031A
Encoding: 794 794 353
Width: 0
Flags: W
TeX: 117 0 0 0
AnchorPoint: "TopMkMk" -703 1638 basemark 0
AnchorPoint: "TopMkMk" -703 1220 mark 0
AnchorPoint: "Top" -703 1120 mark 0
Fore
-376 1638 m 1,0,-1
 -376 1262 l 1,1,-1
 -556 1262 l 1,2,-1
 -556 1458 l 1,3,-1
 -1032 1458 l 1,4,-1
 -1032 1638 l 1,5,-1
 -376 1638 l 1,0,-1
EndSplineSet
EndChar
StartChar: uni031B
Encoding: 795 795 354
Width: 141
Flags: W
TeX: 117 0 0 0
AnchorPoint: "Horn" -208 1001 mark 0
Fore
-287 1045 m 25,12,-1
 -204 1045 l 2,11,-1
 -126 1045 -126 1045 -74 1093 c 0,9,10
 -21 1141 -21 1141 -21 1209 c 128,-1,8
 -21 1277 -21 1277 -74 1324 c 9,6,7
 54 1415 l 17,21,22
 141 1336 141 1336 141 1226 c 0,19,20
 141 1115 141 1115 54 1037 c 0,17,18
 -4 984 -4 984 -77 968 c 0,15,16
 -131 955 -131 955 -287 955 c 9,0,0
 -287 1045 l 25,12,-1
EndSplineSet
EndChar
StartChar: uni031C
Encoding: 796 796 355
Width: 0
Flags: W
TeX: 117 0 0 0
AnchorPoint: "BottomMkMk" -703 0 mark 0
AnchorPoint: "BottomMkMk" -703 -493 basemark 0
AnchorPoint: "Bottom" -703 0 mark 0
Fore
-561 -50 m 9,0,1
 -561 -145 -561 -145 -561 -204 c 1,16,17
 -615 -204 -615 -204 -653 -243 c 0,14,15
 -692 -281 -692 -281 -692 -335 c 128,-1,13
 -692 -389 -692 -389 -654 -427 c 0,11,12
 -616 -466 -616 -466 -561 -466 c 9,9,10
 -561 -548 -561 -548 -561 -620 c 1,7,8
 -679 -620 -679 -620 -762 -537 c 0,5,6
 -846 -453 -846 -453 -846 -335 c 128,-1,4
 -846 -217 -846 -217 -762 -133 c 0,2,3
 -679 -50 -679 -50 -561 -50 c 9,0,1
EndSplineSet
EndChar
StartChar: uni031D
Encoding: 797 797 356
Width: 0
Flags: W
TeX: 117 0 0 0
HStem: -492 180<-928 -478>
VStem: -793 180<-312 -42>
AnchorPoint: "BottomMkMk" -703 0 mark 0
AnchorPoint: "BottomMkMk" -703 -493 basemark 0
AnchorPoint: "Bottom" -703 0 mark 0
Fore
-478 -312 m 1,0,-1
 -478 -492 l 1,1,-1
 -928 -492 l 1,2,-1
 -928 -312 l 1,3,-1
 -793 -312 l 1,4,-1
 -793 -42 l 1,5,-1
 -613 -42 l 1,6,-1
 -613 -312 l 1,7,-1
 -478 -312 l 1,0,-1
EndSplineSet
EndChar
StartChar: uni031E
Encoding: 798 798 357
Width: 0
Flags: W
TeX: 117 0 0 0
HStem: -222 180<-928 -478>
VStem: -793 180<-492 -222>
AnchorPoint: "BottomMkMk" -703 0 mark 0
AnchorPoint: "BottomMkMk" -703 -493 basemark 0
AnchorPoint: "Bottom" -703 0 mark 0
Fore
-928 -222 m 1,0,-1
 -928 -42 l 1,1,-1
 -478 -42 l 1,2,-1
 -478 -222 l 1,3,-1
 -613 -222 l 1,4,-1
 -613 -492 l 1,5,-1
 -793 -492 l 1,6,-1
 -793 -222 l 1,7,-1
 -928 -222 l 1,0,-1
EndSplineSet
EndChar
StartChar: uni031F
Encoding: 799 799 358
Width: 0
Flags: W
TeX: 117 0 0 0
HStem: -357 180<-928 -793 -613 -478>
VStem: -793 180<-492 -357 -177 -42>
AnchorPoint: "BottomMkMk" -703 0 mark 0
AnchorPoint: "BottomMkMk" -703 -493 basemark 0
AnchorPoint: "Bottom" -703 0 mark 0
Fore
-478 -357 m 17,0,-1
 -613 -357 l 1,1,-1
 -613 -492 l 1,2,-1
 -793 -492 l 1,3,-1
 -793 -357 l 1,4,-1
 -928 -357 l 1,5,-1
 -928 -177 l 1,6,-1
 -793 -177 l 1,7,-1
 -793 -42 l 1,8,-1
 -613 -42 l 1,9,-1
 -613 -177 l 1,10,-1
 -478 -177 l 9,11,-1
 -478 -357 l 17,0,-1
EndSplineSet
EndChar
StartChar: uni0320
Encoding: 800 800 359
Width: 0
Flags: W
TeX: 117 0 0 0
HStem: -357 180<-928 -478>
AnchorPoint: "BottomMkMk" -703 0 mark 0
AnchorPoint: "BottomMkMk" -703 -493 basemark 0
AnchorPoint: "Bottom" -703 0 mark 0
Fore
-478 -357 m 25,0,-1
 -928 -357 l 17,1,-1
 -928 -177 l 1,2,-1
 -478 -177 l 9,3,-1
 -478 -357 l 25,0,-1
EndSplineSet
EndChar
StartChar: uni0321
Encoding: 801 801 360
Width: 0
Flags: W
TeX: 117 0 0 0
HStem: -426 173<-617 -414.5>
VStem: -461 358<-151 421>
Fore
-103 420 m 29,0,-1
 -103 -9 l 2,1,2
 -103 -218 -103 -218 -215 -321 c 0,3,4
 -329 -426 -329 -426 -500 -426 c 24,5,6
 -700 -426 -700 -426 -779 -339 c 9,7,-1
 -688 -211 l 17,8,9
 -644 -253 -644 -253 -590 -253 c 0,10,11
 -533 -253 -533 -253 -497 -216 c 0,12,13
 -461 -178 -461 -178 -461 -123 c 2,14,-1
 -461 420 l 29,15,-1
 -103 420 l 29,0,-1
EndSplineSet
EndChar
StartChar: uni0322
Encoding: 802 802 361
Width: 0
Flags: W
TeX: 117 0 0 0
HStem: -426 172<-150 53>
Fore
-461 420 m 25,0,-1
 -103 420 l 25,1,-1
 -103 -124 l 2,2,3
 -103 -179 -103 -179 -67 -217 c 0,4,5
 -31 -254 -31 -254 26 -254 c 0,6,7
 80 -254 80 -254 124 -212 c 9,8,-1
 215 -340 l 17,9,10
 139 -426 139 -426 -64 -426 c 4,11,12
 -236 -426 -236 -426 -349 -322 c 0,13,14
 -461 -219 -461 -219 -461 -10 c 2,15,-1
 -461 420 l 25,0,-1
EndSplineSet
EndChar
StartChar: uni0326
Encoding: 806 806 365
Width: 0
Flags: W
TeX: 117 0 0 0
AnchorPoint: "BottomMkMk" -703 0 mark 0
AnchorPoint: "BottomMkMk" -703 -493 basemark 0
AnchorPoint: "Bottom" -703 0 mark 0
Fore
-838 -124 m 1,0,-1
 -567 -124 l 1,1,-1
 -567 -238 l 1,2,-1
 -731 -492 l 1,3,-1
 -920 -492 l 1,4,-1
 -838 -238 l 1,5,-1
 -838 -124 l 1,0,-1
EndSplineSet
EndChar
StartChar: uni032A
Encoding: 810 810 369
Width: 0
Flags: W
TeX: 117 0 0 0
HStem: -297 180<-1017 -389>
VStem: -1017 180<-417 -117> -569 180<-417 -297>
AnchorPoint: "BottomMkMk" -703 0 mark 0
AnchorPoint: "BottomMkMk" -703 -493 basemark 0
AnchorPoint: "Bottom" -703 0 mark 0
Fore
-389 -417 m 1,0,-1
 -569 -417 l 1,1,-1
 -569 -297 l 1,2,-1
 -837 -297 l 1,3,-1
 -837 -417 l 1,4,-1
 -1017 -417 l 1,5,-1
 -1017 -117 l 1,6,-1
 -389 -117 l 1,7,-1
 -389 -417 l 1,0,-1
EndSplineSet
EndChar
StartChar: uni032B
Encoding: 811 811 370
Width: 0
Flags: W
TeX: 117 0 0 0
AnchorPoint: "BottomMkMk" -703 0 mark 0
AnchorPoint: "BottomMkMk" -703 -493 basemark 0
AnchorPoint: "Bottom" -703 0 mark 0
Fore
-629 -130 m 17,0,1
 -629 -187 -629 -187 -589 -227 c 0,2,3
 -550 -266 -550 -266 -510 -266 c 128,-1,4
 -470 -266 -470 -266 -431 -227 c 0,5,6
 -391 -187 -391 -187 -391 -130 c 9,7,-1
 -234 -130 l 17,8,9
 -234 -248 -234 -248 -318 -334 c 0,10,11
 -400 -418 -400 -418 -500 -418 c 0,12,13
 -586 -418 -586 -418 -683 -334 c 0,14,15
 -705 -315 -705 -315 -703 -313 c 1,16,17
 -712 -323 -712 -323 -723 -334 c 0,18,19
 -805 -418 -805 -418 -906 -418 c 0,20,21
 -1004 -418 -1004 -418 -1088 -334 c 128,-1,22
 -1172 -250 -1172 -250 -1172 -130 c 9,23,-1
 -1015 -130 l 17,24,25
 -1015 -187 -1015 -187 -975 -227 c 0,26,27
 -936 -266 -936 -266 -896 -266 c 128,-1,28
 -856 -266 -856 -266 -817 -227 c 0,29,30
 -777 -187 -777 -187 -777 -130 c 9,31,-1
 -629 -130 l 17,0,1
EndSplineSet
EndChar
StartChar: uni0337
Encoding: 823 823 382
Width: 0
Flags: W
TeX: 117 0 0 0
Fore
-1218 -94 m 21,0,-1
 -1330 0 l 5,1,-1
 -195 1216 l 5,2,-1
 -86 1115 l 13,3,-1
 -1218 -94 l 21,0,-1
EndSplineSet
EndChar
StartChar: uni0338
Encoding: 824 824 383
Width: 0
Flags: W
TeX: 117 0 0 0
Fore
-1582 -74 m 17,0,-1
 -1695 39 l 1,1,-1
 -167 1567 l 5,2,-1
 -54 1452 l 13,3,-1
 -1582 -74 l 17,0,-1
EndSplineSet
EndChar
StartChar: uni033A
Encoding: 826 826 385
Width: 0
Flags: W
TeX: 117 0 0 0
HStem: -417 180<-1017 -389>
VStem: -1017 180<-237 -117> -569 180<-417 -117>
AnchorPoint: "BottomMkMk" -703 0 mark 0
AnchorPoint: "BottomMkMk" -703 -493 basemark 0
AnchorPoint: "Bottom" -703 0 mark 0
Fore
-389 -117 m 1,0,-1
 -389 -417 l 1,1,-1
 -1017 -417 l 1,2,-1
 -1017 -117 l 1,3,-1
 -837 -117 l 1,4,-1
 -837 -237 l 1,5,-1
 -569 -237 l 1,6,-1
 -569 -117 l 1,7,-1
 -389 -117 l 1,0,-1
EndSplineSet
EndChar
StartChar: uni033B
Encoding: 827 827 386
Width: 0
Flags: W
TeX: 117 0 0 0
HStem: -492 165<-943 -463> -207 165<-943 -463>
VStem: -943 175<-492 -42> -638 175<-492 -42>
AnchorPoint: "Bottom" -703 0 mark 0
AnchorPoint: "BottomMkMk" -703 -493 basemark 0
AnchorPoint: "BottomMkMk" -703 0 mark 0
Fore
-943 -42 m 17,0,-1
 -463 -42 l 1,1,-1
 -463 -492 l 1,2,-1
 -943 -492 l 9,3,-1
 -943 -42 l 17,0,-1
-768 -207 m 9,4,-1
 -768 -327 l 17,5,-1
 -638 -327 l 1,6,-1
 -638 -207 l 1,7,-1
 -768 -207 l 9,4,-1
EndSplineSet
EndChar
StartChar: uni033C
Encoding: 828 828 387
Width: 0
Flags: W
TeX: 117 0 0 0
HStem: -265 149<-955 -856.5 -543 -450>
Fore
-627 -374 m 9,0,-1
 -779 -374 l 17,1,2
 -779 -326 -779 -326 -819 -286 c 0,3,4
 -840 -265 -840 -265 -907 -265 c 0,5,6
 -962 -265 -962 -265 -1004 -307 c 0,7,8
 -1053 -356 -1053 -356 -1053 -404 c 9,9,-1
 -1172 -404 l 17,10,11
 -1172 -284 -1172 -284 -1088 -200 c 128,-1,12
 -1004 -116 -1004 -116 -906 -116 c 0,13,14
 -815 -116 -815 -116 -723 -200 c 0,15,16
 -712 -210 -712 -210 -703 -221 c 1,17,18
 -693 -210 -693 -210 -683 -200 c 0,19,20
 -586 -116 -586 -116 -500 -116 c 0,21,22
 -400 -116 -400 -116 -318 -200 c 0,23,24
 -234 -286 -234 -286 -234 -404 c 9,25,-1
 -353 -404 l 17,26,27
 -353 -346 -353 -346 -402 -307 c 0,28,29
 -453 -266 -453 -266 -499 -265 c 0,30,31
 -567 -265 -567 -265 -587 -286 c 0,32,33
 -627 -330 -627 -330 -627 -374 c 9,0,-1
EndSplineSet
EndChar
StartChar: uni033D
Encoding: 829 829 388
Width: 0
Flags: W
TeX: 117 0 0 0
Fore
-621 1262 m 5,0,-1
 -703 1349 l 5,1,-1
 -786 1262 l 5,2,-1
 -986 1262 l 5,3,-1
 -805 1449 l 5,4,-1
 -986 1638 l 5,5,-1
 -786 1638 l 5,6,-1
 -703 1552 l 5,7,-1
 -621 1638 l 5,8,-1
 -421 1638 l 5,9,-1
 -603 1449 l 5,10,-1
 -421 1262 l 5,11,-1
 -621 1262 l 5,0,-1
EndSplineSet
EndChar
StartChar: uni033E
Encoding: 830 830 389
Width: 0
Flags: W
TeX: 117 0 0 0
HStem: 1202 139<-844 -776> 1759 139<-630 -562>
VStem: -846 155<1675.5 1748.5> -715 155<1351.5 1427.5>
Fore
-789 1552 m 2,0,1
 -822 1599 -822 1599 -834 1632 c 0,2,3
 -846 1666 -846 1666 -846 1702 c 0,4,5
 -846 1795 -846 1795 -772 1846 c 0,6,7
 -698 1898 -698 1898 -562 1898 c 1,8,-1
 -562 1759 l 1,9,-1
 -570 1759 l 2,10,11
 -627 1759 -627 1759 -659 1739 c 128,-1,12
 -691 1719 -691 1719 -691 1683 c 0,13,14
 -691 1668 -691 1668 -683 1650 c 0,15,16
 -675 1631 -675 1631 -660 1609 c 2,17,-1
 -617 1548 l 2,18,19
 -587 1507 -587 1507 -574 1470 c 0,20,21
 -560 1434 -560 1434 -560 1398 c 0,22,23
 -560 1305 -560 1305 -634 1254 c 0,24,25
 -708 1202 -708 1202 -844 1202 c 1,26,-1
 -844 1341 l 1,27,-1
 -836 1341 l 2,28,29
 -777 1341 -777 1341 -746 1360 c 128,-1,30
 -715 1379 -715 1379 -715 1415 c 0,31,32
 -715 1440 -715 1440 -746 1487 c 0,33,34
 -750 1493 -750 1493 -752 1497 c 2,35,-1
 -789 1552 l 2,0,1
EndSplineSet
EndChar
StartChar: uni0346
Encoding: 838 838 391
Width: 0
Flags: W
TeX: 117 0 0 0
HStem: 1429 180<-1017 -389>
VStem: -1017 180<1309 1609> -569 180<1309 1429>
AnchorPoint: "Top" -703 1142 mark 0
AnchorPoint: "TopMkMk" -703 1660 basemark 0
AnchorPoint: "TopMkMk" -703 1142 mark 0
Fore
-389 1309 m 1,0,-1
 -569 1309 l 1,1,-1
 -569 1429 l 1,2,-1
 -837 1429 l 1,3,-1
 -837 1309 l 1,4,-1
 -1017 1309 l 1,5,-1
 -1017 1609 l 1,6,-1
 -389 1609 l 1,7,-1
 -389 1309 l 1,0,-1
EndSplineSet
EndChar
StartChar: uni0347
Encoding: 839 839 392
Width: 0
Flags: W
TeX: 117 0 0 0
HStem: -462 120<-851 -401> -192 120<-851 -401>
AnchorPoint: "BottomMkMk" -703 0 mark 0
AnchorPoint: "BottomMkMk" -703 -463 basemark 0
AnchorPoint: "Bottom" -703 0 mark 0
Fore
-478 -462 m 25,0,-1
 -928 -462 l 17,1,-1
 -928 -312 l 1,2,-1
 -478 -312 l 9,3,-1
 -478 -462 l 25,0,-1
-478 -222 m 25,4,-1
 -928 -222 l 17,5,-1
 -928 -72 l 1,6,-1
 -478 -72 l 9,7,-1
 -478 -222 l 25,4,-1
EndSplineSet
EndChar
StartChar: uni0348
Encoding: 840 840 393
Width: 0
Flags: W
TeX: 117 0 0 0
AnchorPoint: "Bottom" -703 0 mark 0
AnchorPoint: "BottomMkMk" -703 -463 basemark 0
AnchorPoint: "BottomMkMk" -703 0 mark 0
Fore
-968 -116 m 1,0,-1
 -758 -116 l 1,1,-1
 -758 -492 l 1,2,-1
 -968 -492 l 1,3,-1
 -968 -116 l 1,0,-1
-648 -116 m 1,4,-1
 -438 -116 l 1,5,-1
 -438 -492 l 1,6,-1
 -648 -492 l 1,7,-1
 -648 -116 l 1,4,-1
EndSplineSet
EndChar
StartChar: uni0349
Encoding: 841 841 394
Width: 0
Flags: W
TeX: 117 0 0 0
HStem: -222 180<-942 -642>
VStem: -642 180<-492 -42>
AnchorPoint: "Bottom" -703 0 mark 0
AnchorPoint: "BottomMkMk" -703 -463 basemark 0
AnchorPoint: "BottomMkMk" -703 0 mark 0
Fore
-942 -42 m 1,0,-1
 -462 -42 l 1,1,-1
 -462 -492 l 1,2,-1
 -642 -492 l 1,3,-1
 -642 -222 l 1,4,-1
 -942 -222 l 1,5,-1
 -942 -42 l 1,0,-1
EndSplineSet
EndChar
StartChar: uni034A
Encoding: 842 842 395
Width: 0
Flags: W
TeX: 117 0 0 0
HStem: 1309 149<-580 -507.5> 1425 150<-898.5 -830.5>
VStem: -1051 139<1309 1340> -494 137<1491 1575>
AnchorPoint: "TopMkMk" -703 1638 basemark 0
AnchorPoint: "TopMkMk" -703 1120 mark 0
AnchorPoint: "Top" -703 1120 mark 0
Fore
-694 1354 m 13,0,-1
 -752 1262 l 5,1,-1
 -892 1262 l 5,2,-1
 -795 1414 l 21,3,4
 -821 1425 -821 1425 -840 1425 c 4,5,6
 -872 1425 -872 1425 -892 1395 c 132,-1,7
 -912 1365 -912 1365 -912 1315 c 6,8,-1
 -912 1309 l 5,9,-1
 -1051 1309 l 5,10,11
 -1051 1314 -1051 1314 -1050 1324 c 132,-1,12
 -1049 1334 -1049 1334 -1049 1339 c 4,13,14
 -1049 1445 -1049 1445 -996 1510 c 4,15,16
 -942 1575 -942 1575 -855 1575 c 4,17,18
 -818 1575 -818 1575 -781 1562 c 4,19,20
 -750 1552 -750 1552 -719 1534 c 13,21,-1
 -653 1638 l 5,22,-1
 -514 1638 l 5,23,-1
 -619 1472 l 21,24,25
 -611 1468 -611 1468 -606 1466 c 4,26,27
 -590 1458 -590 1458 -570 1458 c 4,28,29
 -533 1458 -533 1458 -514 1488 c 4,30,31
 -494 1518 -494 1518 -494 1575 c 5,32,-1
 -355 1575 l 5,33,34
 -355 1569 -355 1569 -356 1559 c 132,-1,35
 -357 1549 -357 1549 -357 1544 c 4,36,37
 -357 1438 -357 1438 -410 1374 c 4,38,39
 -464 1309 -464 1309 -551 1309 c 4,40,41
 -589 1309 -589 1309 -624 1320 c 4,42,43
 -656 1330 -656 1330 -694 1354 c 13,0,-1
EndSplineSet
EndChar
StartChar: uni034B
Encoding: 843 843 396
Width: 0
Flags: W
TeX: 117 0 0 0
AnchorPoint: "TopMkMk" -703 1638 basemark 0
AnchorPoint: "TopMkMk" -703 1120 mark 0
AnchorPoint: "Top" -703 1120 mark 0
Fore
-898 1311 m 1,0,-1
 -718 1311 l 1,1,-1
 -718 1161 l 1,2,-1
 -898 1161 l 1,3,-1
 -898 1311 l 1,0,-1
-688 1740 m 1,4,-1
 -508 1740 l 1,5,-1
 -508 1590 l 1,6,-1
 -688 1590 l 1,7,-1
 -688 1740 l 1,4,-1
EndSplineSet
Refer: 261 -1 S 1 0 0 1 -1215 47 0
EndChar
StartChar: uni034D
Encoding: 845 845 398
Width: 0
Flags: W
TeX: 117 0 0 0
HStem: -332 130<-918 -487>
AnchorPoint: "BottomMkMk" -703 0 mark 0
AnchorPoint: "BottomMkMk" -703 -493 basemark 0
AnchorPoint: "Bottom" -703 0 mark 0
Fore
-606 -472 m 1,0,-1
 -487 -332 l 1,1,-1
 -918 -332 l 1,2,-1
 -799 -472 l 1,3,-1
 -956 -472 l 1,4,-1
 -1131 -267 l 1,5,-1
 -956 -62 l 1,6,-1
 -799 -62 l 1,7,-1
 -918 -202 l 1,8,-1
 -487 -202 l 1,9,-1
 -606 -62 l 1,10,-1
 -450 -62 l 1,11,-1
 -275 -267 l 1,12,-1
 -450 -472 l 1,13,-1
 -606 -472 l 1,0,-1
EndSplineSet
EndChar
StartChar: uni034E
Encoding: 846 846 399
Width: 0
Flags: W
TeX: 117 0 0 0
VStem: -676 100<-492 -261>
AnchorPoint: "BottomMkMk" -703 0 mark 0
AnchorPoint: "BottomMkMk" -703 -493 basemark 0
AnchorPoint: "Bottom" -703 0 mark 0
Fore
-638 -492 m 9,0,-1
 -768 -492 l 17,8,-1
 -768 -304 l 1,7,-1
 -923 -436 l 1,6,-1
 -923 -280 l 1,5,-1
 -703 -92 l 1,4,-1
 -483 -280 l 1,3,-1
 -483 -436 l 1,2,-1
 -638 -304 l 1,1,-1
 -638 -492 l 9,0,-1
EndSplineSet
EndChar
StartChar: uni0360
Encoding: 864 864 400
Width: 0
Flags: W
TeX: 117 0 0 0
AnchorPoint: "TopMkMk" -703 1142 mark 0
AnchorPoint: "TopMkMk" -703 1660 basemark 0
AnchorPoint: "Top" -703 1142 mark 0
Fore
-4 1360 m 2,0,-1
 -148 1395 l 2,1,2
 -241 1421 -241 1421 -255 1424 c 0,3,4
 -299 1434 -299 1434 -335 1434 c 0,5,6
 -421 1434 -421 1434 -474 1398 c 0,7,8
 -546 1350 -546 1350 -549 1309 c 1,9,-1
 -741 1309 l 1,10,11
 -737 1444 -737 1444 -624 1518 c 0,12,13
 -512 1591 -512 1591 -317 1591 c 0,14,15
 -206 1591 -206 1591 -143 1577 c 0,16,17
 -116 1571 -116 1571 4 1540 c 2,18,-1
 148 1505 l 2,19,20
 241 1479 241 1479 255 1476 c 0,21,22
 299 1466 299 1466 335 1466 c 0,23,24
 415 1466 415 1466 474 1502 c 0,25,26
 547 1546 547 1546 549 1591 c 1,27,-1
 741 1591 l 1,28,29
 737 1456 737 1456 624 1382 c 0,30,31
 512 1309 512 1309 317 1309 c 0,32,33
 206 1309 206 1309 143 1323 c 0,34,35
 116 1329 116 1329 -4 1360 c 2,0,-1
EndSplineSet
EndChar
StartChar: uni0361
Encoding: 865 865 401
Width: 0
Flags: W
TeX: 117 0 0 0
AnchorPoint: "TopMkMk" -703 1142 mark 0
AnchorPoint: "TopMkMk" -703 1660 basemark 0
AnchorPoint: "Top" -703 1142 mark 0
Fore
797 1321 m 1,0,-1
 629 1321 l 1,1,2
 611 1374 611 1374 434 1414 c 0,3,4
 272 1451 272 1451 0 1451 c 0,5,6
 -261 1451 -261 1451 -427 1414 c 0,7,8
 -599 1377 -599 1377 -629 1321 c 1,9,-1
 -797 1321 l 1,10,11
 -773 1464 -773 1464 -575 1536 c 128,-1,12
 -377 1608 -377 1608 0 1608 c 128,-1,13
 377 1608 377 1608 575 1536 c 128,-1,14
 773 1464 773 1464 797 1321 c 1,0,-1
EndSplineSet
EndChar
StartChar: uni0362
Encoding: 866 866 402
Width: 0
Flags: W
TeX: 117 0 0 0
HStem: -332 130<-920 718>
AnchorPoint: "BottomMkMk" -703 0 mark 0
AnchorPoint: "BottomMkMk" -703 -493 basemark 0
AnchorPoint: "Bottom" -703 0 mark 0
Fore
-920 -332 m 9,0,-1
 -920 -202 l 17,8,-1
 718 -202 l 1,7,-1
 599 -62 l 1,6,-1
 755 -62 l 1,5,-1
 930 -267 l 1,4,-1
 755 -472 l 1,3,-1
 599 -472 l 1,2,-1
 718 -332 l 1,1,-1
 -920 -332 l 9,0,-1
EndSplineSet
EndChar
StartChar: Hbar
Encoding: 294 294 434
Width: 1714
Flags: W
TeX: 72 0 0 0
HStem: 633 291<573 1141> 1080 250<47 188 573 1141 1526 1667> 1473 20G<188 573 1141 1526>
VStem: 188 385<0 633 0 1080 1330 1493> 1141 385<0 1080 1330 1493>
Fore
1141 1080 m 17,0,0
 573 1080 l 9,0,0
 573 924 l 1,2,-1
 1141 924 l 1,3,-1
 1141 1080 l 17,0,0
1526 1080 m 9,0,0
 1526 0 l 1,6,-1
 1141 0 l 1,7,-1
 1141 633 l 1,8,-1
 573 633 l 1,9,-1
 573 0 l 1,10,-1
 188 0 l 1,11,-1
 188 1080 l 17,0,0
 47 1080 l 5,9,-1
 47 1330 l 5,8,-1
 188 1330 l 9,0,0
 188 1493 l 1,0,-1
 573 1493 l 1,1,-1
 573 1330 l 17,0,0
 1141 1330 l 9,0,0
 1141 1493 l 1,4,-1
 1526 1493 l 1,5,-1
 1526 1330 l 17,0,0
 1667 1330 l 5,8,-1
 1667 1080 l 5,9,-1
 1526 1080 l 9,0,0
EndSplineSet
EndChar
StartChar: hbar
Encoding: 295 295 435
Width: 1458
Flags: W
TeX: 104 0 0 0
HStem: 0 21G<172 530 938 1298> 877 270<770 903> 1237 205<18 172 530 858>
VStem: 172 358<0 577 0 1237 1442 1556> 938 360<0 682>
Fore
938 520 m 18,4,5
 938 667 938 667 932 722 c 128,-1,6
 925 777 925 777 909 803 c 0,7,8
 888 838 888 838 852 858 c 128,-1,9
 816 877 816 877 770 877 c 0,10,11
 658 877 658 877 594 790 c 128,-1,12
 530 704 530 704 530 551 c 2,13,-1
 530 0 l 1,14,-1
 172 0 l 1,15,-1
 172 1237 l 21,0,0
 18 1237 l 5,9,-1
 18 1442 l 5,8,-1
 172 1442 l 13,0,0
 172 1556 l 1,16,-1
 530 1556 l 1,17,-1
 530 1442 l 21,0,0
 858 1442 l 5,3,-1
 858 1237 l 5,2,-1
 530 1237 l 13,0,0
 530 956 l 1,18,19
 611 1054 611 1054 702 1100 c 128,-1,20
 793 1147 793 1147 903 1147 c 0,21,22
 1097 1147 1097 1147 1198 1028 c 128,-1,23
 1298 909 1298 909 1298 682 c 2,0,-1
 1298 0 l 1,1,-1
 938 0 l 9,2,-1
 938 520 l 18,4,5
EndSplineSet
EndChar
StartChar: Eng
Encoding: 330 330 466
Width: 1714
Flags: W
TeX: 69 0 0 0
HStem: 0 21G<188 553> 1473 20G<188 618 1161 1528>
VStem: 188 365<0 1024> 1161 367<469 1493>
Fore
1106 -19 m 13,0,0
 553 1024 l 5,7,-1
 553 0 l 5,8,-1
 188 0 l 5,9,-1
 188 1493 l 5,0,-1
 618 1493 l 5,1,-1
 1161 469 l 5,2,-1
 1161 1493 l 5,3,-1
 1528 1493 l 5,1,-1
 1528 145 l 6,2,3
 1528 -134 1528 -134 1376 -272 c 132,-1,4
 1225 -410 1225 -410 918 -410 c 6,5,-1
 840 -410 l 5,6,-1
 840 -119 l 5,7,-1
 900 -119 l 6,8,9
 1020 -119 1020 -119 1082 -52 c 132,-1,10
 1095 -37 1095 -37 1106 -19 c 13,0,0
EndSplineSet
EndChar
StartChar: eng
Encoding: 331 331 467
Width: 1458
Flags: W
TeX: 101 0 0 0
HStem: 0 21G<172 530> 877 270<770 903>
VStem: 172 358<0 583 0 1120> 938 360<20 615>
Fore
1298 682 m 14,0,-1
 1298 20 l 22,2,3
 1298 -205 1298 -205 1190 -324 c 132,-1,4
 1082 -442 1082 -442 877 -442 c 6,5,-1
 700 -442 l 5,6,-1
 700 -207 l 5,7,-1
 760 -207 l 6,8,9
 862 -207 862 -207 900 -161 c 132,-1,10
 938 -115 938 -115 938 20 c 6,11,-1
 938 522 l 6,4,5
 938 667 938 667 932 722 c 132,-1,6
 925 777 925 777 909 803 c 4,7,8
 888 838 888 838 852 858 c 132,-1,9
 816 877 816 877 770 877 c 4,10,11
 658 877 658 877 594 790 c 132,-1,12
 530 704 530 704 530 551 c 6,13,-1
 530 0 l 5,14,-1
 172 0 l 5,15,-1
 172 1120 l 5,16,-1
 530 1120 l 5,17,-1
 530 956 l 5,18,19
 611 1054 611 1054 702 1100 c 132,-1,20
 793 1147 793 1147 903 1147 c 4,21,22
 1097 1147 1097 1147 1198 1028 c 132,-1,23
 1298 909 1298 909 1298 682 c 14,0,-1
EndSplineSet
EndChar
StartChar: Tbar
Encoding: 358 358 488
Width: 1397
Flags: W
TeX: 84 0 0 0
HStem: 0 21G<506 891> 633 291<271 506 891 1126> 1202 291<10 506 10 1386>
VStem: 506 385<0 633 924 1202>
Fore
891 633 m 13,0,0
 891 0 l 1,4,-1
 506 0 l 1,5,-1
 506 633 l 21,0,0
 271 633 l 5,16,-1
 271 924 l 5,17,-1
 506 924 l 13,0,0
 506 1202 l 1,6,-1
 10 1202 l 1,7,-1
 10 1493 l 1,0,-1
 1386 1493 l 1,1,-1
 1386 1202 l 1,2,-1
 891 1202 l 1,3,-1
 891 924 l 21,0,0
 1126 924 l 5,17,-1
 1126 633 l 5,16,-1
 891 633 l 13,0,0
EndSplineSet
EndChar
StartChar: tbar
Encoding: 359 359 489
Width: 979
Flags: W
TeX: 116 0 0 0
HStem: 0 256<698 901> 476 236<27 205 563 932> 874 246<27 205 563 932>
VStem: 205 358<389 476 712 874 1120 1438>
Fore
563 476 m 13,0,0
 563 389 l 2,5,6
 563 311 563 311 594 284 c 128,-1,7
 625 256 625 256 717 256 c 2,8,-1
 901 256 l 1,9,-1
 901 0 l 1,10,-1
 594 0 l 2,11,12
 382 0 382 0 294 88 c 128,-1,13
 205 178 205 178 205 389 c 2,14,-1
 205 476 l 21,0,0
 27 476 l 5,16,-1
 27 712 l 1,17,-1
 205 712 l 9,0,0
 205 874 l 1,15,-1
 27 874 l 1,16,-1
 27 1120 l 1,17,-1
 205 1120 l 1,18,-1
 205 1438 l 1,19,-1
 563 1438 l 1,0,-1
 563 1120 l 1,1,-1
 932 1120 l 1,2,-1
 932 874 l 1,3,-1
 563 874 l 1,4,-1
 563 712 l 17,0,0
 932 712 l 1,2,-1
 932 476 l 5,3,-1
 563 476 l 13,0,0
EndSplineSet
EndChar
StartChar: longs
Encoding: 383 383 510
Width: 891
Flags: W
TeX: 108 0 0 0
HStem: 0 21G<217 575> 864 256<39 217> 1321 235<528 909>
VStem: 217 358<0 1289.5>
AnchorPoint: "Top" 485 1493 basechar 0
Fore
575 1198 m 10,0,-1
 575 0 l 17,1,-1
 217 0 l 1,2,-1
 217 864 l 1,3,-1
 39 864 l 1,4,-1
 39 1120 l 1,5,-1
 217 1120 l 1,6,-1
 217 1198 l 2,7,8
 217 1381 217 1381 319 1468 c 0,9,10
 421 1556 421 1556 635 1556 c 2,11,-1
 909 1556 l 1,12,-1
 909 1321 l 1,13,-1
 711 1321 l 2,14,15
 635 1321 635 1321 605 1294 c 0,16,17
 575 1266 575 1266 575 1198 c 10,0,-1
EndSplineSet
EndChar
StartChar: uni0180
Encoding: 384 384 511
Width: 1466
Flags: W
TeX: 117 0 0 0
AnchorPoint: "Top" 767 1493 basechar 0
AnchorPoint: "Bottom" 767 0 basechar 0
Fore
768 231 m 0,0,1
 883 231 883 231 944 315 c 128,-1,2
 1004 399 1004 399 1004 559 c 0,3,4
 1004 719 1004 719 944 803 c 128,-1,5
 883 887 883 887 768 887 c 0,6,7
 653 887 653 887 592 802 c 128,-1,8
 530 718 530 718 530 559 c 0,9,10
 530 400 530 400 592 316 c 128,-1,11
 653 231 653 231 768 231 c 0,0,1
530 956 m 17,12,13
 604 1054 604 1054 694 1100 c 128,-1,14
 784 1147 784 1147 901 1147 c 0,15,16
 1108 1147 1108 1147 1241 982 c 128,-1,17
 1374 818 1374 818 1374 559 c 0,18,19
 1374 300 1374 300 1241 136 c 128,-1,20
 1108 -29 1108 -29 901 -29 c 0,21,22
 784 -29 784 -29 694 18 c 128,-1,23
 604 64 604 64 530 162 c 1,24,-1
 530 0 l 1,25,-1
 172 0 l 5,26,-1
 172 1237 l 17,0,0
 18 1237 l 1,9,-1
 18 1442 l 1,8,-1
 172 1442 l 9,0,0
 172 1556 l 1,27,-1
 530 1556 l 1,28,-1
 530 1442 l 17,0,0
 858 1442 l 1,3,-1
 858 1237 l 1,2,-1
 530 1237 l 9,0,0
 530 956 l 17,12,13
EndSplineSet
EndChar
StartChar: uni0181
Encoding: 385 385 512
Width: 1661
Flags: W
TeX: 117 0 0 0
AnchorPoint: "Bottom" 870 0 basechar 0
AnchorPoint: "TopCap" 870 1493 basechar 0
Fore
866 1493 m 18,27,28
 1177 1493 1177 1493 1316 1399 c 128,-1,29
 1456 1305 1456 1305 1456 1098 c 0,30,31
 1456 989 1456 989 1405 912 c 128,-1,32
 1354 836 1354 836 1257 799 c 1,18,19
 1381 763 1381 763 1449 666 c 128,-1,20
 1517 569 1517 569 1517 428 c 0,21,22
 1517 212 1517 212 1371 106 c 128,-1,23
 1225 0 1225 0 927 0 c 2,24,-1
 288 0 l 1,25,-1
 288 1353 l 29,0,0
 268 1353 l 6,11,-1
 179 1353 179 1353 138 1315 c 4,9,10
 85 1267 85 1267 85 1219 c 132,-1,8
 85 1171 85 1171 138 1124 c 13,6,7
 10 1033 l 21,21,22
 -77 1112 -77 1112 -77 1222 c 4,19,20
 -77 1333 -77 1333 10 1411 c 4,17,18
 66 1462 66 1462 141 1480 c 4,15,16
 195 1493 195 1493 351 1493 c 14,0,0
 866 1493 l 18,27,28
886 915 m 2,0,1
 977 915 977 915 1024 955 c 128,-1,2
 1071 995 1071 995 1071 1073 c 0,3,4
 1071 1150 1071 1150 1024 1190 c 128,-1,5
 977 1231 977 1231 886 1231 c 2,6,-1
 673 1231 l 1,7,-1
 673 915 l 1,8,-1
 886 915 l 2,0,1
899 262 m 2,9,10
 1015 262 1015 262 1074 311 c 128,-1,11
 1132 360 1132 360 1132 459 c 0,12,13
 1132 556 1132 556 1074 604 c 128,-1,14
 1016 653 1016 653 899 653 c 2,15,-1
 673 653 l 1,16,-1
 673 262 l 1,17,-1
 899 262 l 2,9,10
EndSplineSet
EndChar
StartChar: uni0182
Encoding: 386 386 513
Width: 1561
Flags: W
TeX: 117 0 0 0
HStem: 0 21G<188 827> 1202 291<188 1217>
VStem: 188 385<0 633 0 1202> 1032 385<431 465>
AnchorPoint: "TopCap" 770 1493 basechar 0
AnchorPoint: "Bottom" 770 0 basechar 0
Fore
799 262 m 2,0,1
 920 262 920 262 974 307 c 0,2,3
 1032 356 1032 356 1032 449 c 0,4,5
 1032 540 1032 540 974 588 c 0,6,7
 921 633 921 633 799 633 c 2,8,-1
 573 633 l 1,9,-1
 573 262 l 1,10,-1
 799 262 l 2,0,1
827 0 m 10,11,-1
 188 0 l 17,12,-1
 188 1493 l 1,13,-1
 1217 1493 l 25,14,-1
 1217 1202 l 25,15,-1
 573 1202 l 25,16,-1
 573 924 l 1,17,-1
 827 924 l 2,18,19
 1110 924 1110 924 1271 807 c 0,20,21
 1417 701 1417 701 1417 461 c 24,22,23
 1417 223 1417 223 1271 117 c 0,24,25
 1110 0 1110 0 827 0 c 10,11,-1
EndSplineSet
EndChar
StartChar: uni0183
Encoding: 387 387 514
Width: 1466
Flags: W
TeX: 117 0 0 0
AnchorPoint: "Top" 767 1493 basechar 0
AnchorPoint: "Bottom" 767 0 basechar 0
Fore
768 231 m 0,0,1
 883 231 883 231 944 315 c 128,-1,2
 1004 399 1004 399 1004 559 c 0,3,4
 1004 719 1004 719 944 803 c 128,-1,5
 883 887 883 887 768 887 c 0,6,7
 653 887 653 887 592 802 c 128,-1,8
 530 718 530 718 530 559 c 0,9,10
 530 400 530 400 592 316 c 128,-1,11
 653 231 653 231 768 231 c 0,0,1
530 946 m 17,12,13
 571 1011 571 1011 694 1080 c 128,-1,14
 759 1117 759 1117 901 1117 c 0,15,16
 1116 1117 1116 1117 1241 962 c 128,-1,17
 1374 798 1374 798 1374 559 c 0,18,19
 1374 300 1374 300 1241 136 c 128,-1,20
 1108 -29 1108 -29 901 -29 c 0,21,22
 784 -29 784 -29 694 18 c 128,-1,23
 604 64 604 64 530 162 c 1,24,-1
 530 0 l 1,25,-1
 172 0 l 1,26,-1
 172 1493 l 5,27,-1
 1177 1493 l 5,1,-1
 1177 1272 l 5,2,-1
 530 1272 l 13,3,-1
 530 946 l 17,12,13
EndSplineSet
EndChar
StartChar: uni0184
Encoding: 388 388 515
Width: 1561
Flags: W
TeX: 117 0 0 0
HStem: 0 21G<188 827> 1202 291<188 1217>
VStem: 188 385<0 633 0 1202> 1032 385<431 465>
AnchorPoint: "Bottom" 770 0 basechar 0
AnchorPoint: "TopCap" 770 1493 basechar 0
Fore
188 903 m 1,23,-1
 -1 1120 l 25,11,-1
 573 1556 l 17,12,-1
 573 924 l 1,14,-1
 827 924 l 2,18,19
 1110 924 1110 924 1271 807 c 0,20,21
 1417 701 1417 701 1417 461 c 24,22,23
 1417 223 1417 223 1271 117 c 0,24,25
 1110 0 1110 0 827 0 c 10,11,-1
 188 0 l 17,12,-1
 188 903 l 1,23,-1
799 262 m 2,0,1
 920 262 920 262 974 307 c 0,2,3
 1032 356 1032 356 1032 449 c 0,4,5
 1032 540 1032 540 974 588 c 0,6,7
 921 633 921 633 799 633 c 2,8,-1
 573 633 l 1,9,-1
 573 262 l 1,10,-1
 799 262 l 2,0,1
EndSplineSet
EndChar
StartChar: uni0185
Encoding: 389 389 516
Width: 1466
Flags: W
TeX: 117 0 0 0
AnchorPoint: "Top" 767 1493 basechar 0
AnchorPoint: "Bottom" 767 0 basechar 0
Fore
172 918 m 5,23,-1
 -1 1120 l 29,11,-1
 530 1556 l 21,12,-1
 530 956 l 5,14,-1
 604 1054 604 1054 694 1100 c 128,-1,14
 784 1147 784 1147 901 1147 c 0,15,16
 1108 1147 1108 1147 1241 982 c 128,-1,17
 1374 818 1374 818 1374 559 c 0,18,19
 1374 300 1374 300 1241 136 c 128,-1,20
 1108 -29 1108 -29 901 -29 c 0,21,22
 784 -29 784 -29 694 18 c 128,-1,23
 604 64 604 64 530 162 c 1,24,-1
 530 0 l 1,25,-1
 172 0 l 1,26,-1
 172 918 l 5,23,-1
768 231 m 0,0,1
 883 231 883 231 944 315 c 128,-1,2
 1004 399 1004 399 1004 559 c 0,3,4
 1004 719 1004 719 944 803 c 128,-1,5
 883 887 883 887 768 887 c 0,6,7
 653 887 653 887 592 802 c 128,-1,8
 530 718 530 718 530 559 c 0,9,10
 530 400 530 400 592 316 c 128,-1,11
 653 231 653 231 768 231 c 0,0,1
EndSplineSet
EndChar
StartChar: uni0186
Encoding: 390 390 517
Width: 1503
Flags: W
TeX: 117 0 0 0
AnchorPoint: "TopCap" 595 1493 basechar 0
AnchorPoint: "Bottom" 595 0 basechar 0
AnchorPoint: "Cedilla" 595 0 basechar 0
Fore
131 1409 m 1,0,1
 237 1464 237 1464 352 1492 c 128,-1,2
 467 1520 467 1520 592 1520 c 0,3,4
 965 1520 965 1520 1183 1312 c 128,-1,5
 1401 1103 1401 1103 1401 746 c 0,6,7
 1401 388 1401 388 1183 180 c 128,-1,8
 965 -29 965 -29 592 -29 c 0,9,10
 467 -29 467 -29 352 -1 c 128,-1,11
 237 27 237 27 131 82 c 1,12,-1
 131 391 l 1,13,14
 238 318 238 318 342 284 c 128,-1,15
 446 250 446 250 561 250 c 0,16,17
 767 250 767 250 885 382 c 128,-1,18
 1003 514 1003 514 1003 746 c 0,19,20
 1003 977 1003 977 885 1109 c 128,-1,21
 767 1241 767 1241 561 1241 c 0,22,23
 446 1241 446 1241 342 1207 c 128,-1,24
 238 1173 238 1173 131 1100 c 1,25,-1
 131 1409 l 1,0,1
EndSplineSet
EndChar
StartChar: uni0187
Encoding: 391 391 518
Width: 1503
Flags: W
TeX: 117 0 0 0
AnchorPoint: "TopCap" 908 1493 basechar 0
AnchorPoint: "Bottom" 908 0 basechar 0
AnchorPoint: "Cedilla" 908 0 basechar 0
Fore
1372 1100 m 21,0,0
 1265 1173 1265 1173 1161 1207 c 132,-1,15
 1057 1241 1057 1241 942 1241 c 0,16,17
 736 1241 736 1241 618 1109 c 128,-1,18
 500 977 500 977 500 745 c 0,19,20
 500 514 500 514 618 382 c 128,-1,21
 736 250 736 250 942 250 c 0,22,23
 1057 250 1057 250 1161 284 c 128,-1,24
 1265 318 1265 318 1372 391 c 1,25,-1
 1372 82 l 1,0,1
 1266 27 1266 27 1151 -1 c 128,-1,2
 1036 -29 1036 -29 911 -29 c 0,3,4
 538 -29 538 -29 320 180 c 128,-1,5
 102 388 102 388 102 745 c 0,6,7
 102 1103 102 1103 320 1312 c 128,-1,8
 538 1520 538 1520 911 1520 c 0,9,10
 1019 1520 1019 1520 1151 1492 c 132,-1,11
 1203 1481 1203 1481 1238 1467 c 5,0,0
 1241 1497 1241 1497 1245 1516 c 4,15,16
 1263 1591 1263 1591 1314 1647 c 4,17,18
 1392 1734 1392 1734 1503 1734 c 4,19,20
 1613 1734 1613 1734 1692 1647 c 13,21,22
 1601 1519 l 21,6,7
 1554 1572 1554 1572 1506 1572 c 132,-1,8
 1458 1572 1458 1572 1410 1519 c 4,9,10
 1372 1476 1372 1476 1372 1389 c 6,11,-1
 1372 1100 l 21,0,0
EndSplineSet
EndChar
StartChar: uni0188
Encoding: 392 392 519
Width: 1214
Flags: W
TeX: 117 0 0 0
AnchorPoint: "Bottom" 694 0 basechar 0
AnchorPoint: "Top" 693 1120 basechar 0
AnchorPoint: "Cedilla" 694 0 basechar 0
Fore
1077 793 m 21,0,0
 1004 843 1004 843 930 867 c 132,-1,3
 857 891 857 891 778 891 c 0,4,5
 628 891 628 891 544 804 c 128,-1,6
 461 716 461 716 461 559 c 0,7,8
 461 402 461 402 544 314 c 128,-1,9
 628 227 628 227 778 227 c 0,10,11
 862 227 862 227 938 252 c 128,-1,12
 1013 277 1013 277 1077 326 c 1,13,-1
 1077 33 l 1,14,15
 993 2 993 2 906 -14 c 128,-1,16
 820 -29 820 -29 733 -29 c 0,17,18
 430 -29 430 -29 259 126 c 128,-1,19
 88 282 88 282 88 559 c 0,20,21
 88 836 88 836 259 992 c 128,-1,22
 430 1147 430 1147 733 1147 c 0,23,24
 821 1147 821 1147 906 1132 c 132,-1,25
 944 1124 l 5,0,0
 948 1157 948 1157 950 1165 c 4,15,16
 968 1240 968 1240 1019 1296 c 4,17,18
 1097 1383 1097 1383 1208 1383 c 4,19,20
 1318 1383 1318 1383 1397 1296 c 13,21,22
 1306 1168 l 21,6,7
 1259 1221 1259 1221 1211 1221 c 132,-1,8
 1163 1221 1163 1221 1115 1168 c 4,9,10
 1077 1125 1077 1125 1077 1038 c 6,11,-1
 1077 793 l 21,0,0
EndSplineSet
EndChar
StartChar: uni018A
Encoding: 394 394 521
Width: 1800
Flags: W
TeX: 117 0 0 0
AnchorPoint: "TopCap" 948 1493 basechar 0
AnchorPoint: "Bottom" 948 0 basechar 0
Fore
673 1202 m 5,0,-1
 673 291 l 5,1,-1
 811 291 l 6,2,3
 1047 291 1047 291 1172 408 c 132,-1,4
 1296 525 1296 525 1296 748 c 4,5,6
 1296 970 1296 970 1172 1086 c 132,-1,7
 1048 1202 1048 1202 811 1202 c 6,8,-1
 673 1202 l 5,0,-1
694 1493 m 22,10,11
 1034 1493 1034 1493 1200 1444 c 132,-1,12
 1367 1396 1367 1396 1486 1280 c 4,13,14
 1591 1179 1591 1179 1642 1047 c 132,-1,15
 1693 915 1693 915 1693 748 c 4,16,17
 1693 579 1693 579 1642 446 c 132,-1,18
 1591 314 1591 314 1486 213 c 4,19,20
 1366 97 1366 97 1198 48 c 132,-1,21
 1030 0 1030 0 694 0 c 6,22,-1
 288 0 l 5,23,-1
 288 1353 l 29,0,0
 268 1353 l 6,11,-1
 179 1353 179 1353 138 1315 c 4,9,10
 85 1267 85 1267 85 1219 c 132,-1,8
 85 1171 85 1171 138 1124 c 13,6,7
 10 1033 l 21,21,22
 -77 1112 -77 1112 -77 1222 c 4,19,20
 -77 1333 -77 1333 10 1411 c 4,17,18
 66 1462 66 1462 141 1480 c 4,15,16
 195 1493 195 1493 351 1493 c 14,0,0
 694 1493 l 22,10,11
EndSplineSet
EndChar
StartChar: uni018B
Encoding: 395 395 522
Width: 1561
Flags: W
TeX: 117 0 0 0
HStem: 0 262<594.5 990> 1473 20G<346 1375>
VStem: 146 385<342 581>
AnchorPoint: "Bottom" 793 0 basechar 0
AnchorPoint: "TopCap" 793 1493 basechar 0
Fore
764 262 m 2,0,-1
 990 262 l 1,1,-1
 990 633 l 1,2,-1
 764 633 l 2,3,4
 642 633 642 633 589 588 c 0,5,6
 531 540 531 540 531 449 c 0,7,8
 531 356 531 356 589 307 c 0,9,10
 643 262 643 262 764 262 c 2,0,-1
736 0 m 18,11,12
 453 0 453 0 292 117 c 0,13,14
 146 223 146 223 146 461 c 24,15,16
 146 701 146 701 292 807 c 0,17,18
 453 924 453 924 736 924 c 2,19,-1
 990 924 l 1,20,-1
 990 1202 l 25,21,-1
 346 1202 l 25,22,-1
 346 1493 l 25,23,-1
 1375 1493 l 1,24,-1
 1375 0 l 9,25,-1
 736 0 l 18,11,12
EndSplineSet
EndChar
StartChar: uni018C
Encoding: 396 396 523
Width: 1466
Flags: W
TeX: 117 0 0 0
AnchorPoint: "Top" 699 1493 basechar 0
AnchorPoint: "Bottom" 699 0 basechar 0
Fore
698 231 m 4,0,1
 813 231 813 231 874 316 c 132,-1,11
 936 400 936 400 936 559 c 4,9,10
 936 718 936 718 874 802 c 132,-1,8
 813 887 813 887 698 887 c 4,6,7
 583 887 583 887 522 803 c 132,-1,5
 462 719 462 719 462 559 c 4,3,4
 462 399 462 399 522 315 c 132,-1,2
 583 231 583 231 698 231 c 4,0,1
936 946 m 13,12,13
 936 1272 l 21,3,-1
 289 1272 l 5,2,-1
 289 1493 l 5,1,-1
 1294 1493 l 5,27,-1
 1294 0 l 5,26,-1
 936 0 l 5,25,-1
 936 162 l 5,24,-1
 862 64 862 64 772 18 c 132,-1,23
 682 -29 682 -29 565 -29 c 4,21,22
 358 -29 358 -29 225 136 c 132,-1,20
 92 300 92 300 92 559 c 4,18,19
 92 798 92 798 225 962 c 132,-1,17
 350 1117 350 1117 565 1117 c 4,15,16
 707 1117 707 1117 772 1080 c 132,-1,14
 895 1011 895 1011 936 946 c 13,12,13
EndSplineSet
EndChar
StartChar: uni018D
Encoding: 397 397 524
Width: 1407
Flags: W
TeX: 117 0 0 0
HStem: 1364 156<612 627> -29 153<548 591>
VStem: 947 194<911 932> 844 188<239 245> 113 195<911 942>
Fore
253 -118 m 21,0,1
 375 -188 375 -188 661 -188 c 4,2,3
 864 -188 864 -188 864 -111 c 28,4,5
 864 -36 864 -36 648 -2 c 4,6,7
 414 35 414 35 259 157 c 4,8,9
 89 292 89 292 89 569 c 4,10,11
 89 834 89 834 253 990 c 4,12,13
 417 1147 417 1147 704 1147 c 4,14,15
 990 1147 990 1147 1156 990 c 4,16,17
 1320 834 1320 834 1320 559 c 4,18,19
 1320 351 1320 351 1156 190 c 4,20,21
 1105 140 1105 140 1041 108 c 5,22,23
 1189 29 1189 29 1189 -154 c 12,24,25
 1189 -426 1189 -426 661 -426 c 4,26,27
 396 -426 396 -426 253 -356 c 13,28,-1
 253 -118 l 21,0,1
789 238 m 5,29,30
 842 260 842 260 884 316 c 4,31,32
 950 403 950 403 950 560 c 132,-1,33
 950 717 950 717 884 805 c 4,34,35
 819 893 819 893 704 893 c 4,36,37
 592 893 592 893 526 804 c 4,38,39
 460 714 460 714 460 568 c 4,40,41
 460 415 460 415 530 341 c 4,42,43
 602 264 602 264 701 253 c 4,44,45
 747 248 747 248 789 238 c 5,29,30
EndSplineSet
EndChar
StartChar: uni018E
Encoding: 398 398 525
Width: 1399
Flags: W
TeX: 117 0 0 0
HStem: 0 21G<150 1211> 633 291<211 826> 1473 20G<172 1211>
AnchorPoint: "TopCap" 709 1493 basechar 0
AnchorPoint: "Bottom" 709 0 basechar 0
AnchorPoint: "Cedilla" 709 0 basechar 0
AnchorPoint: "Ogonek" 409 0 basechar 0
Fore
1211 1493 m 1,0,-1
 1211 0 l 1,1,-1
 150 0 l 1,2,-1
 150 291 l 1,3,-1
 826 291 l 1,4,-1
 826 633 l 1,5,-1
 211 633 l 1,6,-1
 211 924 l 1,7,-1
 826 924 l 1,8,-1
 826 1202 l 1,9,-1
 172 1202 l 1,10,-1
 172 1493 l 1,11,-1
 1211 1493 l 1,0,-1
EndSplineSet
EndChar
StartChar: uni018F
Encoding: 399 399 526
Width: 1788
Flags: W
TeX: 117 0 0 0
HStem: -29 279<839 903> 582 291<102 1249> 1240 280<789 841>
VStem: 102 445<582 740>
AnchorPoint: "Bottom" 893 0 basechar 0
AnchorPoint: "TopCap" 893 1493 basechar 0
Fore
102 740 m 2,0,-1
 102 873 l 1,1,-1
 1255 873 l 1,2,3
 1234 1046 1234 1046 1115 1151 c 128,-1,4
 1010 1240 1010 1240 798 1240 c 0,5,6
 644 1240 644 1240 492 1194 c 128,-1,7
 342 1149 342 1149 172 1049 c 1,8,-1
 172 1392 l 1,9,10
 332 1452 332 1452 507 1487 c 128,-1,11
 674 1520 674 1520 841 1520 c 0,12,13
 1240 1520 1240 1520 1464 1315 c 128,-1,14
 1685 1113 1685 1113 1685 745 c 0,15,16
 1685 384 1685 384 1467 178 c 128,-1,17
 1249 -29 1249 -29 868 -29 c 0,18,19
 517 -29 517 -29 310 180 c 128,-1,20
 102 390 102 390 102 740 c 2,0,-1
547 582 m 1,21,22
 547 452 547 452 646 339 c 128,-1,23
 724 250 724 250 870 250 c 0,24,25
 1038 250 1038 250 1123 333 c 128,-1,26
 1226 434 1226 434 1249 582 c 1,27,-1
 547 582 l 1,21,22
EndSplineSet
EndChar
StartChar: uni0190
Encoding: 400 400 527
Width: 1425
Flags: W
TeX: 117 0 0 0
Fore
471 805 m 5,0,1
 336 839 336 839 267 922 c 132,-1,40
 198 1006 198 1006 198 1137 c 4,38,39
 198 1329 198 1329 342 1424 c 132,-1,37
 487 1520 487 1520 778 1520 c 4,35,36
 886 1520 886 1520 998 1504 c 132,-1,34
 1110 1488 1110 1488 1224 1456 c 5,32,33
 1224 1174 l 5,31,-1
 1130 1215 1130 1215 1035 1236 c 132,-1,30
 940 1257 940 1257 847 1257 c 4,28,29
 721 1257 721 1257 652 1210 c 132,-1,27
 583 1163 583 1163 583 1077 c 4,25,26
 583 984 583 984 654 938 c 132,-1,24
 725 893 725 893 870 893 c 6,22,23
 1032 893 l 5,21,-1
 1032 645 l 5,20,-1
 878 645 l 6,19,-1
 715 645 715 645 632 592 c 132,-1,18
 548 540 548 540 548 438 c 4,16,17
 548 339 548 339 630 286 c 132,-1,15
 711 233 711 233 864 233 c 4,13,14
 967 233 967 233 1074 260 c 132,-1,12
 1180 288 1180 288 1288 342 c 5,10,11
 1288 45 l 5,9,-1
 1175 8 1175 8 1060 -10 c 132,-1,8
 944 -29 944 -29 829 -29 c 4,6,7
 503 -29 503 -29 333 86 c 132,-1,5
 163 202 163 202 163 424 c 4,3,4
 163 573 163 573 242 670 c 132,-1,2
 320 766 320 766 471 805 c 5,0,1
EndSplineSet
EndChar
StartChar: uni0191
Encoding: 401 401 528
Width: 1399
Flags: W
TeX: 117 0 0 0
AnchorPoint: "TopCap" 682 1493 basechar 0
AnchorPoint: "Bottom" 682 0 basechar 0
Fore
-41 -211 m 21,0,1
 3 -253 3 -253 57 -253 c 4,0,1
 115 -253 115 -253 151 -216 c 4,2,3
 188 -178 188 -178 188 -124 c 6,9,-1
 188 1493 l 5,0,-1
 1227 1493 l 1,1,-1
 1227 1202 l 1,2,-1
 573 1202 l 5,3,-1
 573 924 l 5,4,-1
 1188 924 l 1,5,-1
 1188 633 l 1,6,-1
 573 633 l 5,7,-1
 573 -9 l 6,8,-1
 573 -217 573 -217 454 -321 c 4,9,10
 333 -426 333 -426 157 -426 c 28,12,13
 -53 -426 -53 -426 -132 -339 c 13,21,22
 -41 -211 l 21,0,1
EndSplineSet
EndChar
StartChar: uni0193
Encoding: 403 403 529
Width: 1681
Flags: W
TeX: 117 0 0 0
AnchorPoint: "TopCap" 910 1493 basechar 0
AnchorPoint: "Bottom" 910 0 basechar 0
Fore
1475 1100 m 21,0,0
 1350 1171 1350 1171 1226 1206 c 132,-1,15
 1103 1241 1103 1241 979 1241 c 4,16,17
 749 1241 749 1241 624 1112 c 132,-1,18
 500 984 500 984 500 745 c 4,19,20
 500 508 500 508 620 379 c 132,-1,21
 740 250 740 250 961 250 c 4,22,23
 1021 250 1021 250 1072 258 c 132,-1,24
 1124 265 1124 265 1165 281 c 5,25,-1
 1165 571 l 5,26,-1
 930 571 l 5,27,-1
 930 829 l 5,28,-1
 1530 829 l 5,29,-1
 1530 111 l 5,0,1
 1386 41 1386 41 1231 6 c 132,-1,2
 1076 -29 1076 -29 911 -29 c 4,3,4
 538 -29 538 -29 320 180 c 132,-1,5
 102 388 102 388 102 745 c 4,6,7
 102 1106 102 1106 324 1313 c 132,-1,8
 546 1520 546 1520 932 1520 c 4,9,10
 1081 1520 1081 1520 1218 1492 c 132,-1,11
 1280 1479 1280 1479 1339 1461 c 5,0,0
 1342 1492 1342 1492 1348 1516 c 4,15,16
 1366 1591 1366 1591 1417 1647 c 4,17,18
 1495 1734 1495 1734 1606 1734 c 4,19,20
 1716 1734 1716 1734 1795 1647 c 13,21,22
 1704 1519 l 21,6,7
 1657 1572 1657 1572 1609 1572 c 132,-1,8
 1561 1572 1561 1572 1513 1519 c 4,9,10
 1475 1476 1475 1476 1475 1389 c 6,11,-1
 1475 1100 l 21,0,0
EndSplineSet
EndChar
StartChar: uni0194
Encoding: 404 404 530
Width: 1627
Flags: W
TeX: 117 0 0 0
HStem: -426 210<629.5 998> 1473 20G<34 391 1239 1596>
VStem: 445 269<-255 -26.5> 912 270<-255 -24.5>
Fore
814 101 m 1,0,1
 714 -69 714 -69 714 -120 c 0,2,3
 714 -216 714 -216 814 -216 c 24,4,5
 912 -216 912 -216 912 -120 c 0,6,7
 912 -69 912 -69 814 101 c 1,0,1
994 381 m 1,8,9
 1182 35 1182 35 1182 -84 c 0,10,11
 1182 -426 1182 -426 814 -426 c 24,12,13
 445 -426 445 -426 445 -84 c 0,14,15
 445 31 445 31 635 383 c 1,16,-1
 34 1493 l 1,17,-1
 391 1493 l 1,18,-1
 815 710 l 1,19,-1
 1239 1493 l 1,20,-1
 1596 1493 l 1,21,-1
 994 381 l 1,8,9
EndSplineSet
EndChar
StartChar: uni0195
Encoding: 405 405 531
Width: 2156
Flags: W
TeX: 117 0 0 0
HStem: -29 286<1314 1573> 1100 20G<1626 1984> 1127 20G<829 970.003>
VStem: 928 330<436 682> 1626 358<334 1120>
Fore
1258 567 m 18,0,1
 1258 421 1258 421 1320 328 c 0,2,3
 1367 257 1367 257 1441 257 c 24,4,5
 1512 257 1512 257 1562 328 c 0,6,7
 1626 419 1626 419 1626 567 c 2,8,-1
 1626 1120 l 1,9,-1
 1984 1120 l 1,10,-1
 1984 436 l 2,11,12
 1984 232 1984 232 1832 90 c 0,13,14
 1706 -29 1706 -29 1440 -29 c 24,15,16
 1187 -29 1187 -29 1070 90 c 0,17,18
 928 233 928 233 928 436 c 2,19,-1
 928 520 l 2,20,21
 928 667 928 667 922 722 c 128,-1,22
 915 777 915 777 899 803 c 0,23,24
 878 838 878 838 842 858 c 128,-1,25
 806 877 806 877 760 877 c 0,26,27
 658 877 658 877 594 790 c 128,-1,28
 530 704 530 704 530 551 c 2,29,-1
 530 0 l 1,30,-1
 172 0 l 1,31,-1
 172 1556 l 1,32,-1
 530 1556 l 1,33,-1
 530 956 l 1,34,35
 627 1064 627 1064 692 1100 c 0,36,37
 774 1147 774 1147 883 1147 c 0,38,39
 1057 1147 1057 1147 1158 1028 c 0,40,41
 1258 909 1258 909 1258 682 c 10,42,-1
 1258 567 l 18,0,1
EndSplineSet
EndChar
StartChar: uni0196
Encoding: 406 406 532
Width: 762
Flags: W
TeX: 117 0 0 0
HStem: -29 21G<461 531.424> 1473 20G<188 573>
VStem: 188 385<335 1493>
AnchorPoint: "TopCap" 381 1493 basechar 0
AnchorPoint: "Bottom" 381 0 basechar 0
AnchorPoint: "Ogonek" 381 0 basechar 0
Fore
573 371 m 22,0,1
 573 300 573 300 590 272 c 4,2,3
 606 244 606 244 645 244 c 4,4,5
 663 244 663 244 680 249 c 132,-1,6
 696 254 696 254 715 266 c 5,7,-1
 715 16 l 5,8,9
 673 -5 673 -5 608 -18 c 4,10,11
 555 -29 555 -29 508 -29 c 4,12,13
 413 -29 413 -29 352 8 c 4,14,15
 309 35 309 35 250 129 c 12,16,17
 216 183 216 183 205 246 c 28,18,19
 188 339 188 339 188 469 c 6,20,-1
 188 1493 l 5,21,-1
 573 1493 l 13,22,-1
 573 371 l 22,0,1
EndSplineSet
EndChar
StartChar: uni0197
Encoding: 407 407 533
Width: 838
Flags: W
TeX: 117 0 0 0
AnchorPoint: "TopCap" 419 1493 basechar 0
AnchorPoint: "Bottom" 419 0 basechar 0
AnchorPoint: "Ogonek" 419 0 basechar 0
Fore
611 633 m 9,0,-1
 611 0 l 1,1,-1
 226 0 l 1,2,-1
 226 633 l 17,3,-1
 -9 633 l 1,4,-1
 -9 924 l 1,5,-1
 226 924 l 9,6,-1
 226 1493 l 1,7,-1
 611 1493 l 1,8,-1
 611 924 l 17,9,-1
 846 924 l 1,10,-1
 846 633 l 1,11,-1
 611 633 l 9,0,-1
EndSplineSet
EndChar
StartChar: uni0198
Encoding: 408 408 534
Width: 1587
Flags: W
TeX: 117 0 0 0
HStem: 0 21G<188 573 1167 1649> 1302 218<1279 1476.5>
Fore
1524 1105 m 17,0,1
 1552 1137 1552 1137 1552 1181 c 0,2,3
 1552 1232 1552 1232 1517 1267 c 0,4,5
 1483 1302 1483 1302 1432 1302 c 0,6,7
 1381 1302 1381 1302 1330 1252 c 26,8,-1
 856 786 l 17,9,-1
 1649 0 l 1,10,-1
 1167 0 l 1,11,-1
 573 588 l 1,12,-1
 573 0 l 1,13,-1
 188 0 l 1,14,-1
 188 1493 l 1,15,-1
 573 1493 l 1,16,-1
 573 948 l 1,17,-1
 1019 1386 l 10,18,19
 1155 1520 1155 1520 1403 1520 c 0,20,21
 1550 1520 1550 1520 1644 1435 c 128,-1,22
 1738 1350 1738 1350 1738 1232 c 128,-1,23
 1738 1114 1738 1114 1676 1033 c 1,24,-1
 1524 1105 l 17,0,1
EndSplineSet
EndChar
StartChar: uni0199
Encoding: 409 409 535
Width: 1362
Flags: W
TeX: 117 0 0 0
AnchorPoint: "Top" 713 1493 basechar 0
AnchorPoint: "Bottom" 713 0 basechar 0
Fore
172 0 m 9,10,-1
 172 1103 l 22,0,1
 172 1312 172 1312 284 1415 c 4,2,3
 398 1520 398 1520 571 1520 c 28,4,5
 771 1520 771 1520 850 1433 c 13,6,-1
 759 1305 l 21,7,8
 715 1347 715 1347 661 1347 c 4,9,10
 603 1347 603 1347 567 1310 c 4,11,12
 530 1272 530 1272 530 1217 c 6,13,-1
 530 709 l 1,2,-1
 942 1120 l 1,3,-1
 1358 1120 l 1,4,-1
 811 606 l 1,5,-1
 1401 0 l 1,6,-1
 967 0 l 1,7,-1
 530 467 l 1,8,-1
 530 0 l 1,9,-1
 172 0 l 9,10,-1
EndSplineSet
EndChar
StartChar: uni019A
Encoding: 410 410 536
Width: 702
Flags: W
TeX: 117 0 0 0
HStem: 0 21G<172 530> 634 256<-30 172 530 732>
VStem: 172 358<0 634 890 1556>
AnchorPoint: "Bottom" 350 0 basechar 0
AnchorPoint: "Top" 351 1520 basechar 0
Fore
530 634 m 9,0,-1
 530 0 l 1,1,-1
 172 0 l 1,2,-1
 172 634 l 17,3,-1
 -30 634 l 5,4,-1
 -30 890 l 5,5,-1
 172 890 l 9,6,-1
 172 1556 l 1,7,-1
 530 1556 l 1,8,-1
 530 890 l 17,9,-1
 732 890 l 5,10,-1
 732 634 l 5,11,-1
 530 634 l 9,0,-1
EndSplineSet
EndChar
StartChar: uni019B
Encoding: 411 411 537
Width: 1470
Flags: W
TeX: 117 0 0 0
Fore
775 1166 m 25,0,-1
 1428 0 l 9,1,-1
 1049 0 l 9,2,-1
 743 544 l 17,3,-1
 439 0 l 1,4,-1
 60 0 l 1,5,-1
 555 881 l 1,6,-1
 503 973 l 25,7,-1
 266 805 l 1,8,-1
 157 961 l 1,9,-1
 410 1141 l 25,10,-1
 365 1220 l 2,11,12
 354 1238 354 1238 344 1248 c 0,13,14
 315 1273 315 1273 261 1273 c 0,15,16
 244 1273 244 1273 221 1270 c 0,17,18
 189 1266 189 1266 163 1263 c 1,19,-1
 163 1504 l 1,20,21
 199 1514 199 1514 239 1516 c 0,22,23
 294 1520 294 1520 325 1520 c 0,24,25
 507 1520 507 1520 582 1469 c 0,26,27
 619 1444 619 1444 645 1398 c 2,28,-1
 681 1333 l 25,29,-1
 895 1486 l 1,30,-1
 1006 1330 l 1,31,-1
 775 1166 l 25,0,-1
EndSplineSet
EndChar
